<svg xmlns="http://www.w3.org/2000/svg" xmlns:xlink="http://www.w3.org/1999/xlink" width="500" zoomAndPan="magnify" viewBox="0 0 375 374.999991" height="500" preserveAspectRatio="xMidYMid meet" version="1.0"><defs><clipPath id="c1f43aee1a"><path d="M 117 284 L 254 284 L 254 325.828125 L 117 325.828125 Z M 117 284 " clip-rule="nonzero"/></clipPath></defs><path fill="#b5e6ea" d="M 93.53125 82.898438 C 94.257812 85.132812 94.652344 87.320312 94.839844 89.480469 C 99.195312 87.320312 103.917969 85.808594 108.640625 84.585938 C 124.191406 80.550781 141.691406 86.023438 155.011719 94.070312 C 158.183594 95.988281 160.015625 97.65625 161.660156 100.882812 C 163.335938 104.164062 163.828125 108.007812 162.824219 111.574219 C 161.613281 115.894531 158.269531 119.5625 154.074219 121.167969 C 153.882812 121.238281 153.683594 121.300781 153.488281 121.367188 C 153.300781 122.765625 153.109375 124.078125 152.933594 125.238281 C 153.597656 125.769531 153.875 126.761719 153.691406 127.566406 C 153.527344 128.296875 152.996094 128.769531 152.355469 128.988281 C 152.171875 130.226562 151.972656 131.480469 151.765625 132.746094 C 152.265625 132.832031 152.773438 132.910156 153.277344 133 C 153.882812 133.109375 154.152344 133.804688 154.035156 134.339844 C 153.144531 138.464844 151.941406 142.59375 150.207031 146.449219 C 150.152344 146.574219 150.09375 146.695312 150.03125 146.816406 C 150.570312 148.15625 151.269531 149.433594 151.820312 150.789062 C 151.988281 151.199219 152.160156 151.632812 152.109375 152.074219 C 152.015625 152.898438 151.210938 153.4375 150.4375 153.734375 L 150.355469 153.769531 C 149.40625 154.117188 147.480469 154.542969 146.140625 154.222656 C 144.3125 159.40625 142.472656 164.597656 139.871094 169.5 C 138.78125 171.554688 137.105469 173.933594 134.734375 174.566406 C 133.265625 174.957031 131.714844 174.820312 130.207031 174.644531 C 130.121094 174.636719 130.035156 174.625 129.949219 174.613281 C 125.515625 174.078125 121.292969 173.058594 117.453125 171.402344 C 117.488281 171.769531 117.355469 172.152344 117.09375 172.398438 C 116.957031 173.074219 116.824219 173.75 116.6875 174.425781 C 115.722656 179.21875 114.867188 184.035156 114.128906 188.871094 C 114.058594 189.316406 113.898438 189.625 113.679688 189.839844 C 115.140625 191.589844 116.597656 193.402344 117.984375 195.28125 C 128.847656 199.75 139.558594 204.589844 150.089844 209.792969 C 150.355469 209.925781 150.617188 210.058594 150.882812 210.191406 L 185.695312 209.277344 C 186.722656 208.964844 187.753906 208.652344 188.777344 208.335938 C 195.339844 206.300781 201.859375 204.128906 208.429688 202.113281 C 209.410156 201.8125 210.378906 201.492188 211.347656 201.175781 C 213.984375 197.992188 216.917969 195.136719 219.511719 191.804688 C 221.21875 192.96875 221.28125 195.964844 220.574219 198.09375 C 222.507812 197.457031 224.453125 196.835938 226.425781 196.273438 C 226.527344 196.242188 226.632812 196.214844 226.738281 196.1875 C 228.875 194.3125 231.164062 191.734375 233.90625 190.875 C 235.25 189.226562 236.847656 187.898438 238.273438 186.316406 C 240.039062 184.355469 242.085938 182.699219 244.140625 181.050781 C 245.75 179.765625 247.359375 178.480469 248.964844 177.195312 C 249.335938 176.898438 250.253906 175.921875 250.742188 175.914062 C 251.179688 175.910156 251.175781 176.609375 251.296875 177.039062 C 251.488281 177.695312 251.566406 178.371094 251.5625 179.042969 C 254.386719 177.382812 257.328125 175.921875 260.394531 174.707031 C 265.453125 172.707031 270.917969 171.714844 276.300781 171.929688 C 266.054688 154.175781 253.980469 133.910156 243.171875 115.96875 C 239.882812 116.269531 236.589844 116.507812 233.289062 116.640625 C 225.8125 116.945312 218.015625 116.636719 211.355469 113.222656 C 206.21875 110.585938 202.152344 106.300781 198.03125 102.257812 C 185.324219 89.796875 171.050781 78.9375 155.6875 69.941406 L 87.542969 72.941406 C 90.25 75.726562 92.335938 79.210938 93.53125 82.898438 " fill-opacity="1" fill-rule="nonzero"/><path fill="#b5e6ea" d="M 151.660156 134.929688 C 151.570312 134.914062 151.484375 134.898438 151.398438 134.882812 C 151.164062 136.195312 150.914062 137.511719 150.644531 138.824219 C 151.023438 137.539062 151.355469 136.234375 151.660156 134.929688 " fill-opacity="1" fill-rule="nonzero"/><path fill="#b5e6ea" d="M 329.039062 126.753906 C 316.621094 115.84375 299.214844 112.402344 282.6875 112.542969 C 273.164062 112.628906 263.699219 113.753906 254.230469 114.820312 L 284.460938 173.242188 C 287.109375 174.015625 289.671875 175.132812 292.078125 176.625 C 296.800781 179.550781 300.925781 183.667969 303.617188 188.546875 C 306.472656 193.722656 307.53125 199.425781 307.324219 205.296875 C 307.292969 206.230469 307.226562 207.164062 307.148438 208.09375 L 347.019531 219.902344 C 349.15625 213.917969 350.824219 207.785156 351.746094 201.5 C 353.925781 186.703125 351.925781 171.472656 347.320312 157.242188 C 343.628906 145.828125 338.050781 134.671875 329.039062 126.753906 " fill-opacity="1" fill-rule="nonzero"/><path fill="#b5e6ea" d="M 283.046875 185.707031 C 282.882812 185.621094 282.714844 185.539062 282.550781 185.5 C 282.714844 185.570312 282.882812 185.636719 283.046875 185.707031 " fill-opacity="1" fill-rule="nonzero"/><path fill="#b5e6ea" d="M 32.617188 195.183594 C 34.90625 185.945312 38.703125 177.078125 43.875 169.085938 C 45.0625 167.253906 46.359375 165.421875 48.171875 164.207031 C 50.671875 162.527344 53.835938 162.222656 56.851562 162.164062 C 67.1875 161.949219 77.546875 164.039062 87.035156 168.132812 C 87.746094 168.445312 88.445312 168.765625 89.132812 169.097656 C 91.421875 164.945312 93.710938 160.792969 96 156.640625 C 95.789062 156.703125 95.566406 156.757812 95.335938 156.800781 C 92.957031 157.230469 90.621094 155.917969 88.683594 154.472656 C 83.203125 150.386719 80.84375 145.59375 79.78125 139.050781 C 79.539062 137.578125 78.746094 130.375 78.882812 124.390625 C 78.160156 121.675781 77.742188 118.941406 77.65625 116.246094 C 68.78125 116.730469 59.277344 114.921875 54.515625 107.695312 C 52.554688 104.714844 51.699219 101.183594 51.472656 97.597656 C 34.230469 123.023438 23.761719 153.039062 21.539062 183.679688 C 26.386719 186.082031 29.925781 190.257812 32.617188 195.183594 " fill-opacity="1" fill-rule="nonzero"/><path fill="#b5e6ea" d="M 263.003906 190.953125 C 263.078125 192.972656 262.320312 194.96875 261.0625 196.535156 C 260.433594 197.320312 259.671875 198.007812 258.820312 198.539062 C 258.113281 198.980469 256.863281 198.972656 256.546875 199.816406 C 256.363281 200.304688 256.367188 200.914062 256.214844 201.425781 C 256.035156 202.023438 255.796875 202.605469 255.515625 203.164062 C 254.636719 204.890625 253.320312 206.375 251.777344 207.546875 L 294.96875 206.417969 C 294.980469 206.164062 294.992188 205.914062 295.003906 205.664062 C 292.347656 200.464844 288.785156 193.929688 284.640625 186.550781 C 284.230469 186.328125 283.824219 186.097656 283.402344 185.894531 C 283.308594 185.847656 283.207031 185.792969 283.105469 185.738281 C 283.027344 185.707031 282.949219 185.671875 282.867188 185.644531 C 282.289062 185.417969 281.695312 185.214844 281.101562 185.035156 C 280.070312 184.71875 279.019531 184.496094 277.957031 184.316406 C 275.828125 184.105469 273.695312 184.125 271.566406 184.355469 C 270.027344 184.609375 268.507812 184.960938 267.015625 185.40625 C 266.144531 185.667969 265.277344 185.964844 264.421875 186.28125 C 264.421875 186.28125 264.417969 186.28125 264.417969 186.28125 C 264.566406 186.496094 264.699219 186.714844 264.800781 186.957031 C 265.445312 188.5 264.636719 190.613281 263.003906 190.953125 " fill-opacity="1" fill-rule="nonzero"/><path fill="#483077" d="M 294.910156 200.582031 C 294.710938 199.410156 294.445312 198.253906 294.0625 197.125 C 293.976562 196.855469 293.875 196.589844 293.773438 196.324219 C 293.523438 195.792969 293.273438 195.269531 292.992188 194.757812 C 292.664062 194.164062 292.3125 193.585938 291.941406 193.023438 C 291.605469 192.511719 290.242188 191 291.621094 192.503906 C 290.734375 191.535156 289.929688 190.527344 288.972656 189.625 C 288.507812 189.1875 288.023438 188.78125 287.535156 188.371094 C 287.332031 188.222656 287.128906 188.078125 286.921875 187.933594 C 286.1875 187.433594 285.417969 186.980469 284.640625 186.546875 C 288.789062 193.929688 292.347656 200.464844 295.003906 205.664062 C 295.085938 203.96875 295.070312 202.269531 294.910156 200.582031 " fill-opacity="1" fill-rule="nonzero"/><path fill="#483077" d="M 155.683594 69.941406 C 147.722656 65.277344 139.46875 61.109375 130.980469 57.496094 C 111.21875 49.085938 93.472656 55.125 78.296875 67.34375 C 81.808594 68.273438 84.960938 70.285156 87.542969 72.941406 L 155.683594 69.941406 " fill-opacity="1" fill-rule="nonzero"/><path fill="#483077" d="M 284.460938 173.242188 L 254.230469 114.820312 C 250.542969 115.234375 246.859375 115.636719 243.171875 115.972656 C 253.980469 133.910156 266.054688 154.179688 276.300781 171.925781 C 279.066406 172.039062 281.804688 172.464844 284.460938 173.242188 " fill-opacity="1" fill-rule="nonzero"/><path fill="#5d359b" d="M 249.71875 271.546875 C 249.296875 272.191406 248.871094 272.828125 248.453125 273.472656 C 246.992188 275.71875 245.5 278.199219 245.753906 280.863281 C 245.785156 281.1875 245.84375 281.503906 245.921875 281.8125 C 245.9375 281.804688 245.953125 281.796875 245.96875 281.789062 C 247.835938 280.78125 249.65625 279.6875 251.429688 278.519531 C 252.285156 277.960938 253.125 277.382812 253.957031 276.785156 C 254.316406 276.527344 254.675781 276.265625 255.03125 276 C 255.144531 275.917969 255.601562 275.570312 255.800781 275.417969 C 255.84375 275.386719 255.875 275.363281 255.886719 275.351562 C 256.035156 275.234375 256.179688 275.117188 256.328125 275 C 256.664062 274.726562 257.003906 274.449219 257.339844 274.171875 C 258.003906 273.621094 258.65625 273.0625 259.308594 272.492188 C 261.914062 270.214844 264.410156 267.804688 266.789062 265.289062 C 264.5 266.765625 262.085938 268.011719 259.539062 268.960938 C 256.355469 270.148438 253.0625 270.972656 249.71875 271.546875 " fill-opacity="1" fill-rule="nonzero"/><path fill="#5d359b" d="M 297.667969 240.601562 C 292.972656 251.363281 286.578125 261.296875 278.925781 270.1875 C 271.59375 278.707031 262.878906 286.472656 253.007812 291.957031 C 254.703125 294.042969 256.402344 296.128906 258.09375 298.214844 C 261.574219 302.488281 264.035156 307.679688 266.777344 312.628906 C 299.046875 297.238281 324.449219 268.148438 340.285156 235.691406 C 342.792969 230.550781 345.097656 225.289062 347.019531 219.902344 L 307.152344 208.09375 C 306.214844 219.398438 302.171875 230.289062 297.667969 240.601562 " fill-opacity="1" fill-rule="nonzero"/><path fill="#5d359b" d="M 291.28125 223.277344 C 292.386719 219.929688 293.328125 216.527344 294.027344 213.074219 C 289.996094 217.695312 286.042969 222.386719 282.167969 227.144531 C 285.253906 225.941406 288.292969 224.621094 291.28125 223.277344 " fill-opacity="1" fill-rule="nonzero"/><path fill="#483077" d="M 253.007812 291.957031 C 252.507812 292.234375 252.007812 292.511719 251.5 292.777344 C 246.046875 295.640625 240.160156 297.964844 234.078125 299.058594 C 240.613281 305.359375 247.148438 311.65625 253.679688 317.957031 C 258.160156 316.429688 262.53125 314.65625 266.777344 312.628906 C 264.03125 307.679688 261.574219 302.488281 258.09375 298.214844 C 256.402344 296.128906 254.703125 294.042969 253.007812 291.957031 " fill-opacity="1" fill-rule="nonzero"/><path fill="#483077" d="M 248.453125 273.472656 C 248.871094 272.828125 249.296875 272.191406 249.71875 271.546875 C 244.917969 272.371094 240.007812 272.671875 235.132812 272.660156 C 228.429688 272.644531 222.632812 271.578125 218.636719 265.78125 C 215.871094 261.757812 214.195312 257.054688 213.507812 252.222656 C 212.546875 256.117188 211.78125 260.0625 211.210938 264.019531 C 210.824219 267.242188 210.675781 270.488281 211.007812 273.722656 C 211.257812 275.222656 211.613281 276.699219 212.132812 278.132812 C 212.164062 278.214844 212.1875 278.28125 212.207031 278.339844 C 212.359375 278.652344 212.503906 278.96875 212.671875 279.273438 C 213.039062 279.96875 213.457031 280.632812 213.910156 281.277344 C 214.195312 281.597656 214.472656 281.925781 214.769531 282.238281 C 215.304688 282.796875 215.878906 283.300781 216.457031 283.816406 C 216.769531 284.035156 217.078125 284.253906 217.398438 284.460938 C 218.054688 284.886719 218.738281 285.273438 219.4375 285.636719 C 219.722656 285.777344 220.011719 285.910156 220.300781 286.050781 C 220.878906 286.25 221.449219 286.46875 222.039062 286.644531 C 223.050781 286.949219 224.089844 287.164062 225.132812 287.339844 C 226.753906 287.492188 228.375 287.488281 229.996094 287.328125 C 233.859375 286.6875 237.574219 285.550781 241.21875 284.113281 C 241.414062 284.027344 241.617188 283.9375 241.820312 283.847656 C 242.289062 283.632812 242.753906 283.417969 243.21875 283.191406 C 244.128906 282.753906 245.03125 282.292969 245.921875 281.8125 C 245.84375 281.503906 245.785156 281.1875 245.753906 280.863281 C 245.5 278.199219 246.992188 275.71875 248.453125 273.472656 " fill-opacity="1" fill-rule="nonzero"/><path fill="#483077" d="M 120.613281 301.628906 C 121.292969 303.046875 122.046875 304.425781 122.878906 305.761719 C 124.867188 305.195312 126.855469 304.632812 128.84375 304.074219 C 125.222656 301.761719 121.804688 299.28125 118.558594 296.652344 C 119.164062 298.34375 119.84375 300.007812 120.613281 301.628906 " fill-opacity="1" fill-rule="nonzero"/><path fill="#483077" d="M 250.449219 208.457031 C 247.613281 210.164062 244.335938 210.96875 241.050781 211.433594 C 241.035156 214.042969 241.335938 216.726562 241.65625 219.167969 C 241.84375 220.5625 242.097656 221.988281 242.515625 223.339844 C 243.054688 225.09375 243.867188 226.726562 245.140625 228.027344 C 247.121094 230.054688 249.960938 231 252.746094 231.523438 C 262.667969 233.402344 272.617188 230.867188 282.171875 227.140625 C 286.042969 222.386719 289.996094 217.695312 294.03125 213.074219 C 294.289062 211.808594 294.519531 210.539062 294.707031 209.257812 C 294.816406 208.316406 294.90625 207.367188 294.964844 206.417969 L 251.777344 207.546875 C 251.351562 207.875 250.90625 208.179688 250.449219 208.457031 " fill-opacity="1" fill-rule="nonzero"/><path fill="#483077" d="M 199.546875 259.253906 C 191.742188 270.390625 183.503906 281.226562 175.164062 291.96875 C 179.242188 290.878906 183.28125 289.710938 187.226562 288.355469 C 191.949219 286.734375 196.835938 285.34375 201.742188 284.765625 C 199.933594 281.148438 198.964844 277.144531 198.617188 272.996094 C 198.238281 268.425781 198.757812 263.796875 199.546875 259.253906 " fill-opacity="1" fill-rule="nonzero"/><path fill="#483077" d="M 145.332031 271.597656 C 156.203125 261.917969 167.195312 252.371094 178.15625 242.792969 C 173.304688 244.609375 167.640625 245.929688 163.570312 244.140625 C 160.304688 243.730469 157.066406 242.949219 153.898438 242.121094 C 149.484375 240.976562 145.078125 239.785156 140.683594 238.574219 C 139.40625 238.21875 138.128906 237.855469 136.851562 237.5 C 136.855469 237.503906 136.859375 237.511719 136.859375 237.519531 C 136.859375 237.511719 136.855469 237.503906 136.851562 237.5 C 136.851562 237.496094 136.851562 237.496094 136.847656 237.496094 C 141.339844 246.890625 145.957031 257.578125 142.121094 267.207031 C 143.167969 268.6875 144.234375 270.148438 145.320312 271.597656 C 145.324219 271.597656 145.328125 271.597656 145.332031 271.597656 " fill-opacity="1" fill-rule="nonzero"/><path fill="#483077" d="M 43.75 234.398438 C 44.03125 235.976562 44.308594 237.554688 44.574219 239.132812 C 45.355469 236.332031 46.226562 233.546875 47.179688 230.789062 C 46.171875 232.101562 45.03125 233.410156 43.75 234.398438 " fill-opacity="1" fill-rule="nonzero"/><path fill="#483077" d="M 162.304688 215.792969 C 162.328125 215.78125 162.355469 215.777344 162.378906 215.765625 C 162.457031 215.738281 162.539062 215.722656 162.621094 215.71875 C 162.671875 215.710938 162.710938 215.6875 162.761719 215.6875 C 162.957031 215.6875 163.160156 215.753906 163.339844 215.867188 C 166.6875 214.234375 170.308594 213.484375 173.949219 212.566406 C 177.894531 211.574219 181.804688 210.457031 185.695312 209.277344 L 150.882812 210.191406 C 154.644531 212.054688 158.382812 213.964844 162.097656 215.921875 C 162.164062 215.867188 162.234375 215.824219 162.304688 215.792969 " fill-opacity="1" fill-rule="nonzero"/><path fill="#1e1a3a" d="M 299.253906 201.757812 C 299.324219 200.441406 301.375 200.4375 301.304688 201.757812 C 300.847656 210.296875 299.28125 218.765625 296.683594 226.914062 C 292.082031 241.363281 284.34375 254.773438 274.261719 266.09375 C 264.179688 277.414062 251.679688 286.617188 237.699219 292.535156 C 236.5 293.042969 235.453125 291.277344 236.667969 290.765625 C 244.359375 287.507812 251.621094 283.265625 258.257812 278.191406 C 270.105469 269.132812 279.9375 257.464844 287.035156 244.359375 C 294.132812 231.257812 298.453125 216.652344 299.253906 201.757812 Z M 282.550781 185.5 C 282.714844 185.539062 282.882812 185.621094 283.046875 185.707031 C 282.878906 185.636719 282.714844 185.570312 282.550781 185.5 Z M 260.390625 174.707031 C 257.324219 175.921875 254.386719 177.386719 251.5625 179.042969 C 251.558594 179.507812 251.515625 179.976562 251.429688 180.4375 C 255.746094 177.769531 260.3125 175.496094 265.109375 173.902344 C 266.363281 173.480469 266.902344 175.460938 265.65625 175.878906 C 260.199219 177.695312 255.007812 180.417969 250.167969 183.636719 C 249.707031 184.4375 249.164062 185.199219 248.59375 185.929688 C 248.011719 186.679688 247.398438 187.398438 246.800781 188.132812 C 246.300781 188.746094 245.574219 189.410156 245.441406 190.203125 C 245.160156 191.875 245.261719 193.691406 245.136719 195.386719 C 245.046875 196.605469 244.925781 197.832031 244.75 199.046875 C 246.042969 197.792969 247.402344 196.609375 248.863281 195.554688 C 247.5 193.65625 248.472656 190.863281 249.871094 189.269531 C 252.246094 186.554688 257.160156 183.878906 260.828125 184.316406 C 262.222656 184.480469 263.625 185.15625 264.417969 186.285156 C 264.417969 186.285156 264.421875 186.285156 264.421875 186.285156 C 265.277344 185.964844 266.140625 185.667969 267.015625 185.410156 C 268.507812 184.960938 270.027344 184.613281 271.566406 184.359375 C 273.691406 184.128906 275.828125 184.105469 277.957031 184.316406 C 279.015625 184.496094 280.070312 184.71875 281.101562 185.035156 C 281.695312 185.214844 282.285156 185.417969 282.867188 185.644531 C 282.949219 185.675781 283.023438 185.707031 283.105469 185.738281 C 283.207031 185.792969 283.304688 185.847656 283.402344 185.890625 C 283.820312 186.097656 284.230469 186.328125 284.640625 186.550781 C 285.417969 186.980469 286.183594 187.433594 286.917969 187.9375 C 287.125 188.078125 287.328125 188.226562 287.535156 188.371094 C 288.019531 188.785156 288.507812 189.191406 288.96875 189.625 C 289.929688 190.527344 290.734375 191.539062 291.617188 192.503906 C 290.242188 191 291.601562 192.515625 291.941406 193.023438 C 292.3125 193.589844 292.664062 194.167969 292.988281 194.757812 C 293.273438 195.269531 293.523438 195.796875 293.773438 196.324219 C 293.875 196.589844 293.972656 196.859375 294.0625 197.128906 C 294.445312 198.253906 294.707031 199.410156 294.90625 200.582031 C 295.066406 202.269531 295.082031 203.96875 295.003906 205.664062 C 294.992188 205.914062 294.980469 206.167969 294.964844 206.417969 C 294.902344 207.367188 294.816406 208.316406 294.703125 209.257812 C 294.515625 210.539062 294.289062 211.808594 294.027344 213.074219 C 293.328125 216.527344 292.386719 219.929688 291.277344 223.277344 C 291.785156 223.050781 292.289062 222.824219 292.792969 222.59375 C 289.804688 238.230469 280.765625 256.246094 266.785156 265.289062 C 264.40625 267.804688 261.914062 270.214844 259.304688 272.496094 C 258.65625 273.0625 258.003906 273.621094 257.339844 274.171875 C 257.003906 274.449219 256.664062 274.726562 256.324219 275 C 256.179688 275.117188 256.035156 275.234375 255.886719 275.351562 C 255.871094 275.363281 255.84375 275.386719 255.800781 275.421875 C 255.601562 275.570312 255.144531 275.917969 255.03125 276 C 254.675781 276.265625 254.316406 276.527344 253.957031 276.785156 C 253.125 277.382812 252.285156 277.960938 251.429688 278.523438 C 249.65625 279.6875 247.835938 280.78125 245.96875 281.789062 C 245.953125 281.796875 245.9375 281.804688 245.921875 281.8125 C 245.03125 282.292969 244.128906 282.753906 243.21875 283.195312 C 242.753906 283.417969 242.285156 283.636719 241.820312 283.847656 C 241.617188 283.9375 241.414062 284.027344 241.214844 284.113281 C 237.574219 285.550781 233.859375 286.6875 229.996094 287.328125 C 228.375 287.492188 226.753906 287.492188 225.132812 287.339844 C 224.085938 287.164062 223.050781 286.949219 222.035156 286.644531 C 221.449219 286.46875 220.878906 286.25 220.300781 286.050781 C 220.011719 285.910156 219.722656 285.777344 219.433594 285.636719 C 218.738281 285.273438 218.054688 284.886719 217.394531 284.460938 C 217.074219 284.253906 216.765625 284.035156 216.457031 283.816406 C 215.878906 283.300781 215.304688 282.796875 214.769531 282.238281 C 214.46875 281.925781 214.195312 281.597656 213.910156 281.277344 C 213.457031 280.632812 213.039062 279.96875 212.667969 279.273438 C 212.503906 278.96875 212.359375 278.652344 212.207031 278.34375 C 212.1875 278.285156 212.164062 278.214844 212.132812 278.132812 C 211.613281 276.699219 211.257812 275.222656 211.007812 273.722656 C 210.675781 270.488281 210.824219 267.246094 211.210938 264.019531 C 211.78125 260.0625 212.542969 256.117188 213.507812 252.222656 C 213.191406 250.003906 213.082031 247.761719 213.171875 245.542969 C 213.304688 242.226562 213.8125 239.121094 214.601562 236.160156 C 214.332031 236.277344 214.0625 236.378906 213.789062 236.472656 C 213.148438 238.800781 211.023438 241.703125 209.988281 243.484375 C 208.476562 246.089844 206.820312 248.613281 205.144531 251.113281 C 204.957031 251.929688 204.769531 252.742188 204.609375 253.5625 C 202.875 262.367188 202.660156 271.492188 204.433594 280.308594 C 204.691406 281.601562 202.714844 282.148438 202.457031 280.855469 C 200.765625 272.464844 200.808594 263.855469 202.195312 255.441406 C 201.320312 256.71875 200.4375 257.988281 199.546875 259.253906 C 198.757812 263.796875 198.238281 268.425781 198.617188 272.996094 C 198.964844 277.144531 199.933594 281.148438 201.738281 284.765625 C 208.078125 284.023438 214.457031 284.644531 220.558594 287.90625 C 224.886719 290.21875 228.488281 293.671875 232.027344 297.082031 C 232.710938 297.742188 233.394531 298.402344 234.078125 299.058594 C 240.15625 297.964844 246.046875 295.640625 251.5 292.777344 C 252.007812 292.511719 252.503906 292.234375 253.007812 291.957031 C 262.878906 286.476562 271.59375 278.707031 278.925781 270.191406 C 286.578125 261.296875 292.972656 251.363281 297.667969 240.601562 C 302.171875 230.289062 306.214844 219.398438 307.152344 208.09375 C 307.226562 207.164062 307.292969 206.230469 307.320312 205.296875 C 307.53125 199.425781 306.46875 193.722656 303.617188 188.546875 C 300.925781 183.667969 296.800781 179.550781 292.078125 176.628906 C 289.671875 175.132812 287.109375 174.015625 284.460938 173.242188 C 281.804688 172.464844 279.066406 172.039062 276.300781 171.929688 C 270.917969 171.714844 265.449219 172.707031 260.390625 174.707031 " fill-opacity="1" fill-rule="nonzero"/><path fill="#9f5d4c" d="M 242.8125 205.941406 C 242.515625 206.566406 241.976562 207.21875 241.3125 207.867188 C 241.136719 209.015625 241.054688 210.214844 241.050781 211.433594 C 244.339844 210.96875 247.613281 210.164062 250.449219 208.457031 C 250.90625 208.179688 251.351562 207.875 251.777344 207.546875 C 253.320312 206.375 254.636719 204.890625 255.515625 203.164062 C 255.796875 202.605469 256.035156 202.023438 256.214844 201.425781 C 256.367188 200.914062 256.363281 200.304688 256.546875 199.816406 C 256.863281 198.972656 258.113281 198.980469 258.820312 198.539062 C 259.671875 198.007812 260.433594 197.320312 261.0625 196.535156 C 262.324219 194.96875 263.078125 192.972656 263.003906 190.953125 C 264.636719 190.613281 265.445312 188.496094 264.800781 186.957031 C 264.699219 186.714844 264.566406 186.496094 264.417969 186.285156 C 263.625 185.15625 262.222656 184.480469 260.828125 184.316406 C 257.160156 183.878906 252.25 186.554688 249.871094 189.269531 C 248.472656 190.863281 247.5 193.65625 248.863281 195.554688 C 247.402344 196.609375 246.042969 197.789062 244.75 199.042969 C 244.40625 201.421875 243.84375 203.757812 242.8125 205.941406 " fill-opacity="1" fill-rule="nonzero"/><path fill="#1e1a3a" d="M 225.898438 268.621094 C 218.523438 264.867188 214.445312 255.941406 214.601562 247.914062 C 214.625 246.59375 216.675781 246.59375 216.652344 247.914062 C 216.507812 255.261719 220.175781 263.410156 226.933594 266.847656 C 228.109375 267.449219 227.070312 269.21875 225.898438 268.621094 Z M 252.746094 231.527344 C 249.960938 231 247.121094 230.054688 245.140625 228.027344 C 243.867188 226.726562 243.054688 225.09375 242.515625 223.339844 C 242.097656 221.988281 241.839844 220.5625 241.65625 219.167969 C 241.335938 216.726562 241.035156 214.042969 241.046875 211.433594 C 241.054688 210.214844 241.136719 209.015625 241.3125 207.867188 C 239.632812 209.503906 237.113281 211.078125 235.496094 211.882812 C 235.671875 212.605469 235.878906 213.417969 235.875 213.660156 C 235.867188 214.984375 235.492188 216.207031 234.929688 217.390625 C 234.132812 219.074219 233.035156 220.941406 231.929688 222.457031 C 228.328125 227.394531 222.636719 231.433594 217.488281 234.59375 C 216.757812 235.039062 215.707031 235.679688 214.597656 236.160156 C 213.8125 239.121094 213.304688 242.226562 213.171875 245.542969 C 213.082031 247.761719 213.191406 250.003906 213.507812 252.222656 C 214.195312 257.058594 215.871094 261.757812 218.636719 265.78125 C 222.632812 271.582031 228.425781 272.644531 235.132812 272.660156 C 240.007812 272.671875 244.917969 272.371094 249.71875 271.546875 C 253.0625 270.972656 256.355469 270.148438 259.539062 268.960938 C 262.085938 268.015625 264.5 266.769531 266.785156 265.289062 C 280.765625 256.246094 289.808594 238.230469 292.792969 222.59375 C 292.289062 222.824219 291.785156 223.050781 291.277344 223.277344 C 288.292969 224.621094 285.253906 225.941406 282.167969 227.144531 C 272.613281 230.867188 262.667969 233.402344 252.746094 231.527344 " fill-opacity="1" fill-rule="nonzero"/><path fill="#5d359b" d="M 44.574219 239.132812 C 44.308594 237.554688 44.03125 235.976562 43.75 234.398438 C 42.285156 235.527344 40.644531 236.238281 38.808594 236.042969 C 35.40625 235.679688 33.171875 232.304688 32.035156 229.074219 C 30.324219 224.214844 29.96875 218.976562 30.089844 213.824219 C 30.238281 207.542969 31.101562 201.28125 32.617188 195.183594 C 29.925781 190.257812 26.386719 186.082031 21.539062 183.679688 C 21.199219 188.339844 21.042969 193.015625 21.089844 197.691406 C 21.277344 215.617188 24.320312 233.722656 31.984375 249.925781 C 34.246094 254.703125 36.890625 259.253906 39.859375 263.582031 C 40.664062 256.714844 41.824219 249.886719 43.496094 243.171875 C 43.835938 241.820312 44.199219 240.476562 44.574219 239.132812 " fill-opacity="1" fill-rule="nonzero"/><path fill="#37296f" d="M 250.171875 183.636719 C 255.011719 180.417969 260.199219 177.695312 265.65625 175.875 C 266.902344 175.460938 266.367188 173.480469 265.109375 173.898438 C 260.3125 175.496094 255.746094 177.769531 251.429688 180.4375 C 251.367188 180.757812 251.296875 181.074219 251.195312 181.382812 C 250.945312 182.175781 250.585938 182.917969 250.171875 183.636719 " fill-opacity="1" fill-rule="nonzero"/><path fill="#37296f" d="M 202.199219 255.441406 C 200.808594 263.855469 200.765625 272.464844 202.457031 280.855469 C 202.714844 282.148438 204.695312 281.597656 204.433594 280.308594 C 202.660156 271.492188 202.878906 262.367188 204.609375 253.5625 C 204.769531 252.738281 204.957031 251.925781 205.144531 251.113281 C 205.136719 251.125 205.128906 251.136719 205.121094 251.152344 C 204.15625 252.585938 203.179688 254.015625 202.199219 255.441406 " fill-opacity="1" fill-rule="nonzero"/><path fill="#37296f" d="M 226.933594 266.847656 C 220.175781 263.410156 216.511719 255.261719 216.652344 247.910156 C 216.675781 246.59375 214.625 246.59375 214.601562 247.910156 C 214.445312 255.941406 218.523438 264.867188 225.898438 268.621094 C 227.070312 269.214844 228.113281 267.449219 226.933594 266.847656 " fill-opacity="1" fill-rule="nonzero"/><path fill="#37296f" d="M 287.03125 244.359375 C 279.933594 257.464844 270.105469 269.132812 258.257812 278.191406 C 251.621094 283.265625 244.359375 287.507812 236.664062 290.765625 C 235.453125 291.277344 236.5 293.042969 237.703125 292.535156 C 251.679688 286.617188 264.179688 277.414062 274.261719 266.09375 C 284.339844 254.773438 292.082031 241.363281 296.683594 226.914062 C 299.28125 218.765625 300.84375 210.296875 301.304688 201.757812 C 301.375 200.4375 299.320312 200.441406 299.25 201.757812 C 298.453125 216.652344 294.128906 231.257812 287.03125 244.359375 " fill-opacity="1" fill-rule="nonzero"/><path fill="#9f5d4c" d="M 236.257812 191.585938 C 236.65625 192.1875 236.765625 192.9375 236.761719 193.65625 C 236.753906 194.738281 236.519531 195.816406 236.074219 196.804688 C 235.898438 197.179688 235.695312 197.550781 235.628906 197.960938 C 235.558594 198.378906 235.640625 198.808594 235.726562 199.222656 C 236.136719 201.308594 237.148438 203.78125 237.183594 205.871094 C 237.210938 207.613281 236.226562 209.1875 235.277344 210.648438 C 235.253906 210.683594 235.273438 210.832031 235.3125 211.042969 C 235.390625 211.207031 235.425781 211.382812 235.421875 211.558594 C 235.445312 211.664062 235.472656 211.769531 235.496094 211.882812 C 237.113281 211.078125 239.632812 209.503906 241.3125 207.867188 C 241.976562 207.21875 242.515625 206.566406 242.8125 205.941406 C 243.84375 203.757812 244.40625 201.421875 244.75 199.042969 C 244.925781 197.828125 245.046875 196.605469 245.136719 195.386719 C 245.261719 193.691406 245.160156 191.875 245.441406 190.203125 C 245.574219 189.410156 246.300781 188.746094 246.800781 188.132812 C 247.398438 187.398438 248.011719 186.675781 248.59375 185.929688 C 249.167969 185.199219 249.707031 184.4375 250.171875 183.636719 C 250.585938 182.917969 250.945312 182.175781 251.195312 181.382812 C 251.296875 181.074219 251.367188 180.757812 251.429688 180.4375 C 251.519531 179.976562 251.5625 179.507812 251.5625 179.042969 C 251.566406 178.371094 251.488281 177.699219 251.296875 177.039062 C 251.175781 176.613281 251.179688 175.910156 250.742188 175.914062 C 250.253906 175.921875 249.335938 176.898438 248.964844 177.195312 C 247.359375 178.480469 245.75 179.765625 244.140625 181.054688 C 242.085938 182.699219 240.039062 184.359375 238.273438 186.316406 C 236.847656 187.898438 235.25 189.230469 233.90625 190.875 C 234.074219 190.824219 234.242188 190.773438 234.414062 190.734375 C 235.117188 190.574219 235.859375 190.984375 236.257812 191.585938 " fill-opacity="1" fill-rule="nonzero"/><path fill="#8789cd" d="M 136.5625 236.421875 C 136.59375 236.523438 136.621094 236.628906 136.652344 236.730469 C 136.734375 237.007812 136.804688 237.269531 136.851562 237.5 C 138.128906 237.855469 139.40625 238.21875 140.683594 238.574219 C 144.585938 229.273438 147.34375 219.585938 150.089844 209.792969 C 139.558594 204.589844 128.847656 199.75 117.984375 195.28125 C 121.070312 199.464844 123.789062 203.96875 125.28125 208.769531 C 126.738281 213.460938 134.65625 230.164062 136.5625 236.421875 " fill-opacity="1" fill-rule="nonzero"/><path fill="#8789cd" d="M 136.652344 236.730469 C 136.621094 236.628906 136.59375 236.53125 136.5625 236.421875 C 135.800781 233.957031 134.328125 231.386719 132.699219 228.929688 C 133.414062 230.347656 134.109375 231.777344 134.792969 233.207031 C 135.453125 234.601562 136.148438 236.035156 136.847656 237.496094 C 136.851562 237.496094 136.851562 237.496094 136.851562 237.5 C 136.796875 237.246094 136.726562 236.988281 136.652344 236.730469 " fill-opacity="1" fill-rule="nonzero"/><path fill="#fbc7a5" d="M 140.683594 238.574219 C 145.078125 239.785156 149.484375 240.976562 153.898438 242.121094 C 157.066406 242.949219 160.304688 243.730469 163.570312 244.140625 C 161.683594 243.3125 160.136719 241.820312 159.175781 239.390625 C 156.804688 233.398438 153.671875 224.417969 158.925781 218.90625 C 159.589844 218.207031 160.335938 217.613281 161.136719 217.089844 C 161.234375 217.023438 161.339844 216.976562 161.4375 216.914062 C 161.566406 216.6875 161.6875 216.453125 161.820312 216.226562 C 161.898438 216.097656 161.996094 216 162.097656 215.921875 C 158.382812 213.964844 154.644531 212.054688 150.882812 210.191406 C 150.617188 210.058594 150.355469 209.925781 150.089844 209.792969 C 147.34375 219.585938 144.585938 229.273438 140.683594 238.574219 " fill-opacity="1" fill-rule="nonzero"/><path fill="#fbc7a5" d="M 216.304688 206.011719 C 219.421875 202.664062 222.753906 199.515625 226.269531 196.589844 C 226.425781 196.460938 226.582031 196.328125 226.738281 196.191406 C 226.632812 196.214844 226.527344 196.246094 226.425781 196.273438 C 224.453125 196.835938 222.507812 197.457031 220.574219 198.097656 C 220.566406 198.117188 220.5625 198.144531 220.554688 198.164062 C 219.449219 201.382812 217.929688 203.523438 216.304688 206.011719 " fill-opacity="1" fill-rule="nonzero"/><path fill="#fbc7a5" d="M 163.339844 215.867188 C 163.617188 216.039062 163.828125 216.3125 163.851562 216.625 C 163.875 216.753906 163.867188 216.886719 163.828125 217.027344 C 163.480469 220.003906 163.949219 222.976562 164.832031 225.828125 C 165.25 227.171875 163.144531 227.742188 162.730469 226.40625 C 162.207031 224.722656 161.824219 222.976562 161.640625 221.214844 C 160.699219 223.203125 159.890625 225.257812 159.261719 227.378906 C 158.863281 228.722656 156.761719 228.148438 157.160156 226.800781 C 158.179688 223.347656 159.628906 220.027344 161.4375 216.914062 C 161.339844 216.976562 161.234375 217.023438 161.136719 217.089844 C 160.335938 217.613281 159.589844 218.207031 158.925781 218.90625 C 153.671875 224.417969 156.804688 233.398438 159.175781 239.390625 C 160.136719 241.820312 161.683594 243.3125 163.570312 244.140625 C 167.640625 245.929688 173.304688 244.609375 178.15625 242.792969 C 180.589844 240.664062 183.027344 238.539062 185.453125 236.40625 C 189.636719 232.730469 193.804688 229.035156 197.953125 225.316406 C 198.886719 224.476562 199.894531 223.203125 200.984375 222.589844 C 201.289062 222.414062 201.53125 222.308594 201.746094 222.261719 C 201.785156 219.652344 202.367188 217.238281 203.191406 214.726562 C 204.261719 211.453125 206.921875 207.3125 208.851562 204.472656 C 209.636719 203.316406 210.476562 202.230469 211.347656 201.175781 C 210.378906 201.492188 209.40625 201.816406 208.429688 202.117188 C 201.859375 204.128906 195.339844 206.300781 188.777344 208.335938 C 187.75 208.652344 186.722656 208.964844 185.695312 209.277344 C 181.804688 210.457031 177.894531 211.574219 173.949219 212.566406 C 170.308594 213.484375 166.6875 214.234375 163.339844 215.867188 " fill-opacity="1" fill-rule="nonzero"/><path fill="#f89f8c" d="M 162.378906 215.765625 C 162.453125 215.738281 162.535156 215.726562 162.621094 215.71875 C 162.539062 215.722656 162.457031 215.738281 162.378906 215.765625 " fill-opacity="1" fill-rule="nonzero"/><path fill="#f89f8c" d="M 163.828125 217.027344 C 163.867188 216.886719 163.875 216.753906 163.851562 216.625 C 163.855469 216.675781 163.859375 216.726562 163.855469 216.78125 C 163.84375 216.863281 163.839844 216.941406 163.828125 217.027344 " fill-opacity="1" fill-rule="nonzero"/><path fill="#f89f8c" d="M 159.261719 227.378906 C 159.890625 225.257812 160.699219 223.203125 161.640625 221.214844 C 161.488281 219.738281 161.476562 218.25 161.671875 216.78125 C 161.730469 216.347656 161.941406 215.96875 162.304688 215.792969 C 162.234375 215.824219 162.164062 215.867188 162.097656 215.921875 C 161.996094 216 161.898438 216.097656 161.820312 216.226562 C 161.6875 216.453125 161.566406 216.6875 161.4375 216.914062 C 159.628906 220.027344 158.179688 223.347656 157.160156 226.800781 C 156.761719 228.148438 158.863281 228.722656 159.261719 227.378906 " fill-opacity="1" fill-rule="nonzero"/><path fill="#f89f8c" d="M 161.671875 216.78125 C 161.476562 218.25 161.488281 219.738281 161.640625 221.214844 C 161.824219 222.976562 162.207031 224.722656 162.730469 226.40625 C 163.144531 227.742188 165.25 227.171875 164.832031 225.828125 C 163.949219 222.976562 163.480469 220.003906 163.828125 217.027344 C 163.839844 216.941406 163.84375 216.863281 163.855469 216.78125 C 163.859375 216.726562 163.855469 216.675781 163.851562 216.625 C 163.828125 216.3125 163.617188 216.039062 163.339844 215.867188 C 163.160156 215.753906 162.957031 215.6875 162.761719 215.6875 C 162.710938 215.6875 162.671875 215.710938 162.621094 215.71875 C 162.535156 215.726562 162.453125 215.738281 162.378906 215.765625 C 162.355469 215.777344 162.328125 215.78125 162.304688 215.792969 C 161.941406 215.96875 161.730469 216.347656 161.671875 216.78125 " fill-opacity="1" fill-rule="nonzero"/><g clip-path="url(#c1f43aee1a)"><path fill="#d45283" d="M 232.027344 297.082031 C 228.492188 293.671875 224.886719 290.21875 220.558594 287.90625 C 214.457031 284.640625 208.082031 284.023438 201.742188 284.765625 C 196.835938 285.34375 191.949219 286.734375 187.226562 288.355469 C 183.28125 289.710938 179.242188 290.878906 175.164062 291.96875 C 175.117188 292.023438 175.074219 292.082031 175.03125 292.136719 C 171.402344 296.804688 164.242188 307.664062 156.734375 309.871094 C 154.753906 310.835938 152.699219 311.519531 150.929688 311.859375 C 144.421875 313.109375 136.832031 308.917969 131.492188 305.714844 C 130.59375 305.175781 129.714844 304.628906 128.84375 304.074219 C 126.855469 304.632812 124.867188 305.195312 122.878906 305.761719 C 123.078125 306.078125 123.273438 306.390625 123.480469 306.699219 C 125.542969 309.792969 119.996094 313.535156 118.097656 315.253906 C 118.011719 315.328125 117.921875 315.402344 117.835938 315.480469 C 139.859375 321.675781 162.988281 324.078125 185.921875 325 C 206.839844 325.839844 228.101562 325.472656 248.21875 319.691406 C 250.058594 319.160156 251.875 318.570312 253.679688 317.957031 C 247.148438 311.65625 240.613281 305.359375 234.078125 299.058594 C 233.394531 298.402344 232.710938 297.742188 232.027344 297.082031 " fill-opacity="1" fill-rule="nonzero"/></g><path fill="#371225" d="M 77.65625 116.246094 C 77.390625 107.882812 80.355469 99.886719 87.558594 94.082031 C 89.808594 92.269531 92.257812 90.761719 94.839844 89.484375 C 94.652344 87.324219 94.253906 85.136719 93.53125 82.898438 C 92.335938 79.210938 90.25 75.730469 87.542969 72.941406 C 84.960938 70.285156 81.808594 68.273438 78.296875 67.34375 C 73.503906 71.203125 68.964844 75.667969 64.703125 80.5 C 59.929688 85.90625 55.519531 91.628906 51.472656 97.59375 C 51.699219 101.183594 52.554688 104.714844 54.515625 107.695312 C 59.277344 114.921875 68.78125 116.734375 77.65625 116.246094 " fill-opacity="1" fill-rule="nonzero"/><path fill="#371225" d="M 88.035156 142.875 C 85.074219 138.300781 82.179688 133.636719 80.230469 128.546875 C 79.703125 127.171875 79.253906 125.785156 78.882812 124.390625 C 78.746094 130.375 79.539062 137.578125 79.78125 139.050781 C 80.84375 145.59375 83.203125 150.386719 88.683594 154.472656 C 90.621094 155.917969 92.957031 157.230469 95.335938 156.800781 C 95.566406 156.757812 95.789062 156.703125 96 156.640625 C 96.289062 156.117188 96.578125 155.59375 96.867188 155.070312 C 93.621094 151.367188 90.6875 146.96875 88.035156 142.875 " fill-opacity="1" fill-rule="nonzero"/><path fill="#8789cd" d="M 123.480469 306.699219 C 123.273438 306.390625 123.078125 306.078125 122.878906 305.761719 C 122.046875 304.425781 121.292969 303.046875 120.613281 301.628906 C 119.84375 300.007812 119.164062 298.34375 118.558594 296.652344 C 109.375 289.214844 101.527344 280.546875 94.199219 270.902344 C 93.851562 270.441406 93.5 269.980469 93.152344 269.519531 C 92.902344 269.539062 92.644531 269.441406 92.429688 269.171875 C 85.910156 260.988281 78.695312 253.296875 72.753906 244.679688 C 72.683594 244.675781 72.617188 244.667969 72.546875 244.652344 C 68.445312 243.746094 63.640625 242.425781 61.78125 238.203125 C 61.558594 237.695312 61.625 237.105469 62.148438 236.800781 C 62.585938 236.542969 63.328125 236.660156 63.550781 237.167969 C 64.898438 240.230469 68.039062 241.4375 71.109375 242.214844 C 70.457031 241.203125 69.816406 240.179688 69.203125 239.136719 C 68.535156 237.996094 70.308594 236.964844 70.976562 238.101562 C 73.675781 242.699219 76.8125 246.972656 80.125 251.121094 C 79.847656 250.675781 79.570312 250.238281 79.300781 249.792969 C 74.3125 241.519531 69.984375 232.894531 69.515625 223.550781 C 69.359375 220.457031 69.628906 217.277344 70.441406 214.011719 C 71.542969 209.558594 73.574219 205.25 76.839844 202.03125 C 80.105469 198.816406 84.710938 196.804688 89.273438 197.253906 C 92.460938 197.570312 95.4375 199.035156 98.058594 200.886719 C 104.882812 205.695312 109.484375 212.953125 113.691406 220.195312 C 111.074219 215.367188 108.363281 210.488281 105.007812 206.171875 C 101.304688 201.414062 95.949219 196.320312 89.582031 196.117188 C 84.050781 195.9375 78.953125 198.90625 75.128906 202.695312 C 71.300781 206.488281 68.328125 211.355469 67.144531 216.640625 C 66.855469 217.933594 64.878906 217.382812 65.167969 216.097656 C 66.566406 209.835938 70.371094 203.996094 75.207031 199.832031 C 79.484375 196.148438 85.03125 193.519531 90.792969 194.152344 C 97.363281 194.875 102.828125 200.019531 106.699219 205.03125 C 110.914062 210.492188 114.1875 216.757812 117.445312 222.820312 C 121.1875 229.789062 124.664062 236.894531 128.6875 243.707031 C 129.082031 244.378906 128.628906 245.007812 128.054688 245.183594 C 132.480469 252.691406 137.089844 260.097656 142.121094 267.207031 C 145.957031 257.578125 141.339844 246.890625 136.847656 237.496094 C 136.148438 236.035156 135.453125 234.601562 134.792969 233.207031 C 134.109375 231.777344 133.414062 230.347656 132.699219 228.929688 C 131.066406 226.464844 129.277344 224.109375 127.890625 222.097656 C 123.820312 216.203125 119.316406 210.59375 114.402344 205.382812 C 109.960938 200.675781 104.171875 193.765625 98.203125 191.164062 C 92.023438 188.472656 84.488281 189.875 78.84375 193.210938 C 71.859375 197.335938 66.863281 204.046875 62.058594 210.578125 C 57.292969 217.058594 52.527344 223.542969 47.757812 230.023438 C 47.570312 230.277344 47.378906 230.53125 47.179688 230.789062 C 46.226562 233.546875 45.355469 236.332031 44.574219 239.132812 C 44.199219 240.476562 43.835938 241.820312 43.496094 243.171875 C 41.824219 249.886719 40.664062 256.714844 39.859375 263.582031 C 53.769531 283.855469 74.863281 299.109375 97.75 308.578125 C 104.3125 311.292969 111.023438 313.5625 117.835938 315.480469 C 117.921875 315.402344 118.011719 315.328125 118.097656 315.253906 C 119.996094 313.535156 125.542969 309.792969 123.480469 306.699219 " fill-opacity="1" fill-rule="nonzero"/><path fill="#9f5d4c" d="M 111.328125 187.0625 C 112.105469 187.96875 112.890625 188.894531 113.679688 189.84375 C 113.898438 189.625 114.058594 189.316406 114.128906 188.871094 C 114.867188 184.039062 115.722656 179.21875 116.6875 174.425781 C 116.824219 173.75 116.957031 173.074219 117.09375 172.398438 C 116.859375 172.617188 116.523438 172.722656 116.117188 172.597656 C 109.632812 170.609375 104.472656 165.140625 103.027344 158.492188 C 103.011719 158.410156 103.003906 158.332031 103 158.261719 C 101.84375 155.984375 101.242188 153.683594 100.839844 151.300781 C 99.710938 152.820312 98.675781 154.417969 97.257812 155.519531 C 97.128906 155.375 97 155.21875 96.867188 155.070312 C 96.578125 155.59375 96.289062 156.117188 96 156.640625 C 93.710938 160.792969 91.421875 164.945312 89.132812 169.097656 C 98.039062 173.371094 104.835938 179.464844 111.328125 187.0625 " fill-opacity="1" fill-rule="nonzero"/><path fill="#fff8cd" d="M 136.652344 236.730469 C 136.621094 236.628906 136.59375 236.523438 136.5625 236.421875 C 136.59375 236.53125 136.621094 236.628906 136.652344 236.730469 " fill-opacity="1" fill-rule="nonzero"/><path fill="#fff8cd" d="M 125.28125 208.769531 C 123.789062 203.96875 121.070312 199.464844 117.984375 195.28125 C 116.597656 193.40625 115.136719 191.589844 113.679688 189.84375 C 112.890625 188.894531 112.105469 187.96875 111.328125 187.0625 C 104.835938 179.464844 98.039062 173.371094 89.132812 169.097656 C 88.445312 168.765625 87.746094 168.445312 87.035156 168.132812 C 77.546875 164.039062 67.1875 161.949219 56.851562 162.164062 C 53.835938 162.222656 50.671875 162.527344 48.171875 164.207031 C 46.359375 165.421875 45.0625 167.253906 43.875 169.085938 C 38.703125 177.078125 34.90625 185.945312 32.617188 195.183594 C 31.101562 201.28125 30.238281 207.542969 30.089844 213.824219 C 29.96875 218.976562 30.324219 224.214844 32.035156 229.074219 C 33.171875 232.304688 35.40625 235.679688 38.808594 236.042969 C 40.644531 236.238281 42.285156 235.527344 43.75 234.398438 C 45.03125 233.410156 46.171875 232.101562 47.179688 230.789062 C 47.378906 230.53125 47.570312 230.277344 47.757812 230.023438 C 52.527344 223.542969 57.292969 217.058594 62.058594 210.578125 C 66.863281 204.046875 71.859375 197.335938 78.84375 193.210938 C 84.488281 189.875 92.023438 188.472656 98.203125 191.164062 C 104.171875 193.765625 109.960938 200.675781 114.402344 205.382812 C 119.316406 210.59375 123.820312 216.203125 127.890625 222.097656 C 129.277344 224.109375 131.066406 226.464844 132.699219 228.929688 C 134.328125 231.386719 135.800781 233.957031 136.5625 236.421875 C 134.65625 230.164062 126.738281 213.460938 125.28125 208.769531 " fill-opacity="1" fill-rule="nonzero"/><path fill="#fff8cd" d="M 136.851562 237.5 C 136.855469 237.503906 136.859375 237.511719 136.859375 237.519531 C 136.859375 237.511719 136.855469 237.503906 136.851562 237.5 C 136.804688 237.269531 136.734375 237.007812 136.652344 236.730469 C 136.726562 236.988281 136.796875 237.246094 136.851562 237.5 " fill-opacity="1" fill-rule="nonzero"/><path fill="#9f5d4c" d="M 138.738281 156.183594 C 138.210938 157.046875 137.601562 157.875 136.742188 158.429688 C 135.835938 159.015625 134.703125 159.15625 133.652344 159.25 C 132.578125 159.347656 131.476562 159.195312 130.558594 158.601562 C 129.703125 158.050781 129.058594 157.265625 128.515625 156.414062 C 128.199219 155.917969 128.414062 155.214844 128.910156 154.925781 C 129.429688 154.621094 130.085938 154.820312 130.398438 155.316406 C 130.742188 155.851562 131.152344 156.394531 131.65625 156.71875 C 132.25 157.101562 132.898438 157.136719 133.652344 157.070312 C 134.347656 157.007812 135.109375 156.917969 135.695312 156.511719 C 136.164062 156.183594 136.53125 155.617188 136.859375 155.085938 C 137.589844 153.890625 139.476562 154.984375 138.738281 156.183594 Z M 144.769531 153.074219 C 144.683594 152.773438 144.679688 152.457031 144.703125 152.140625 C 143.96875 152.378906 143.183594 152.492188 142.339844 152.417969 C 138.40625 152.070312 136.566406 148.160156 136.007812 144.714844 C 135.359375 140.683594 135.496094 136.589844 136.308594 132.597656 C 130.136719 131.800781 123.941406 131.167969 117.738281 130.695312 C 117.417969 133.160156 116.851562 135.605469 116.199219 137.980469 C 116.152344 138.15625 116.101562 138.332031 116.054688 138.507812 C 115.449219 140.671875 115.03125 142.4375 113.152344 143.542969 C 113.179688 143.785156 113.222656 144.027344 113.242188 144.273438 C 113.429688 146.714844 113.511719 149.953125 112.769531 152.300781 C 111.527344 156.214844 108.058594 156.359375 105.074219 154.195312 C 103.75 153.234375 102.554688 151.902344 101.519531 150.421875 C 101.285156 150.710938 101.058594 151 100.839844 151.300781 C 101.242188 153.683594 101.84375 155.984375 103 158.261719 C 102.972656 157.058594 104.851562 156.621094 105.128906 157.910156 C 106.417969 163.824219 110.910156 168.71875 116.699219 170.496094 C 117.179688 170.644531 117.410156 171.011719 117.449219 171.402344 C 121.292969 173.0625 125.511719 174.078125 129.949219 174.617188 C 130.035156 174.625 130.121094 174.636719 130.203125 174.644531 C 131.714844 174.820312 133.265625 174.957031 134.734375 174.566406 C 137.105469 173.933594 138.777344 171.554688 139.871094 169.5 C 142.472656 164.597656 144.3125 159.410156 146.140625 154.222656 C 145.46875 154.0625 144.945312 153.714844 144.769531 153.074219 " fill-opacity="1" fill-rule="nonzero"/><path fill="#9f5d4c" d="M 117.246094 120.855469 C 117.941406 123.382812 118.109375 125.960938 117.945312 128.53125 C 129.277344 129.394531 140.5625 130.800781 151.761719 132.742188 C 151.972656 131.484375 152.171875 130.226562 152.355469 128.988281 C 151.929688 129.136719 151.457031 129.171875 151.011719 129.089844 C 150.804688 129.054688 150.597656 129.023438 150.394531 128.988281 C 150.324219 128.984375 150.054688 128.945312 150.023438 128.945312 C 149.5625 128.898438 149.101562 128.871094 148.640625 128.859375 C 147.746094 128.835938 146.863281 128.902344 145.976562 128.984375 C 145.875 129 145.769531 129.015625 145.667969 129.03125 C 145.472656 129.066406 145.277344 129.101562 145.085938 129.140625 C 144.632812 129.226562 144.183594 129.335938 143.738281 129.460938 C 143.292969 129.582031 142.851562 129.722656 142.417969 129.878906 C 142.230469 129.945312 142.046875 130.019531 141.863281 130.089844 C 141.820312 130.105469 141.796875 130.117188 141.773438 130.125 C 141.671875 130.171875 141.574219 130.214844 141.472656 130.257812 C 140.359375 130.765625 139.179688 130.554688 138.488281 129.480469 C 137.894531 128.558594 138.230469 126.96875 139.269531 126.496094 C 143.351562 124.636719 147.753906 124.078125 152.167969 124.886719 C 152.460938 124.941406 152.714844 125.066406 152.933594 125.238281 C 153.109375 124.078125 153.300781 122.765625 153.488281 121.367188 C 152.222656 121.792969 150.910156 122.070312 149.597656 122.304688 C 138.882812 124.191406 127.75 123.695312 117.246094 120.855469 " fill-opacity="1" fill-rule="nonzero"/><path fill="#9f5d4c" d="M 146.765625 139.320312 C 146.773438 139.3125 146.785156 139.308594 146.792969 139.308594 L 146.851562 139.261719 C 146.824219 139.285156 146.792969 139.296875 146.765625 139.320312 " fill-opacity="1" fill-rule="nonzero"/><path fill="#9f5d4c" d="M 148.367188 137.09375 C 148.847656 137.4375 149.078125 138.039062 148.757812 138.585938 C 148.652344 138.761719 148.488281 138.90625 148.296875 139.003906 C 148.292969 139.128906 148.28125 139.253906 148.253906 139.40625 C 148.21875 139.574219 148.144531 139.734375 148.074219 139.886719 C 147.914062 140.226562 147.640625 140.484375 147.339844 140.703125 C 146.945312 140.992188 146.4375 141.082031 145.96875 140.984375 C 145.609375 140.910156 145.257812 140.667969 145 140.417969 C 144.804688 140.230469 144.628906 140 144.507812 139.753906 C 144.429688 139.585938 144.355469 139.417969 144.304688 139.242188 C 144.257812 139.070312 144.238281 138.886719 144.21875 138.714844 C 144.207031 138.609375 144.207031 138.507812 144.214844 138.40625 C 144.226562 138.28125 144.25 138.160156 144.273438 138.035156 C 144.179688 138.039062 144.089844 138.027344 143.992188 138.035156 C 142.996094 138.109375 141.910156 138.613281 141.144531 139.351562 C 140.71875 139.761719 140.023438 139.777344 139.601562 139.351562 C 139.191406 138.941406 139.175781 138.21875 139.601562 137.8125 C 141.953125 135.550781 145.679688 135.183594 148.367188 137.09375 Z M 138.019531 143.488281 C 138.371094 146.183594 139.488281 150.46875 143.007812 150.253906 C 143.820312 150.203125 144.527344 149.949219 145.152344 149.558594 C 145.609375 147.410156 146.242188 145.300781 147.050781 143.261719 C 147.148438 143.015625 147.257812 142.761719 147.46875 142.601562 C 147.894531 142.277344 148.550781 142.519531 148.863281 142.953125 C 148.964844 143.097656 149.035156 143.257812 149.09375 143.421875 C 149.667969 141.90625 150.183594 140.375 150.644531 138.824219 C 150.914062 137.511719 151.164062 136.195312 151.398438 134.882812 C 147.101562 134.132812 142.789062 133.472656 138.46875 132.886719 C 137.730469 136.367188 137.554688 139.953125 138.019531 143.488281 " fill-opacity="1" fill-rule="nonzero"/><path fill="#823f35" d="M 136.859375 155.085938 C 136.53125 155.617188 136.164062 156.183594 135.695312 156.511719 C 135.109375 156.917969 134.347656 157.007812 133.652344 157.070312 C 132.898438 157.136719 132.25 157.101562 131.65625 156.71875 C 131.152344 156.394531 130.742188 155.851562 130.398438 155.316406 C 130.085938 154.820312 129.429688 154.621094 128.910156 154.925781 C 128.414062 155.214844 128.199219 155.917969 128.515625 156.414062 C 129.058594 157.265625 129.703125 158.050781 130.558594 158.601562 C 131.476562 159.195312 132.578125 159.347656 133.652344 159.25 C 134.703125 159.15625 135.835938 159.015625 136.742188 158.429688 C 137.601562 157.875 138.210938 157.046875 138.738281 156.183594 C 139.476562 154.984375 137.589844 153.890625 136.859375 155.085938 " fill-opacity="1" fill-rule="nonzero"/><path fill="#9f5d4c" d="M 144.703125 152.140625 C 144.679688 152.457031 144.683594 152.773438 144.769531 153.074219 C 144.945312 153.714844 145.46875 154.0625 146.140625 154.222656 C 147.480469 154.542969 149.40625 154.117188 150.355469 153.765625 L 150.4375 153.738281 C 151.210938 153.441406 152.015625 152.898438 152.109375 152.078125 C 152.15625 151.636719 151.984375 151.203125 151.820312 150.789062 C 151.269531 149.433594 150.570312 148.15625 150.03125 146.816406 C 148.929688 149.105469 147.117188 151.355469 144.703125 152.140625 " fill-opacity="1" fill-rule="nonzero"/><path fill="#9f5d4c" d="M 147.46875 142.601562 C 147.257812 142.761719 147.148438 143.015625 147.050781 143.261719 C 146.242188 145.300781 145.609375 147.410156 145.152344 149.558594 C 147.097656 148.335938 148.207031 145.753906 148.988281 143.71875 C 149.027344 143.621094 149.058594 143.519531 149.09375 143.421875 C 149.035156 143.257812 148.964844 143.097656 148.863281 142.953125 C 148.550781 142.519531 147.894531 142.277344 147.46875 142.601562 " fill-opacity="1" fill-rule="nonzero"/><path fill="#5b2027" d="M 139.601562 139.351562 C 140.023438 139.777344 140.71875 139.761719 141.144531 139.351562 C 141.910156 138.613281 142.996094 138.109375 143.992188 138.035156 C 144.089844 138.027344 144.179688 138.039062 144.273438 138.035156 C 144.285156 137.980469 144.285156 137.917969 144.300781 137.863281 C 144.378906 137.585938 144.5625 137.367188 144.800781 137.210938 C 145.050781 137.054688 145.363281 137.039062 145.640625 137.101562 C 145.773438 137.132812 145.902344 137.203125 146.015625 137.289062 C 146.195312 137.230469 146.386719 137.195312 146.570312 137.210938 C 146.746094 137.226562 146.921875 137.242188 147.082031 137.304688 C 147.371094 137.421875 147.527344 137.503906 147.765625 137.710938 C 148.003906 137.921875 148.195312 138.257812 148.253906 138.574219 C 148.285156 138.734375 148.296875 138.871094 148.296875 139.003906 C 148.488281 138.90625 148.652344 138.761719 148.757812 138.585938 C 149.078125 138.039062 148.847656 137.4375 148.367188 137.09375 C 145.679688 135.183594 141.953125 135.550781 139.601562 137.8125 C 139.175781 138.21875 139.191406 138.941406 139.601562 139.351562 " fill-opacity="1" fill-rule="nonzero"/><path fill="#5b2027" d="M 146.765625 139.320312 C 146.792969 139.296875 146.824219 139.285156 146.851562 139.261719 L 146.792969 139.308594 C 146.785156 139.308594 146.773438 139.3125 146.765625 139.320312 Z M 148.253906 138.574219 C 148.195312 138.257812 148.003906 137.921875 147.765625 137.710938 C 147.527344 137.503906 147.371094 137.421875 147.082031 137.304688 C 146.921875 137.242188 146.746094 137.226562 146.570312 137.210938 C 146.386719 137.195312 146.195312 137.230469 146.015625 137.289062 C 145.902344 137.203125 145.773438 137.132812 145.640625 137.101562 C 145.363281 137.039062 145.050781 137.054688 144.800781 137.210938 C 144.5625 137.367188 144.378906 137.585938 144.300781 137.863281 C 144.285156 137.917969 144.285156 137.980469 144.273438 138.035156 C 144.25 138.160156 144.226562 138.28125 144.214844 138.40625 C 144.207031 138.507812 144.207031 138.609375 144.21875 138.714844 C 144.238281 138.886719 144.257812 139.070312 144.304688 139.242188 C 144.355469 139.417969 144.429688 139.585938 144.507812 139.753906 C 144.628906 140 144.804688 140.230469 145 140.417969 C 145.257812 140.667969 145.609375 140.910156 145.96875 140.984375 C 146.4375 141.082031 146.945312 140.992188 147.339844 140.703125 C 147.640625 140.484375 147.914062 140.226562 148.074219 139.886719 C 148.144531 139.734375 148.21875 139.574219 148.253906 139.40625 C 148.28125 139.253906 148.292969 139.128906 148.296875 139.003906 C 148.296875 138.871094 148.285156 138.734375 148.253906 138.574219 " fill-opacity="1" fill-rule="nonzero"/><path fill="#823f35" d="M 116.699219 170.496094 C 110.910156 168.71875 106.417969 163.824219 105.128906 157.910156 C 104.851562 156.621094 102.972656 157.058594 103 158.261719 C 103.003906 158.332031 103.011719 158.410156 103.027344 158.492188 C 104.472656 165.140625 109.632812 170.609375 116.117188 172.597656 C 116.523438 172.722656 116.859375 172.617188 117.09375 172.398438 C 117.355469 172.152344 117.488281 171.769531 117.449219 171.402344 C 117.410156 171.011719 117.179688 170.644531 116.699219 170.496094 " fill-opacity="1" fill-rule="nonzero"/><path fill="#371225" d="M 88.035156 142.875 C 90.6875 146.96875 93.621094 151.367188 96.867188 155.070312 C 97 155.21875 97.125 155.375 97.257812 155.523438 C 98.675781 154.417969 99.710938 152.824219 100.839844 151.300781 C 101.058594 151 101.285156 150.710938 101.519531 150.421875 C 100.042969 148.3125 98.898438 145.882812 98.25 143.683594 C 97.503906 141.15625 97.441406 138.335938 98.476562 135.933594 C 98.597656 135.652344 98.734375 135.378906 98.886719 135.109375 C 100.109375 132.949219 103.027344 130.792969 105.667969 131.351562 C 108.25 131.894531 110.101562 134.230469 111.179688 136.492188 C 112.234375 138.707031 112.886719 141.101562 113.152344 143.542969 C 115.027344 142.4375 115.449219 140.671875 116.054688 138.507812 C 116.101562 138.332031 116.152344 138.15625 116.199219 137.980469 C 116.847656 135.605469 117.417969 133.160156 117.734375 130.699219 C 112.996094 130.339844 108.25 130.066406 103.5 129.898438 C 102.097656 129.851562 102.09375 127.671875 103.5 127.71875 C 108.320312 127.886719 113.136719 128.167969 117.945312 128.535156 C 118.105469 125.960938 117.941406 123.382812 117.246094 120.855469 C 127.75 123.695312 138.878906 124.191406 149.597656 122.304688 C 150.910156 122.074219 152.222656 121.792969 153.488281 121.367188 C 153.683594 121.300781 153.882812 121.242188 154.074219 121.167969 C 158.269531 119.5625 161.613281 115.894531 162.824219 111.574219 C 163.828125 108.007812 163.335938 104.164062 161.660156 100.882812 C 160.015625 97.660156 158.183594 95.988281 155.011719 94.074219 C 141.691406 86.023438 124.191406 80.550781 108.640625 84.585938 C 103.917969 85.8125 99.195312 87.324219 94.839844 89.480469 C 92.257812 90.761719 89.808594 92.269531 87.558594 94.082031 C 80.355469 99.886719 77.390625 107.882812 77.65625 116.246094 C 77.738281 118.941406 78.160156 121.675781 78.882812 124.390625 C 79.253906 125.785156 79.703125 127.171875 80.230469 128.546875 C 82.179688 133.632812 85.074219 138.300781 88.035156 142.875 " fill-opacity="1" fill-rule="nonzero"/><path fill="#8789cd" d="M 151.660156 134.929688 C 151.355469 136.234375 151.023438 137.539062 150.644531 138.824219 C 150.183594 140.375 149.667969 141.90625 149.09375 143.421875 C 149.058594 143.519531 149.027344 143.621094 148.988281 143.71875 C 148.207031 145.753906 147.097656 148.335938 145.152344 149.558594 C 144.527344 149.949219 143.820312 150.203125 143.007812 150.253906 C 139.488281 150.46875 138.371094 146.183594 138.019531 143.488281 C 137.554688 139.953125 137.730469 136.367188 138.46875 132.886719 C 142.789062 133.472656 147.101562 134.132812 151.398438 134.882812 C 151.484375 134.898438 151.570312 134.914062 151.660156 134.929688 Z M 103.5 127.71875 C 102.09375 127.671875 102.097656 129.851562 103.5 129.898438 C 108.25 130.066406 112.996094 130.339844 117.738281 130.695312 C 123.941406 131.167969 130.136719 131.800781 136.308594 132.597656 C 135.496094 136.589844 135.359375 140.683594 136.007812 144.714844 C 136.566406 148.160156 138.40625 152.070312 142.339844 152.417969 C 143.183594 152.492188 143.96875 152.378906 144.703125 152.140625 C 147.117188 151.355469 148.929688 149.105469 150.03125 146.816406 C 150.09375 146.695312 150.152344 146.574219 150.207031 146.449219 C 151.941406 142.59375 153.144531 138.464844 154.035156 134.339844 C 154.152344 133.804688 153.882812 133.105469 153.273438 133 C 152.773438 132.910156 152.265625 132.832031 151.761719 132.742188 C 140.5625 130.800781 129.277344 129.394531 117.945312 128.53125 C 113.136719 128.167969 108.320312 127.886719 103.5 127.71875 " fill-opacity="1" fill-rule="nonzero"/><path fill="#9f5d4c" d="M 100.597656 137.972656 C 100.953125 136.515625 102.503906 135.929688 103.847656 135.796875 C 105.039062 135.683594 106.328125 136.015625 107.335938 136.660156 C 109.640625 138.128906 110.3125 140.933594 110.03125 143.511719 C 109.96875 144.121094 109.585938 144.574219 108.941406 144.601562 C 108.789062 144.609375 108.632812 144.566406 108.484375 144.496094 C 108.445312 144.507812 108.40625 144.511719 108.371094 144.527344 C 108.351562 144.535156 108.335938 144.539062 108.320312 144.542969 L 108.160156 144.625 C 108.03125 144.695312 107.917969 144.777344 107.792969 144.855469 C 107.792969 144.859375 107.792969 144.855469 107.792969 144.859375 C 107.785156 144.863281 107.789062 144.859375 107.777344 144.871094 L 107.617188 145.015625 C 107.523438 145.109375 107.445312 145.207031 107.355469 145.300781 C 107.519531 145.125 107.347656 145.3125 107.320312 145.355469 L 107.226562 145.5 C 107.167969 145.601562 107.117188 145.703125 107.070312 145.808594 C 107.054688 145.847656 107.023438 145.925781 107.019531 145.945312 L 106.96875 146.109375 L 106.925781 146.324219 C 106.925781 146.328125 106.925781 146.328125 106.925781 146.328125 C 106.925781 146.332031 106.925781 146.332031 106.921875 146.339844 C 106.914062 146.488281 106.910156 146.632812 106.917969 146.78125 C 106.917969 146.785156 106.921875 146.84375 106.925781 146.890625 C 106.933594 146.9375 106.945312 147 106.949219 147.015625 C 106.976562 147.15625 107.015625 147.300781 107.066406 147.4375 C 107.070312 147.457031 107.105469 147.542969 107.121094 147.578125 C 107.140625 147.613281 107.160156 147.652344 107.164062 147.664062 C 107.234375 147.792969 107.316406 147.917969 107.394531 148.039062 C 107.402344 148.050781 107.398438 148.050781 107.40625 148.058594 C 107.40625 148.0625 107.40625 148.058594 107.410156 148.0625 L 107.558594 148.226562 L 107.71875 148.378906 C 107.753906 148.414062 107.921875 148.542969 107.734375 148.402344 C 108.222656 148.773438 108.429688 149.320312 108.128906 149.894531 C 107.875 150.371094 107.09375 150.628906 106.636719 150.285156 C 105.1875 149.191406 104.445312 147.414062 104.847656 145.613281 C 105.183594 144.109375 106.433594 142.839844 107.910156 142.394531 C 107.910156 142.269531 107.917969 142.140625 107.910156 142.011719 C 107.886719 141.472656 107.867188 141.269531 107.714844 140.710938 C 107.574219 140.1875 107.496094 139.988281 107.203125 139.523438 L 107.078125 139.332031 C 107.050781 139.292969 107.039062 139.277344 107.027344 139.261719 C 107.015625 139.246094 107.003906 139.230469 106.976562 139.199219 L 106.832031 139.042969 L 106.605469 138.820312 C 106.601562 138.816406 106.496094 138.730469 106.464844 138.699219 C 106.292969 138.574219 106.105469 138.457031 105.914062 138.355469 C 105.886719 138.339844 105.714844 138.257812 105.691406 138.246094 C 105.609375 138.210938 105.527344 138.179688 105.441406 138.15625 C 105.222656 138.082031 105 138.027344 104.773438 137.988281 C 104.757812 137.984375 104.761719 137.984375 104.753906 137.984375 L 104.589844 137.96875 C 104.484375 137.960938 104.375 137.957031 104.269531 137.957031 C 104.164062 137.957031 104.058594 137.960938 103.953125 137.96875 C 103.925781 137.972656 103.832031 137.984375 103.785156 137.992188 C 103.574219 138.03125 103.363281 138.082031 103.15625 138.15625 C 103.121094 138.175781 103.007812 138.230469 102.996094 138.234375 C 102.96875 138.25 102.851562 138.335938 102.839844 138.335938 L 102.75 138.421875 L 102.722656 138.472656 C 102.71875 138.480469 102.714844 138.503906 102.699219 138.554688 C 102.554688 139.144531 101.921875 139.445312 101.359375 139.316406 C 100.773438 139.183594 100.460938 138.527344 100.597656 137.972656 Z M 105.074219 154.195312 C 108.058594 156.359375 111.527344 156.214844 112.769531 152.300781 C 113.511719 149.953125 113.429688 146.714844 113.242188 144.273438 C 113.222656 144.027344 113.179688 143.785156 113.152344 143.542969 C 112.886719 141.101562 112.234375 138.707031 111.179688 136.488281 C 110.101562 134.230469 108.25 131.890625 105.667969 131.347656 C 103.027344 130.792969 100.109375 132.945312 98.886719 135.109375 C 98.734375 135.378906 98.597656 135.65625 98.476562 135.9375 C 97.441406 138.335938 97.503906 141.15625 98.25 143.679688 C 98.898438 145.882812 100.042969 148.3125 101.519531 150.421875 C 102.554688 151.902344 103.75 153.234375 105.074219 154.195312 " fill-opacity="1" fill-rule="nonzero"/><path fill="#9f5d4c" d="M 108.3125 144.546875 C 108.261719 144.570312 108.257812 144.574219 108.3125 144.546875 " fill-opacity="1" fill-rule="nonzero"/><path fill="#823f35" d="M 102.699219 138.554688 C 102.714844 138.503906 102.71875 138.480469 102.722656 138.472656 L 102.75 138.421875 L 102.839844 138.335938 C 102.851562 138.335938 102.96875 138.25 102.996094 138.234375 C 103.007812 138.230469 103.121094 138.175781 103.15625 138.15625 C 103.363281 138.082031 103.574219 138.03125 103.785156 137.992188 C 103.832031 137.984375 103.925781 137.972656 103.953125 137.96875 C 104.058594 137.960938 104.164062 137.957031 104.269531 137.957031 C 104.375 137.957031 104.484375 137.960938 104.589844 137.96875 L 104.753906 137.984375 C 104.761719 137.984375 104.757812 137.984375 104.773438 137.988281 C 105 138.027344 105.222656 138.082031 105.441406 138.15625 C 105.527344 138.179688 105.609375 138.210938 105.691406 138.246094 C 105.714844 138.257812 105.886719 138.339844 105.914062 138.355469 C 106.105469 138.457031 106.292969 138.574219 106.464844 138.699219 C 106.496094 138.730469 106.601562 138.816406 106.605469 138.820312 L 106.832031 139.042969 L 106.976562 139.199219 C 107.003906 139.230469 107.015625 139.246094 107.027344 139.261719 C 107.039062 139.277344 107.050781 139.292969 107.078125 139.332031 L 107.203125 139.523438 C 107.496094 139.988281 107.574219 140.1875 107.714844 140.710938 C 107.867188 141.269531 107.886719 141.472656 107.910156 142.011719 C 107.917969 142.140625 107.910156 142.269531 107.910156 142.394531 C 108.023438 142.363281 108.132812 142.320312 108.246094 142.296875 C 108.847656 142.175781 109.394531 142.46875 109.585938 143.058594 C 109.761719 143.59375 109.386719 144.285156 108.824219 144.402344 C 108.710938 144.425781 108.597656 144.457031 108.484375 144.496094 C 108.632812 144.566406 108.789062 144.609375 108.941406 144.601562 C 109.585938 144.574219 109.96875 144.121094 110.03125 143.511719 C 110.3125 140.933594 109.640625 138.128906 107.335938 136.660156 C 106.328125 136.015625 105.039062 135.683594 103.847656 135.796875 C 102.503906 135.929688 100.953125 136.515625 100.597656 137.972656 C 100.460938 138.527344 100.773438 139.183594 101.359375 139.316406 C 101.921875 139.445312 102.554688 139.144531 102.699219 138.554688 " fill-opacity="1" fill-rule="nonzero"/><path fill="#823f35" d="M 108.3125 144.546875 C 108.257812 144.574219 108.261719 144.570312 108.3125 144.546875 Z M 109.585938 143.058594 C 109.394531 142.46875 108.847656 142.175781 108.246094 142.296875 C 108.132812 142.320312 108.023438 142.363281 107.910156 142.394531 C 106.433594 142.839844 105.183594 144.109375 104.847656 145.613281 C 104.445312 147.414062 105.1875 149.191406 106.636719 150.285156 C 107.09375 150.628906 107.875 150.371094 108.128906 149.894531 C 108.429688 149.320312 108.222656 148.773438 107.734375 148.402344 C 107.921875 148.542969 107.753906 148.414062 107.71875 148.378906 L 107.558594 148.226562 L 107.410156 148.0625 C 107.40625 148.058594 107.40625 148.0625 107.40625 148.058594 C 107.398438 148.050781 107.402344 148.050781 107.394531 148.039062 C 107.316406 147.917969 107.234375 147.792969 107.164062 147.664062 C 107.160156 147.652344 107.140625 147.613281 107.121094 147.578125 C 107.105469 147.542969 107.070312 147.457031 107.066406 147.4375 C 107.015625 147.300781 106.976562 147.15625 106.949219 147.015625 C 106.945312 147 106.933594 146.9375 106.925781 146.890625 C 106.921875 146.84375 106.917969 146.785156 106.917969 146.78125 C 106.910156 146.632812 106.914062 146.488281 106.921875 146.339844 C 106.925781 146.332031 106.925781 146.332031 106.925781 146.328125 C 106.925781 146.328125 106.925781 146.328125 106.925781 146.324219 L 106.96875 146.109375 L 107.019531 145.945312 C 107.023438 145.925781 107.054688 145.847656 107.070312 145.808594 C 107.117188 145.703125 107.167969 145.601562 107.226562 145.5 L 107.320312 145.355469 C 107.347656 145.3125 107.519531 145.125 107.355469 145.300781 C 107.445312 145.207031 107.523438 145.109375 107.617188 145.015625 L 107.777344 144.871094 C 107.789062 144.859375 107.785156 144.863281 107.792969 144.859375 C 107.792969 144.855469 107.792969 144.859375 107.792969 144.855469 C 107.917969 144.777344 108.03125 144.695312 108.160156 144.625 L 108.320312 144.542969 C 108.335938 144.539062 108.351562 144.535156 108.371094 144.527344 C 108.40625 144.511719 108.445312 144.507812 108.484375 144.496094 C 108.597656 144.457031 108.710938 144.425781 108.824219 144.402344 C 109.386719 144.285156 109.761719 143.59375 109.585938 143.058594 " fill-opacity="1" fill-rule="nonzero"/><path fill="#371225" d="M 139.269531 126.496094 C 138.230469 126.96875 137.894531 128.558594 138.488281 129.480469 C 139.179688 130.554688 140.359375 130.765625 141.472656 130.257812 C 141.574219 130.214844 141.671875 130.171875 141.773438 130.125 C 141.796875 130.117188 141.820312 130.105469 141.863281 130.089844 C 142.046875 130.019531 142.230469 129.945312 142.417969 129.878906 C 142.851562 129.722656 143.292969 129.582031 143.738281 129.460938 C 144.183594 129.335938 144.632812 129.226562 145.085938 129.140625 C 145.277344 129.101562 145.472656 129.066406 145.667969 129.03125 C 145.769531 129.015625 145.875 129 145.976562 128.984375 C 146.863281 128.902344 147.746094 128.835938 148.640625 128.859375 C 149.101562 128.871094 149.5625 128.898438 150.023438 128.945312 C 150.054688 128.945312 150.324219 128.984375 150.394531 128.988281 C 150.597656 129.023438 150.804688 129.054688 151.011719 129.089844 C 151.457031 129.171875 151.929688 129.136719 152.355469 128.988281 C 152.992188 128.769531 153.523438 128.296875 153.691406 127.570312 C 153.875 126.761719 153.597656 125.769531 152.933594 125.238281 C 152.714844 125.066406 152.460938 124.941406 152.167969 124.886719 C 147.753906 124.078125 143.351562 124.636719 139.269531 126.496094 " fill-opacity="1" fill-rule="nonzero"/><path fill="#8789cd" d="M 127.351562 245.144531 C 127.183594 245.070312 127.03125 244.941406 126.914062 244.742188 C 122.675781 237.566406 119.042969 230.058594 115.070312 222.738281 C 114.613281 221.894531 114.152344 221.046875 113.691406 220.195312 C 109.484375 212.953125 104.882812 205.695312 98.058594 200.886719 C 95.4375 199.035156 92.460938 197.570312 89.273438 197.253906 C 84.710938 196.804688 80.105469 198.816406 76.839844 202.03125 C 73.574219 205.25 71.542969 209.558594 70.441406 214.011719 C 69.628906 217.277344 69.359375 220.457031 69.515625 223.550781 C 69.984375 232.894531 74.3125 241.519531 79.300781 249.792969 C 79.570312 250.238281 79.847656 250.675781 80.125 251.121094 C 83.382812 255.203125 86.8125 259.164062 90.160156 263.175781 C 98.449219 252.351562 110.035156 244.292969 123.113281 240.382812 C 124.382812 240.003906 124.921875 241.984375 123.660156 242.359375 C 110.894531 246.179688 99.476562 254.113281 91.492188 264.78125 C 92.296875 265.757812 93.09375 266.734375 93.882812 267.722656 C 94.484375 268.476562 93.855469 269.46875 93.152344 269.519531 C 93.5 269.980469 93.851562 270.441406 94.199219 270.902344 C 104.445312 261.53125 114.960938 251.726562 127.351562 245.144531 " fill-opacity="1" fill-rule="nonzero"/><path fill="#536294" d="M 123.660156 242.359375 C 124.921875 241.984375 124.382812 240.003906 123.113281 240.382812 C 110.035156 244.292969 98.449219 252.351562 90.160156 263.175781 C 90.605469 263.710938 91.050781 264.246094 91.492188 264.78125 C 99.476562 254.113281 110.894531 246.179688 123.660156 242.359375 " fill-opacity="1" fill-rule="nonzero"/><path fill="#fff8cd" d="M 147.996094 307.632812 C 140.34375 300.507812 133.035156 291.238281 131.023438 280.753906 C 131.664062 280.175781 136.015625 279.945312 136.652344 279.367188 C 139.09375 277.152344 141.554688 274.96875 144.011719 272.777344 C 143.929688 272.0625 144.660156 271.5 145.320312 271.597656 C 144.234375 270.148438 143.167969 268.6875 142.121094 267.207031 C 137.089844 260.097656 132.480469 252.691406 128.054688 245.183594 C 127.824219 245.253906 127.574219 245.25 127.351562 245.144531 C 114.960938 251.726562 104.445312 261.53125 94.199219 270.902344 C 101.527344 280.546875 109.375 289.214844 118.558594 296.652344 C 121.804688 299.28125 125.222656 301.761719 128.84375 304.074219 C 129.714844 304.628906 130.59375 305.175781 131.492188 305.714844 C 136.832031 308.917969 144.421875 313.109375 150.929688 311.859375 C 152.699219 311.519531 154.753906 310.835938 156.734375 309.871094 C 153.8125 310.730469 150.835938 310.277344 147.996094 307.632812 " fill-opacity="1" fill-rule="nonzero"/><path fill="#536294" d="M 126.914062 244.742188 C 127.03125 244.941406 127.183594 245.070312 127.351562 245.144531 C 127.574219 245.25 127.824219 245.253906 128.054688 245.183594 C 128.628906 245.007812 129.082031 244.378906 128.6875 243.707031 C 124.664062 236.894531 121.1875 229.789062 117.445312 222.820312 C 114.1875 216.757812 110.914062 210.492188 106.699219 205.03125 C 102.828125 200.019531 97.363281 194.875 90.792969 194.152344 C 85.03125 193.519531 79.484375 196.148438 75.207031 199.832031 C 70.371094 203.996094 66.566406 209.835938 65.167969 216.097656 C 64.878906 217.382812 66.855469 217.933594 67.144531 216.640625 C 68.328125 211.355469 71.300781 206.488281 75.128906 202.695312 C 78.953125 198.90625 84.050781 195.9375 89.582031 196.117188 C 95.949219 196.320312 101.304688 201.414062 105.007812 206.171875 C 108.363281 210.488281 111.074219 215.367188 113.691406 220.195312 C 114.152344 221.046875 114.613281 221.894531 115.070312 222.738281 C 119.042969 230.058594 122.675781 237.566406 126.914062 244.742188 " fill-opacity="1" fill-rule="nonzero"/><path fill="#536294" d="M 93.882812 267.722656 C 93.09375 266.734375 92.296875 265.757812 91.492188 264.78125 C 91.050781 264.246094 90.605469 263.710938 90.160156 263.175781 C 86.8125 259.164062 83.382812 255.203125 80.125 251.121094 C 76.8125 246.972656 73.675781 242.699219 70.976562 238.101562 C 70.308594 236.964844 68.535156 237.996094 69.203125 239.136719 C 69.816406 240.179688 70.457031 241.203125 71.109375 242.214844 C 71.78125 242.382812 72.445312 242.53125 73.089844 242.675781 C 74.308594 242.945312 73.886719 244.722656 72.753906 244.679688 C 78.695312 253.296875 85.910156 260.988281 92.429688 269.171875 C 92.644531 269.441406 92.902344 269.539062 93.152344 269.519531 C 93.855469 269.46875 94.484375 268.476562 93.882812 267.722656 " fill-opacity="1" fill-rule="nonzero"/><path fill="#536294" d="M 73.089844 242.675781 C 72.445312 242.53125 71.78125 242.382812 71.109375 242.214844 C 68.039062 241.4375 64.898438 240.230469 63.550781 237.167969 C 63.328125 236.660156 62.585938 236.542969 62.148438 236.800781 C 61.625 237.105469 61.558594 237.695312 61.78125 238.203125 C 63.640625 242.425781 68.445312 243.746094 72.546875 244.652344 C 72.617188 244.667969 72.683594 244.675781 72.753906 244.679688 C 73.886719 244.722656 74.308594 242.945312 73.089844 242.675781 " fill-opacity="1" fill-rule="nonzero"/><path fill="#9f5d4c" d="M 235.703125 204.148438 C 236.175781 204.429688 236.441406 205.164062 236.09375 205.640625 C 233.996094 208.535156 231.859375 211.40625 229.691406 214.253906 C 229.335938 214.722656 228.761719 214.96875 228.199219 214.644531 C 227.738281 214.371094 227.453125 213.621094 227.808594 213.152344 C 229.976562 210.304688 232.109375 207.4375 234.210938 204.542969 C 234.558594 204.0625 235.15625 203.828125 235.703125 204.148438 Z M 224.90625 210.445312 C 223.886719 211.410156 222.34375 209.871094 223.363281 208.902344 C 226.890625 205.558594 230.324219 202.117188 233.65625 198.578125 C 234.621094 197.550781 236.160156 199.097656 235.199219 200.117188 C 231.867188 203.65625 228.433594 207.101562 224.90625 210.445312 Z M 203.191406 214.726562 C 202.367188 217.238281 201.785156 219.652344 201.746094 222.261719 C 202.371094 222.117188 202.738281 222.476562 203.632812 223.140625 C 206.03125 224.914062 207.746094 227.253906 209.894531 229.25 C 211.484375 230.730469 214.078125 232.9375 213.980469 235.378906 C 213.964844 235.722656 213.894531 236.09375 213.789062 236.472656 C 214.0625 236.378906 214.332031 236.273438 214.601562 236.160156 C 215.710938 235.679688 216.757812 235.039062 217.488281 234.59375 C 222.636719 231.433594 228.332031 227.394531 231.929688 222.457031 C 233.035156 220.941406 234.132812 219.074219 234.929688 217.390625 C 235.492188 216.203125 235.871094 214.984375 235.875 213.660156 C 235.878906 213.417969 235.671875 212.601562 235.496094 211.882812 C 235.472656 211.769531 235.445312 211.664062 235.421875 211.558594 C 235.417969 211.730469 235.375 211.902344 235.273438 212.046875 C 233.570312 214.464844 231.925781 216.921875 230.332031 219.414062 C 230.015625 219.910156 229.367188 220.113281 228.839844 219.804688 C 228.347656 219.515625 228.132812 218.808594 228.449219 218.3125 C 230.039062 215.820312 231.6875 213.367188 233.390625 210.949219 C 233.730469 210.464844 234.335938 210.238281 234.878906 210.558594 C 235.066406 210.664062 235.214844 210.839844 235.3125 211.042969 C 235.273438 210.832031 235.253906 210.683594 235.277344 210.648438 C 236.226562 209.1875 237.210938 207.613281 237.183594 205.871094 C 237.148438 203.78125 236.136719 201.308594 235.726562 199.222656 C 235.640625 198.808594 235.558594 198.378906 235.628906 197.960938 C 235.695312 197.550781 235.898438 197.179688 236.074219 196.804688 C 236.519531 195.816406 236.753906 194.738281 236.761719 193.65625 C 236.765625 192.9375 236.65625 192.1875 236.257812 191.585938 C 235.859375 190.984375 235.117188 190.574219 234.414062 190.734375 C 234.242188 190.773438 234.074219 190.824219 233.90625 190.875 C 231.164062 191.734375 228.875 194.3125 226.738281 196.191406 C 226.582031 196.328125 226.425781 196.460938 226.269531 196.589844 C 222.753906 199.515625 219.421875 202.664062 216.304688 206.011719 C 217.929688 203.523438 219.449219 201.382812 220.554688 198.164062 C 220.5625 198.144531 220.566406 198.117188 220.574219 198.097656 C 221.28125 195.964844 221.21875 192.96875 219.511719 191.804688 C 216.917969 195.136719 213.984375 197.992188 211.347656 201.175781 C 210.476562 202.230469 209.636719 203.316406 208.851562 204.472656 C 206.921875 207.3125 204.261719 211.453125 203.191406 214.726562 " fill-opacity="1" fill-rule="nonzero"/><path fill="#823f35" d="M 235.199219 200.117188 C 236.160156 199.097656 234.621094 197.550781 233.65625 198.578125 C 230.324219 202.117188 226.890625 205.558594 223.363281 208.902344 C 222.34375 209.871094 223.886719 211.410156 224.90625 210.445312 C 228.433594 207.101562 231.867188 203.65625 235.199219 200.117188 " fill-opacity="1" fill-rule="nonzero"/><path fill="#823f35" d="M 234.210938 204.542969 C 232.109375 207.4375 229.976562 210.304688 227.808594 213.152344 C 227.453125 213.621094 227.738281 214.371094 228.199219 214.644531 C 228.761719 214.96875 229.335938 214.722656 229.691406 214.253906 C 231.859375 211.40625 233.996094 208.535156 236.09375 205.640625 C 236.441406 205.164062 236.175781 204.429688 235.703125 204.148438 C 235.15625 203.828125 234.558594 204.0625 234.210938 204.542969 " fill-opacity="1" fill-rule="nonzero"/><path fill="#823f35" d="M 235.3125 211.042969 C 235.214844 210.839844 235.066406 210.664062 234.878906 210.558594 C 234.335938 210.238281 233.730469 210.464844 233.390625 210.949219 C 231.6875 213.367188 230.039062 215.820312 228.449219 218.3125 C 228.132812 218.808594 228.347656 219.515625 228.839844 219.804688 C 229.367188 220.113281 230.015625 219.910156 230.332031 219.414062 C 231.925781 216.921875 233.570312 214.464844 235.273438 212.046875 C 235.375 211.902344 235.417969 211.730469 235.421875 211.558594 C 235.425781 211.382812 235.390625 211.207031 235.3125 211.042969 " fill-opacity="1" fill-rule="nonzero"/><path fill="#fff8cd" d="M 202.199219 255.441406 C 203.179688 254.015625 204.15625 252.585938 205.121094 251.152344 C 205.128906 251.136719 205.136719 251.125 205.144531 251.113281 C 206.824219 248.613281 208.480469 246.089844 209.992188 243.484375 C 211.023438 241.699219 213.148438 238.800781 213.789062 236.472656 C 213.894531 236.09375 213.964844 235.722656 213.980469 235.378906 C 214.078125 232.9375 211.484375 230.730469 209.894531 229.25 C 207.746094 227.253906 206.03125 224.914062 203.632812 223.140625 C 202.738281 222.476562 202.371094 222.117188 201.746094 222.261719 C 201.53125 222.308594 201.289062 222.414062 200.984375 222.589844 C 199.894531 223.203125 198.886719 224.476562 197.953125 225.316406 C 193.804688 229.035156 189.636719 232.730469 185.453125 236.40625 C 183.027344 238.539062 180.589844 240.664062 178.15625 242.792969 C 167.195312 252.371094 156.203125 261.917969 145.332031 271.597656 C 145.605469 271.640625 145.863281 271.796875 146.042969 272.109375 C 149.78125 278.515625 152.972656 285.464844 154.109375 292.84375 C 154.320312 294.21875 152.21875 294.804688 152.007812 293.421875 C 150.894531 286.210938 147.8125 279.46875 144.160156 273.210938 C 144.078125 273.0625 144.03125 272.917969 144.011719 272.777344 C 141.554688 274.96875 139.09375 277.152344 136.652344 279.367188 C 136.015625 279.945312 131.664062 280.175781 131.023438 280.753906 C 133.035156 291.238281 140.34375 300.507812 147.996094 307.632812 C 150.835938 310.277344 153.8125 310.730469 156.734375 309.871094 C 164.242188 307.664062 171.402344 296.804688 175.03125 292.136719 C 175.074219 292.082031 175.117188 292.023438 175.164062 291.96875 C 183.503906 281.226562 191.742188 270.390625 199.546875 259.253906 C 200.4375 257.988281 201.320312 256.714844 202.199219 255.441406 " fill-opacity="1" fill-rule="nonzero"/><path fill="#fbc8a8" d="M 144.011719 272.777344 C 144.03125 272.917969 144.078125 273.0625 144.160156 273.210938 C 147.8125 279.46875 150.894531 286.210938 152.007812 293.421875 C 152.21875 294.804688 154.320312 294.21875 154.109375 292.84375 C 152.972656 285.464844 149.78125 278.515625 146.042969 272.109375 C 145.863281 271.796875 145.605469 271.640625 145.332031 271.597656 C 145.328125 271.597656 145.324219 271.597656 145.320312 271.597656 C 144.660156 271.5 143.929688 272.0625 144.011719 272.777344 " fill-opacity="1" fill-rule="nonzero"/></svg>