<svg xmlns="http://www.w3.org/2000/svg" xmlns:xlink="http://www.w3.org/1999/xlink" width="500" zoomAndPan="magnify" viewBox="0 0 375 374.999991" height="500" preserveAspectRatio="xMidYMid meet" version="1.0"><defs><g/><clipPath id="ab70836238"><path d="M 40 107.304688 L 335.878906 107.304688 L 335.878906 246.804688 L 40 246.804688 Z M 40 107.304688 " clip-rule="nonzero"/></clipPath><clipPath id="f059df8895"><path d="M 15.652344 261.6875 L 62.152344 261.6875 L 62.152344 308.1875 L 15.652344 308.1875 Z M 15.652344 261.6875 " clip-rule="nonzero"/></clipPath></defs><g clip-path="url(#ab70836238)"><path fill="#000000" d="M 157.878906 245.613281 C 152.890625 244.824219 148.304688 242.460938 144.722656 238.828125 C 141.480469 235.539062 137.132812 226.753906 136.328125 221.875 L 135.792969 218.601562 L 131.8125 218.648438 C 123.15625 218.746094 120.871094 219.558594 116.484375 224.101562 C 101.632812 239.480469 73.648438 236.316406 64.875 218.269531 L 63.300781 215.03125 L 54.351562 213.800781 C 46.84375 212.769531 45.175781 212.292969 43.992188 210.832031 C 42.152344 208.5625 42.542969 205.339844 44.777344 204.359375 C 46.171875 203.75 46.511719 202.976562 46.511719 200.429688 C 46.511719 198.6875 46.132812 196.167969 45.664062 194.835938 C 45.050781 193.066406 45.050781 191.742188 45.675781 189.953125 C 46.457031 187.710938 46.332031 187.289062 44.257812 185.136719 C 38.910156 179.597656 38.941406 170.574219 44.320312 164.597656 C 47.804688 160.730469 57.335938 157.359375 67.097656 156.539062 C 71.347656 156.183594 73.894531 155.535156 75.804688 154.320312 C 84.628906 148.695312 100.101562 145 127.425781 141.988281 C 132.714844 141.402344 137.140625 140.621094 137.265625 140.246094 C 138.4375 136.734375 145.539062 126.609375 150.511719 121.355469 C 156.339844 115.203125 156.984375 114.757812 162.296875 113.199219 C 175.636719 109.285156 198.394531 107.304688 223.03125 107.914062 C 256.976562 108.757812 280.191406 113.652344 287.21875 121.453125 C 292.1875 126.96875 300.414062 139.628906 302.980469 145.707031 C 306.175781 153.285156 306.554688 153.757812 310.90625 155.660156 C 321.515625 160.296875 331.667969 168.105469 334.128906 173.519531 C 335.644531 176.847656 335.894531 184.328125 334.917969 196.980469 L 334.414062 203.476562 L 326.515625 205.371094 C 319.277344 207.105469 318.613281 207.417969 318.613281 209.074219 C 318.613281 211.734375 315.941406 218.304688 313.613281 221.347656 C 309.964844 226.132812 306.597656 227.238281 296.597656 226.945312 C 288.117188 226.695312 287.8125 226.625 285.472656 224.386719 C 284.152344 223.117188 281.980469 219.824219 280.652344 217.066406 C 279.320312 214.308594 278.191406 211.972656 278.140625 211.875 C 278.089844 211.777344 260.378906 213.078125 238.785156 214.761719 C 217.191406 216.445312 198.125 217.828125 196.421875 217.828125 L 193.320312 217.828125 L 192.414062 222.597656 C 190.585938 232.214844 185.023438 240.183594 177.394531 244.117188 C 173.707031 246.019531 164.78125 246.703125 157.878906 245.613281 Z M 174.8125 242.0625 C 176.375 241.410156 179.226562 239.429688 181.144531 237.660156 C 192.515625 227.1875 193.308594 205.839844 182.753906 194.277344 C 177.769531 188.816406 173.253906 186.765625 167.066406 187.160156 C 147.195312 188.425781 138.757812 219.628906 153.695312 236.628906 C 158.808594 242.449219 168.136719 244.851562 174.8125 242.0625 Z M 162.3125 235.457031 C 155.011719 231.847656 150.148438 222.792969 150.773438 213.976562 C 151.617188 202.082031 159.769531 193.570312 170.230469 193.65625 C 179.847656 193.734375 187.039062 200.417969 189.019531 211.121094 C 190.96875 221.664062 185.738281 232.078125 176.570312 235.90625 C 172.5 237.609375 166.261719 237.410156 162.3125 235.457031 Z M 175.488281 233.289062 C 178.707031 232.066406 183.132812 227.625 184.730469 224.011719 C 187.089844 218.679688 186.886719 211.5 184.214844 206.046875 C 181.816406 201.144531 179.769531 199.25 174.84375 197.371094 C 165.332031 193.738281 154.917969 201.582031 153.867188 213.164062 C 152.832031 224.550781 159.953125 233.980469 169.601562 234 C 171.796875 234.007812 174.449219 233.683594 175.488281 233.289062 Z M 168.652344 219.019531 C 167.613281 217.980469 166.761719 216.230469 166.761719 215.132812 C 166.761719 212.800781 169.894531 209.355469 172.019531 209.355469 C 174.726562 209.355469 177.550781 212.304688 177.550781 215.132812 C 177.550781 217.007812 176.996094 218.15625 175.519531 219.3125 C 172.855469 221.410156 170.964844 221.328125 168.652344 219.019531 Z M 174.082031 215.121094 C 174.082031 213.378906 173.730469 212.820312 172.625 212.820312 C 170.488281 212.820312 169.285156 215.074219 170.589844 216.640625 C 172.210938 218.59375 174.082031 217.78125 174.082031 215.121094 Z M 151.605469 238.4375 C 147.910156 234.429688 145.113281 228.851562 143.988281 223.222656 C 143.230469 219.457031 142.90625 218.957031 141.074219 218.742188 C 138.550781 218.441406 138.5 219.097656 140.542969 225.710938 C 142.363281 231.59375 145.53125 236.21875 149.921875 239.394531 C 154.4375 242.664062 155.136719 242.265625 151.605469 238.4375 Z M 101.058594 229.828125 C 105.738281 228.582031 110.855469 225.757812 113.441406 222.988281 L 115.238281 221.066406 L 112.285156 220.597656 C 110.664062 220.34375 107.078125 220.171875 104.324219 220.226562 C 100.167969 220.304688 75.132812 217.210938 69.058594 215.871094 C 66.742188 215.359375 66.84375 216.667969 69.402344 220.359375 C 75.25 228.792969 89.230469 232.976562 101.058594 229.828125 Z M 295.339844 221.875 C 293.097656 219.480469 291.335938 216.1875 290.550781 212.921875 C 290.035156 210.785156 289.886719 210.722656 286.1875 211.078125 C 284.078125 211.277344 282.164062 211.632812 281.933594 211.863281 C 281.214844 212.585938 286.121094 221.511719 287.9375 222.78125 C 288.945312 223.488281 291.261719 223.992188 293.496094 223.992188 L 297.320312 223.992188 Z M 310.019531 220.667969 C 311.011719 219.742188 312.363281 217.953125 313.019531 216.6875 L 314.214844 214.390625 L 311.378906 216.882812 C 306.1875 221.4375 299.234375 219.695312 295.75 212.960938 C 295.074219 211.65625 294.050781 208.144531 293.476562 205.15625 L 292.433594 199.726562 L 292.6875 205.503906 C 293.335938 220.089844 302.253906 227.890625 310.019531 220.667969 Z M 119.351562 215.210938 L 119.351562 212.980469 L 112.453125 213.144531 C 108.65625 213.234375 105.300781 213.464844 104.992188 213.65625 C 104.6875 213.84375 92.128906 212.433594 77.085938 210.523438 C 46.425781 206.625 45.738281 206.574219 45.738281 208.1875 C 45.738281 209.660156 45.476562 209.605469 70.792969 213.300781 C 91.050781 216.257812 106.597656 217.726562 115.5 217.53125 C 119.21875 217.449219 119.355469 217.367188 119.355469 215.210938 Z M 310.425781 214.082031 C 312.289062 212.027344 313.988281 206.476562 313.988281 202.464844 C 313.988281 188.9375 303.660156 183.5625 298.046875 194.164062 C 297.160156 195.835938 296.71875 198.535156 296.6875 202.421875 C 296.652344 207.21875 296.972656 208.777344 298.574219 211.585938 C 301.628906 216.957031 306.832031 218.054688 310.425781 214.082031 Z M 306.21875 204.957031 C 305.203125 202.285156 305.878906 199.613281 307.832031 198.566406 C 311.117188 196.808594 314.046875 200.917969 312.46875 205.066406 C 311.367188 207.960938 307.335938 207.890625 306.21875 204.957031 Z M 310.136719 202.808594 C 310.136719 202.171875 309.789062 201.652344 309.363281 201.652344 C 308.941406 201.652344 308.59375 202.171875 308.59375 202.808594 C 308.59375 203.445312 308.941406 203.964844 309.363281 203.964844 C 309.789062 203.964844 310.136719 203.445312 310.136719 202.808594 Z M 134.65625 215.789062 L 140.554688 215.292969 L 140.554688 212.789062 C 140.554688 205.710938 148.75 187.15625 153.777344 182.855469 C 159.476562 177.984375 164.082031 176.710938 175.816406 176.769531 C 185.226562 176.816406 186.351562 176.976562 190.171875 178.847656 C 197.695312 182.523438 200.589844 189.355469 201.242188 204.96875 L 201.65625 214.832031 L 205.597656 214.398438 C 207.769531 214.15625 225.5 212.753906 245 211.28125 C 264.503906 209.804688 282.246094 208.402344 284.429688 208.160156 L 288.402344 207.722656 L 289.636719 201.074219 C 291.980469 188.433594 294.285156 186.082031 305.847656 184.539062 C 313.144531 183.5625 318.527344 184.175781 320.742188 186.238281 C 322.816406 188.171875 323.984375 194.085938 323.296875 199.148438 C 322.992188 201.375 322.769531 203.179688 322.800781 203.160156 C 322.828125 203.144531 324.761719 202.683594 327.09375 202.140625 L 331.332031 201.15625 L 331.835938 196.976562 C 332.109375 194.675781 332.371094 189.226562 332.414062 184.867188 C 332.476562 178.332031 332.214844 176.40625 330.929688 173.886719 C 328.859375 169.832031 322.472656 164.945312 312.417969 159.722656 C 304.253906 155.484375 304.144531 155.390625 301.335938 150.238281 C 299.773438 147.375 298.757812 145.898438 299.078125 146.960938 C 299.394531 148.019531 299.671875 149.925781 299.691406 151.195312 L 299.726562 153.507812 L 287.394531 153.230469 C 280.613281 153.078125 272.8125 152.730469 270.066406 152.457031 L 265.066406 151.964844 L 263.101562 135.597656 L 261.136719 119.226562 L 263.15625 119.226562 C 266.894531 119.226562 276.789062 122.183594 281 124.558594 C 283.292969 125.851562 286.839844 128.507812 288.878906 130.460938 C 292.917969 134.328125 292.875 134.097656 288.351562 127.5625 C 286.683594 125.152344 284.003906 122.316406 282.398438 121.253906 C 277.164062 117.789062 263.882812 114.28125 248.46875 112.289062 C 237.539062 110.878906 206.847656 110.421875 193.667969 111.472656 C 175.175781 112.953125 174.332031 113.515625 190.65625 113.484375 C 204.863281 113.460938 205.910156 113.5625 209.761719 115.296875 C 214.429688 117.394531 216.863281 120.058594 216.863281 123.054688 C 216.863281 125.101562 210.558594 138.207031 207.523438 142.46875 C 206.410156 144.027344 205.054688 144.792969 202.746094 145.160156 C 200.976562 145.445312 199.957031 145.820312 200.488281 145.996094 C 201.015625 146.171875 201.449219 146.785156 201.449219 147.359375 C 201.449219 148.613281 198.441406 149.042969 185.261719 149.683594 C 160.828125 150.867188 136.035156 155.914062 118.472656 163.28125 L 112.753906 165.679688 L 114.285156 167.308594 C 121.695312 175.191406 117.742188 192.40625 108.519531 192.40625 C 105.308594 192.40625 101.644531 189.421875 100.460938 185.835938 L 99.578125 183.164062 L 92.8125 183.164062 C 84.328125 183.164062 67.527344 181.863281 61.929688 180.777344 C 59.597656 180.324219 57.300781 179.457031 56.824219 178.847656 C 56.117188 177.949219 55.878906 178.15625 55.515625 179.960938 C 55.269531 181.179688 54.160156 183.257812 53.050781 184.582031 C 51.152344 186.832031 51.101562 187.09375 52.238281 188.710938 C 54.101562 191.371094 53.78125 195.253906 51.523438 197.347656 C 50.265625 198.507812 49.59375 199.964844 49.59375 201.511719 C 49.59375 204.363281 47.066406 203.800781 76.574219 207.5 C 93.484375 209.621094 101.089844 210.234375 109.605469 210.160156 C 121.664062 210.058594 122.824219 210.402344 122.824219 214.070312 C 122.824219 216.128906 123.035156 216.289062 125.789062 216.289062 C 127.421875 216.289062 131.410156 216.066406 134.65625 215.789062 Z M 208.886719 201.84375 C 210.078125 184.019531 209.734375 165.75 208.09375 159.808594 L 206.644531 154.554688 L 209.25 151.882812 C 210.683594 150.410156 213.765625 145.5625 216.09375 141.113281 C 218.425781 136.664062 222.761719 129.605469 225.730469 125.433594 C 230.148438 119.21875 231.363281 117.972656 232.425781 118.535156 C 233.140625 118.917969 239.652344 119.226562 246.902344 119.226562 C 256.753906 119.226562 260.164062 119.46875 260.414062 120.191406 C 260.929688 121.664062 263.628906 151.582031 263.277344 151.933594 C 262.671875 152.535156 234.191406 151.375 233.476562 150.714844 C 233.074219 150.34375 228.566406 150.046875 223.457031 150.058594 L 214.167969 150.074219 L 212.21875 152.945312 L 210.265625 155.816406 L 211.574219 161.980469 C 213.128906 169.304688 213.335938 181.210938 212.179688 196.761719 C 211.722656 202.917969 211.542969 208.144531 211.78125 208.382812 C 212.195312 208.796875 269.429688 205.601562 269.902344 205.136719 C 270.195312 204.851562 271.527344 176.882812 271.566406 170.261719 L 271.59375 165.449219 L 268.921875 165.449219 C 266.863281 165.449219 266.351562 165.183594 266.691406 164.292969 C 267.039062 163.390625 266.484375 163.132812 264.164062 163.125 C 260.507812 163.109375 259.023438 162.246094 259.386719 160.347656 C 259.613281 159.160156 260.476562 158.859375 264.179688 158.664062 C 268.257812 158.453125 268.554688 158.328125 267.253906 157.34375 C 266.460938 156.742188 265.207031 156.242188 264.464844 156.226562 C 262.574219 156.195312 262.652344 153.121094 264.542969 153.121094 C 267.144531 153.121094 271.179688 156.53125 273.054688 160.304688 L 274.898438 164.023438 L 273.992188 185.710938 C 273.496094 197.640625 272.839844 207.617188 272.535156 207.882812 C 272.042969 208.308594 215.964844 211.746094 210.429688 211.691406 L 208.234375 211.667969 Z M 260.007812 146.765625 C 259.996094 145.390625 259.484375 139.410156 258.871094 133.476562 L 257.734375 122.539062 C 257.726562 122.453125 252.34375 122.28125 245.769531 122.152344 C 238.15625 122.007812 233.832031 122.203125 233.847656 122.695312 C 233.859375 123.117188 234.371094 128.492188 234.980469 134.632812 C 235.589844 140.777344 236.101562 146.398438 236.113281 147.125 C 236.132812 148.277344 237.214844 148.480469 244.425781 148.695312 C 248.980469 148.832031 254.359375 149.015625 256.371094 149.105469 C 260.027344 149.269531 260.03125 149.265625 260.011719 146.765625 Z M 230.359375 137.933594 C 229.546875 124.9375 229.472656 124.859375 224.769531 132.054688 C 221.109375 137.65625 216.867188 145.40625 216.867188 146.492188 C 216.867188 146.75 220.027344 146.957031 223.894531 146.957031 L 230.925781 146.957031 Z M 104.910156 205.523438 C 100.054688 201.707031 103.367188 193.335938 109.023438 195.128906 C 113.128906 196.429688 113.300781 204.328125 109.261719 206.167969 C 106.851562 207.265625 107.191406 207.316406 104.910156 205.523438 Z M 108.953125 202.421875 C 109.824219 200.792969 108.824219 197.800781 107.410156 197.800781 C 107.015625 197.800781 106.320312 198.496094 105.867188 199.34375 C 104.996094 200.972656 105.992188 203.964844 107.410156 203.964844 C 107.804688 203.964844 108.496094 203.269531 108.953125 202.421875 Z M 198.515625 211.859375 C 198.90625 207.117188 197.777344 195.734375 196.46875 191.230469 C 194.984375 186.128906 191.570312 182.046875 187.730469 180.773438 C 186.136719 180.246094 180.628906 179.804688 175.242188 179.773438 C 166.898438 179.726562 165.144531 179.941406 162.140625 181.378906 L 158.671875 183.035156 L 164.066406 183.113281 C 174.832031 183.261719 183.4375 188.03125 188.253906 196.515625 C 190.84375 201.074219 192.972656 207.742188 192.972656 211.292969 C 192.972656 214.269531 193.410156 214.75 196.136719 214.75 C 198.050781 214.75 198.300781 214.445312 198.515625 211.859375 Z M 319.988281 191.191406 C 319.429688 189.484375 318.429688 188.082031 317.671875 187.9375 C 316.433594 187.699219 316.421875 187.910156 317.488281 190.929688 C 318.117188 192.71875 318.875 196.125 319.171875 198.496094 L 319.707031 202.808594 L 320.339844 198.5 C 320.777344 195.519531 320.667969 193.265625 319.988281 191.191406 Z M 293.695312 196.839844 C 293.480469 196.308594 293.304688 196.742188 293.304688 197.800781 C 293.304688 198.859375 293.480469 199.292969 293.695312 198.765625 C 293.90625 198.234375 293.90625 197.367188 293.695312 196.839844 Z M 50.375 192.410156 C 50.375 189.988281 49.101562 189.269531 48.339844 191.253906 C 47.789062 192.6875 48.515625 194.71875 49.578125 194.71875 C 50.015625 194.71875 50.375 193.679688 50.375 192.410156 Z M 296.292969 191.253906 C 297.335938 189.828125 297.320312 189.792969 296.074219 190.769531 C 295.332031 191.351562 294.722656 192.191406 294.722656 192.632812 C 294.722656 193.074219 294.824219 193.292969 294.941406 193.117188 C 295.0625 192.9375 295.667969 192.101562 296.292969 191.253906 Z M 157.09375 186.347656 C 156.113281 185.335938 153.015625 187.359375 151.867188 189.761719 L 150.535156 192.554688 L 153.953125 189.59375 C 155.832031 187.964844 157.246094 186.503906 157.09375 186.347656 Z M 313.550781 188.28125 C 313.28125 187.585938 312.527344 187.015625 311.871094 187.015625 C 310.863281 187.015625 310.894531 187.257812 312.078125 188.5625 C 313.648438 190.296875 314.277344 190.179688 313.550781 188.28125 Z M 109.179688 187.195312 C 112.035156 184.046875 112.476562 175.558594 110.039062 170.738281 C 108.582031 167.859375 107.082031 167.578125 104.992188 169.800781 C 103.390625 171.507812 103.175781 172.476562 103.175781 178.0625 C 103.175781 186.8125 105.847656 190.875 109.179688 187.195312 Z M 114.859375 179.875 C 114.648438 179.355469 114.488281 179.96875 114.503906 181.238281 C 114.519531 182.511719 114.691406 182.9375 114.886719 182.1875 C 115.082031 181.4375 115.070312 180.398438 114.859375 179.875 Z M 50.152344 180.082031 C 52.320312 175.785156 50.75 168.371094 47.574219 167.910156 C 44.542969 167.472656 42.9375 175.152344 45.011719 180.164062 C 46.183594 182.992188 48.703125 182.953125 50.152344 180.082031 Z M 98.941406 177.964844 C 98.953125 172.195312 103.558594 164.675781 107.082031 164.675781 C 107.828125 164.675781 110.90625 163.507812 113.914062 162.078125 C 131.480469 153.746094 159.554688 147.824219 187.785156 146.492188 C 194.046875 146.195312 199.066406 145.855469 198.941406 145.730469 C 198.820312 145.609375 194.21875 144.9375 188.71875 144.246094 C 180.554688 143.214844 174.890625 143.074219 157.90625 143.488281 C 123.933594 144.316406 97.558594 147.910156 83.816406 153.578125 C 78.011719 155.972656 67.964844 162.679688 64.636719 166.378906 C 61.238281 170.15625 59.144531 174.644531 59.886719 176.570312 C 60.515625 178.214844 74.328125 179.78125 89.878906 179.972656 L 98.9375 180.082031 Z M 114.863281 174.5 C 114.652344 173.96875 114.476562 174.402344 114.476562 175.460938 C 114.476562 176.519531 114.652344 176.953125 114.863281 176.425781 C 115.078125 175.894531 115.078125 175.027344 114.863281 174.5 Z M 63.546875 163.007812 L 67.128906 159.414062 L 64.339844 159.792969 C 62.808594 160.003906 59.191406 160.855469 56.308594 161.691406 L 51.066406 163.203125 L 53.03125 165.539062 C 54.113281 166.824219 55.222656 168.804688 55.492188 169.9375 C 56.3125 173.375 56.625 173.371094 58.324219 169.921875 C 59.226562 168.097656 61.574219 164.984375 63.546875 163.007812 Z M 296.652344 149.078125 C 295.394531 144.644531 291.21875 137.375 287.765625 133.597656 C 285.136719 130.722656 282.226562 128.601562 278.359375 126.730469 C 272.925781 124.105469 265.621094 121.867188 264.886719 122.601562 C 264.472656 123.015625 267.644531 148.652344 268.175781 149.183594 C 268.535156 149.542969 283.3125 150.464844 292.273438 150.6875 C 296.980469 150.808594 297.128906 150.753906 296.652344 149.078125 Z M 205.15625 140.441406 C 205.976562 139.394531 208.304688 135.277344 210.328125 131.28125 C 214.78125 122.492188 214.679688 120.945312 209.503906 118.515625 C 202.625 115.28125 179.894531 115.617188 162.148438 119.207031 C 155.070312 120.636719 154.714844 120.8125 151.503906 124.386719 C 148.070312 128.207031 141.78125 137.199219 140.859375 139.601562 C 140.363281 140.898438 141.390625 140.945312 160.296875 140.484375 C 175.492188 140.117188 182.011719 140.257812 187.585938 141.078125 C 191.613281 141.667969 196.878906 142.195312 199.285156 142.246094 C 203.074219 142.324219 203.859375 142.085938 205.152344 140.441406 Z M 173.503906 114.070312 C 172.753906 113.875 171.710938 113.890625 171.191406 114.101562 C 170.667969 114.3125 171.28125 114.46875 172.554688 114.453125 C 173.824219 114.4375 174.253906 114.265625 173.503906 114.070312 Z M 173.503906 114.070312 " fill-opacity="1" fill-rule="nonzero"/></g><g fill="#000000" fill-opacity="1"><g transform="translate(3.008373, 307.078281)"><g/></g></g><g fill="#000000" fill-opacity="1"><g transform="translate(67.15814, 307.078281)"><g><path d="M 20.789062 -44.71875 L 18.15625 -22.839844 L 15.527344 -44.71875 L 0.640625 -44.71875 L 10.90625 0 L 25.34375 0 L 35.671875 -44.71875 Z M 20.789062 -44.71875 "/></g></g></g><g fill="#000000" fill-opacity="1"><g transform="translate(103.531061, 307.078281)"><g><path d="M 30.925781 -30.15625 L 30.925781 -44.71875 L 3.207031 -44.71875 L 3.207031 0.0625 L 30.925781 0.0625 L 30.925781 -14.5 L 18.09375 -14.5 L 27.011719 -24.765625 L 18.09375 -24.765625 L 18.09375 -30.15625 Z M 30.925781 -30.15625 "/></g></g></g><g fill="#000000" fill-opacity="1"><g transform="translate(137.722884, 307.078281)"><g><path d="M 18.09375 0 L 18.09375 -44.71875 L 3.207031 -44.71875 L 3.207031 0 Z M 23.160156 -20.59375 C 23.355469 -20.660156 23.484375 -20.660156 23.675781 -20.722656 C 29.257812 -22.261719 32.785156 -26.820312 32.785156 -32.527344 C 32.785156 -39.265625 27.332031 -44.71875 20.59375 -44.71875 L 19.761719 -44.71875 L 19.761719 0.0625 L 34.324219 0.0625 Z M 23.160156 -20.59375 "/></g></g></g><g fill="#000000" fill-opacity="1"><g transform="translate(173.326, 307.078281)"><g/></g></g><g fill="#000000" fill-opacity="1"><g transform="translate(195.457678, 307.078281)"><g><path d="M 18.09375 -44.71875 L 3.207031 -44.71875 L 3.207031 0.0625 L 18.09375 0.0625 C 31.117188 0.0625 41.703125 -9.304688 41.703125 -22.328125 C 41.703125 -35.417969 31.117188 -44.71875 18.09375 -44.71875 Z M 18.09375 -15.140625 L 18.09375 -29.578125 C 22.070312 -29.578125 25.277344 -26.371094 25.277344 -22.328125 C 25.277344 -18.351562 22.070312 -15.140625 18.09375 -15.140625 Z M 18.09375 -15.140625 "/></g></g></g><g fill="#000000" fill-opacity="1"><g transform="translate(238.502159, 307.078281)"><g><path d="M 18.09375 0 L 18.09375 -44.71875 L 3.207031 -44.71875 L 3.207031 0 Z M 23.160156 -20.59375 C 23.355469 -20.660156 23.484375 -20.660156 23.675781 -20.722656 C 29.257812 -22.261719 32.785156 -26.820312 32.785156 -32.527344 C 32.785156 -39.265625 27.332031 -44.71875 20.59375 -44.71875 L 19.761719 -44.71875 L 19.761719 0.0625 L 34.324219 0.0625 Z M 23.160156 -20.59375 "/></g></g></g><g fill="#000000" fill-opacity="1"><g transform="translate(274.105275, 307.078281)"><g><path d="M 10.136719 -29.835938 L 18.09375 -32.722656 L 18.09375 -44.71875 L 3.207031 -44.71875 L 3.207031 0 L 18.09375 0 L 18.09375 -29.835938 Z M 10.136719 -29.835938 "/></g></g></g><g fill="#000000" fill-opacity="1"><g transform="translate(295.403002, 307.078281)"><g><path d="M 20.789062 -44.71875 L 18.15625 -22.839844 L 15.527344 -44.71875 L 0.640625 -44.71875 L 10.90625 0 L 25.34375 0 L 35.671875 -44.71875 Z M 20.789062 -44.71875 "/></g></g></g><g fill="#000000" fill-opacity="1"><g transform="translate(331.775922, 307.078281)"><g><path d="M 30.925781 -30.15625 L 30.925781 -44.71875 L 3.207031 -44.71875 L 3.207031 0.0625 L 30.925781 0.0625 L 30.925781 -14.5 L 18.09375 -14.5 L 27.011719 -24.765625 L 18.09375 -24.765625 L 18.09375 -30.15625 Z M 30.925781 -30.15625 "/></g></g></g><g clip-path="url(#f059df8895)"><path fill="#231f20" d="M 38.890625 261.6875 C 38.128906 261.6875 37.367188 261.726562 36.609375 261.800781 C 35.851562 261.875 35.101562 261.988281 34.351562 262.136719 C 33.605469 262.285156 32.867188 262.46875 32.140625 262.6875 C 31.410156 262.910156 30.695312 263.167969 29.992188 263.457031 C 29.289062 263.75 28.601562 264.074219 27.929688 264.433594 C 27.257812 264.792969 26.605469 265.183594 25.972656 265.605469 C 25.339844 266.03125 24.726562 266.484375 24.140625 266.964844 C 23.550781 267.449219 22.988281 267.960938 22.449219 268.5 C 21.910156 269.035156 21.398438 269.601562 20.917969 270.1875 C 20.433594 270.777344 19.980469 271.386719 19.558594 272.019531 C 19.132812 272.65625 18.742188 273.308594 18.382812 273.976562 C 18.027344 274.648438 17.699219 275.335938 17.410156 276.039062 C 17.117188 276.746094 16.859375 277.460938 16.640625 278.1875 C 16.417969 278.917969 16.234375 279.65625 16.085938 280.402344 C 15.9375 281.148438 15.824219 281.902344 15.75 282.660156 C 15.675781 283.417969 15.640625 284.175781 15.640625 284.9375 C 15.640625 285.699219 15.675781 286.460938 15.75 287.21875 C 15.824219 287.976562 15.9375 288.726562 16.085938 289.472656 C 16.234375 290.222656 16.417969 290.957031 16.640625 291.6875 C 16.859375 292.417969 17.117188 293.132812 17.410156 293.835938 C 17.699219 294.539062 18.027344 295.226562 18.382812 295.898438 C 18.742188 296.570312 19.132812 297.222656 19.558594 297.855469 C 19.980469 298.488281 20.433594 299.097656 20.917969 299.6875 C 21.398438 300.277344 21.910156 300.839844 22.449219 301.378906 C 22.988281 301.917969 23.550781 302.425781 24.140625 302.910156 C 24.726562 303.394531 25.339844 303.847656 25.972656 304.269531 C 26.605469 304.691406 27.257812 305.085938 27.929688 305.441406 C 28.601562 305.800781 29.289062 306.128906 29.992188 306.417969 C 30.695312 306.710938 31.410156 306.964844 32.140625 307.1875 C 32.867188 307.410156 33.605469 307.59375 34.351562 307.742188 C 35.101562 307.890625 35.851562 308 36.609375 308.078125 C 37.367188 308.152344 38.128906 308.1875 38.890625 308.1875 C 39.652344 308.1875 40.410156 308.152344 41.167969 308.078125 C 41.925781 308 42.679688 307.890625 43.425781 307.742188 C 44.171875 307.59375 44.910156 307.410156 45.636719 307.1875 C 46.367188 306.964844 47.082031 306.710938 47.785156 306.417969 C 48.488281 306.128906 49.175781 305.800781 49.847656 305.441406 C 50.519531 305.085938 51.171875 304.691406 51.804688 304.269531 C 52.4375 303.847656 53.050781 303.394531 53.640625 302.910156 C 54.226562 302.425781 54.789062 301.917969 55.328125 301.378906 C 55.867188 300.839844 56.378906 300.277344 56.863281 299.6875 C 57.34375 299.097656 57.796875 298.488281 58.222656 297.855469 C 58.644531 297.222656 59.035156 296.570312 59.394531 295.898438 C 59.753906 295.226562 60.078125 294.539062 60.371094 293.835938 C 60.660156 293.132812 60.917969 292.417969 61.136719 291.6875 C 61.359375 290.957031 61.542969 290.222656 61.691406 289.472656 C 61.839844 288.726562 61.953125 287.976562 62.027344 287.21875 C 62.101562 286.460938 62.140625 285.699219 62.140625 284.9375 C 62.136719 284.175781 62.101562 283.417969 62.023438 282.660156 C 61.949219 281.902344 61.835938 281.152344 61.6875 280.402344 C 61.539062 279.65625 61.355469 278.921875 61.132812 278.191406 C 60.910156 277.464844 60.652344 276.75 60.363281 276.046875 C 60.070312 275.34375 59.746094 274.65625 59.386719 273.984375 C 59.027344 273.3125 58.636719 272.660156 58.210938 272.027344 C 57.789062 271.394531 57.335938 270.785156 56.855469 270.195312 C 56.371094 269.605469 55.859375 269.042969 55.320312 268.503906 C 54.785156 267.96875 54.21875 267.457031 53.632812 266.972656 C 53.042969 266.492188 52.433594 266.039062 51.800781 265.613281 C 51.167969 265.191406 50.515625 264.800781 49.84375 264.441406 C 49.171875 264.082031 48.484375 263.757812 47.78125 263.464844 C 47.078125 263.171875 46.363281 262.917969 45.636719 262.695312 C 44.90625 262.472656 44.167969 262.289062 43.421875 262.140625 C 42.675781 261.988281 41.925781 261.878906 41.167969 261.800781 C 40.410156 261.726562 39.648438 261.6875 38.890625 261.6875 Z M 38.890625 306.449219 C 38.183594 306.449219 37.480469 306.414062 36.78125 306.347656 C 36.078125 306.277344 35.382812 306.175781 34.691406 306.035156 C 34 305.898438 33.320312 305.726562 32.644531 305.523438 C 31.96875 305.320312 31.308594 305.082031 30.65625 304.8125 C 30.007812 304.542969 29.371094 304.242188 28.75 303.910156 C 28.128906 303.578125 27.523438 303.214844 26.9375 302.824219 C 26.351562 302.433594 25.785156 302.015625 25.242188 301.566406 C 24.699219 301.121094 24.175781 300.648438 23.679688 300.148438 C 23.179688 299.652344 22.707031 299.128906 22.261719 298.585938 C 21.8125 298.039062 21.394531 297.476562 21.003906 296.890625 C 20.613281 296.304688 20.25 295.699219 19.917969 295.078125 C 19.585938 294.457031 19.285156 293.820312 19.015625 293.171875 C 18.746094 292.519531 18.507812 291.855469 18.304688 291.183594 C 18.097656 290.507812 17.929688 289.824219 17.789062 289.136719 C 17.652344 288.445312 17.550781 287.746094 17.480469 287.046875 C 17.410156 286.34375 17.378906 285.644531 17.378906 284.9375 C 17.378906 284.234375 17.410156 283.53125 17.480469 282.828125 C 17.550781 282.128906 17.652344 281.433594 17.789062 280.742188 C 17.929688 280.050781 18.097656 279.367188 18.304688 278.695312 C 18.507812 278.019531 18.746094 277.355469 19.015625 276.707031 C 19.285156 276.054688 19.585938 275.417969 19.917969 274.796875 C 20.25 274.175781 20.613281 273.574219 21.003906 272.988281 C 21.394531 272.402344 21.8125 271.835938 22.261719 271.292969 C 22.707031 270.746094 23.179688 270.226562 23.679688 269.726562 C 24.175781 269.230469 24.699219 268.757812 25.242188 268.308594 C 25.785156 267.863281 26.351562 267.445312 26.9375 267.050781 C 27.523438 266.660156 28.128906 266.296875 28.75 265.964844 C 29.371094 265.632812 30.007812 265.332031 30.65625 265.0625 C 31.308594 264.792969 31.96875 264.558594 32.644531 264.351562 C 33.320312 264.148438 34 263.976562 34.691406 263.839844 C 35.382812 263.703125 36.078125 263.597656 36.78125 263.53125 C 37.480469 263.460938 38.183594 263.425781 38.890625 263.425781 C 39.59375 263.425781 40.296875 263.460938 40.996094 263.53125 C 41.699219 263.597656 42.394531 263.703125 43.085938 263.839844 C 43.777344 263.976562 44.460938 264.148438 45.132812 264.351562 C 45.808594 264.558594 46.46875 264.792969 47.121094 265.0625 C 47.773438 265.332031 48.410156 265.632812 49.03125 265.964844 C 49.652344 266.296875 50.253906 266.660156 50.839844 267.050781 C 51.425781 267.445312 51.992188 267.863281 52.535156 268.308594 C 53.082031 268.757812 53.601562 269.230469 54.101562 269.726562 C 54.597656 270.226562 55.070312 270.746094 55.519531 271.292969 C 55.964844 271.835938 56.382812 272.402344 56.777344 272.988281 C 57.167969 273.574219 57.527344 274.175781 57.859375 274.796875 C 58.191406 275.417969 58.492188 276.054688 58.761719 276.707031 C 59.03125 277.355469 59.269531 278.019531 59.472656 278.695312 C 59.679688 279.367188 59.851562 280.050781 59.988281 280.742188 C 60.125 281.433594 60.226562 282.128906 60.296875 282.828125 C 60.367188 283.53125 60.402344 284.234375 60.402344 284.9375 C 60.398438 285.644531 60.363281 286.34375 60.292969 287.046875 C 60.226562 287.746094 60.121094 288.441406 59.984375 289.132812 C 59.84375 289.824219 59.671875 290.507812 59.46875 291.179688 C 59.265625 291.855469 59.027344 292.515625 58.757812 293.167969 C 58.488281 293.816406 58.183594 294.453125 57.851562 295.074219 C 57.519531 295.695312 57.160156 296.296875 56.765625 296.882812 C 56.375 297.46875 55.957031 298.035156 55.511719 298.578125 C 55.0625 299.121094 54.589844 299.644531 54.09375 300.140625 C 53.59375 300.640625 53.074219 301.113281 52.527344 301.558594 C 51.984375 302.007812 51.417969 302.425781 50.835938 302.816406 C 50.25 303.207031 49.644531 303.570312 49.023438 303.902344 C 48.402344 304.234375 47.769531 304.535156 47.117188 304.804688 C 46.464844 305.074219 45.804688 305.3125 45.128906 305.519531 C 44.457031 305.722656 43.773438 305.894531 43.085938 306.03125 C 42.394531 306.171875 41.699219 306.273438 40.996094 306.34375 C 40.296875 306.414062 39.59375 306.449219 38.890625 306.449219 Z M 38.890625 306.449219 " fill-opacity="1" fill-rule="nonzero"/></g><path fill="#231f20" d="M 48.507812 284.953125 C 48.507812 284.320312 48.445312 283.695312 48.320312 283.074219 C 48.199219 282.457031 48.015625 281.855469 47.773438 281.269531 C 47.53125 280.6875 47.238281 280.132812 46.886719 279.609375 C 46.535156 279.082031 46.136719 278.597656 45.691406 278.152344 C 45.242188 277.703125 44.757812 277.304688 44.230469 276.953125 C 43.707031 276.605469 43.152344 276.308594 42.570312 276.066406 C 41.984375 275.824219 41.382812 275.640625 40.765625 275.519531 C 40.144531 275.394531 39.519531 275.335938 38.890625 275.335938 C 38.257812 275.335938 37.632812 275.394531 37.011719 275.519531 C 36.394531 275.640625 35.792969 275.824219 35.207031 276.066406 C 34.625 276.308594 34.070312 276.605469 33.546875 276.953125 C 33.019531 277.304688 32.535156 277.703125 32.089844 278.152344 C 31.640625 278.597656 31.242188 279.082031 30.894531 279.609375 C 30.542969 280.132812 30.246094 280.6875 30.003906 281.269531 C 29.761719 281.855469 29.578125 282.457031 29.457031 283.074219 C 29.332031 283.695312 29.273438 284.320312 29.273438 284.953125 C 29.273438 285.582031 29.332031 286.207031 29.457031 286.828125 C 29.578125 287.445312 29.761719 288.046875 30.003906 288.632812 C 30.246094 289.214844 30.542969 289.769531 30.894531 290.292969 C 31.242188 290.820312 31.640625 291.304688 32.089844 291.75 C 32.535156 292.199219 33.019531 292.597656 33.546875 292.949219 C 34.070312 293.296875 34.625 293.59375 35.207031 293.835938 C 35.792969 294.078125 36.394531 294.261719 37.011719 294.382812 C 37.632812 294.507812 38.257812 294.570312 38.890625 294.570312 C 39.519531 294.566406 40.144531 294.507812 40.765625 294.382812 C 41.382812 294.257812 41.984375 294.074219 42.566406 293.835938 C 43.152344 293.59375 43.707031 293.296875 44.230469 292.945312 C 44.753906 292.59375 45.242188 292.195312 45.6875 291.75 C 46.132812 291.304688 46.53125 290.816406 46.882812 290.292969 C 47.234375 289.765625 47.53125 289.214844 47.773438 288.628906 C 48.015625 288.046875 48.195312 287.445312 48.320312 286.828125 C 48.445312 286.207031 48.503906 285.582031 48.507812 284.953125 Z M 38.890625 292.832031 C 38.371094 292.832031 37.859375 292.78125 37.351562 292.679688 C 36.84375 292.578125 36.351562 292.429688 35.875 292.230469 C 35.394531 292.03125 34.941406 291.789062 34.511719 291.503906 C 34.082031 291.214844 33.683594 290.886719 33.316406 290.523438 C 32.953125 290.15625 32.625 289.757812 32.339844 289.328125 C 32.050781 288.898438 31.808594 288.445312 31.609375 287.964844 C 31.410156 287.488281 31.261719 286.996094 31.160156 286.488281 C 31.0625 285.980469 31.011719 285.46875 31.011719 284.953125 C 31.011719 284.433594 31.0625 283.921875 31.160156 283.414062 C 31.261719 282.90625 31.410156 282.414062 31.609375 281.9375 C 31.808594 281.457031 32.050781 281.003906 32.339844 280.574219 C 32.625 280.144531 32.953125 279.746094 33.316406 279.378906 C 33.683594 279.015625 34.082031 278.6875 34.511719 278.398438 C 34.941406 278.113281 35.394531 277.871094 35.875 277.671875 C 36.351562 277.472656 36.84375 277.324219 37.351562 277.222656 C 37.859375 277.121094 38.371094 277.074219 38.890625 277.074219 C 39.40625 277.074219 39.917969 277.121094 40.425781 277.222656 C 40.933594 277.324219 41.425781 277.472656 41.902344 277.671875 C 42.382812 277.871094 42.835938 278.113281 43.265625 278.398438 C 43.695312 278.6875 44.09375 279.015625 44.460938 279.378906 C 44.824219 279.746094 45.152344 280.144531 45.441406 280.574219 C 45.726562 281.003906 45.96875 281.457031 46.167969 281.9375 C 46.367188 282.414062 46.515625 282.90625 46.617188 283.414062 C 46.71875 283.921875 46.769531 284.433594 46.769531 284.953125 C 46.765625 285.46875 46.714844 285.980469 46.613281 286.488281 C 46.515625 286.996094 46.363281 287.488281 46.164062 287.964844 C 45.96875 288.441406 45.726562 288.898438 45.4375 289.328125 C 45.148438 289.757812 44.824219 290.15625 44.457031 290.519531 C 44.09375 290.886719 43.695312 291.210938 43.265625 291.5 C 42.835938 291.789062 42.378906 292.03125 41.902344 292.226562 C 41.425781 292.425781 40.933594 292.574219 40.425781 292.675781 C 39.917969 292.777344 39.40625 292.828125 38.890625 292.832031 Z M 38.890625 292.832031 " fill-opacity="1" fill-rule="nonzero"/><path fill="#231f20" d="M 37.292969 270.675781 L 37.507812 268.9375 C 36.378906 268.800781 30.5 268.335938 25.957031 272.894531 C 20.980469 277.890625 22.042969 284.5 22.15625 285.234375 L 23.871094 284.921875 C 23.75 284.277344 22.839844 278.488281 27.191406 274.121094 C 31.164062 270.148438 36.304688 270.554688 37.292969 270.675781 Z M 37.292969 270.675781 " fill-opacity="1" fill-rule="nonzero"/><path fill="#231f20" d="M 50.460938 296.75 C 46.316406 300.558594 41.195312 299.921875 40.214844 299.757812 L 39.921875 301.496094 C 40.644531 301.609375 41.367188 301.660156 42.097656 301.65625 C 43.859375 301.679688 45.566406 301.378906 47.214844 300.757812 C 48.867188 300.136719 50.347656 299.234375 51.65625 298.054688 C 56.871094 293.273438 56.101562 286.636719 56.003906 285.886719 L 54.265625 286.125 C 54.351562 286.761719 55.003906 292.582031 50.460938 296.75 Z M 50.460938 296.75 " fill-opacity="1" fill-rule="nonzero"/><path fill="#231f20" d="M 38.890625 279.738281 C 38.539062 279.738281 38.1875 279.769531 37.84375 279.839844 C 37.5 279.90625 37.164062 280.007812 36.839844 280.144531 C 36.511719 280.277344 36.203125 280.445312 35.910156 280.640625 C 35.617188 280.835938 35.347656 281.058594 35.101562 281.304688 C 34.851562 281.554688 34.628906 281.824219 34.433594 282.117188 C 34.238281 282.410156 34.074219 282.71875 33.9375 283.046875 C 33.804688 283.371094 33.703125 283.707031 33.632812 284.050781 C 33.566406 284.394531 33.53125 284.746094 33.53125 285.097656 C 33.53125 285.449219 33.566406 285.796875 33.632812 286.140625 C 33.703125 286.488281 33.804688 286.820312 33.9375 287.148438 C 34.074219 287.472656 34.238281 287.78125 34.433594 288.074219 C 34.628906 288.367188 34.851562 288.636719 35.101562 288.886719 C 35.351562 289.132812 35.621094 289.355469 35.914062 289.550781 C 36.207031 289.746094 36.515625 289.910156 36.839844 290.046875 C 37.167969 290.179688 37.5 290.28125 37.847656 290.351562 C 38.191406 290.417969 38.539062 290.453125 38.890625 290.453125 C 39.242188 290.453125 39.59375 290.417969 39.9375 290.347656 C 40.28125 290.28125 40.617188 290.179688 40.941406 290.042969 C 41.269531 289.910156 41.578125 289.742188 41.867188 289.546875 C 42.160156 289.351562 42.433594 289.128906 42.679688 288.882812 C 42.929688 288.632812 43.152344 288.359375 43.347656 288.070312 C 43.542969 287.777344 43.707031 287.46875 43.839844 287.140625 C 43.976562 286.816406 44.078125 286.480469 44.144531 286.136719 C 44.214844 285.789062 44.246094 285.441406 44.246094 285.089844 C 44.246094 284.738281 44.210938 284.390625 44.144531 284.046875 C 44.074219 283.703125 43.972656 283.367188 43.835938 283.042969 C 43.703125 282.71875 43.539062 282.410156 43.339844 282.117188 C 43.144531 281.824219 42.925781 281.554688 42.675781 281.304688 C 42.425781 281.058594 42.15625 280.835938 41.863281 280.640625 C 41.570312 280.445312 41.261719 280.28125 40.9375 280.144531 C 40.613281 280.011719 40.277344 279.910156 39.933594 279.839844 C 39.589844 279.769531 39.242188 279.738281 38.890625 279.738281 Z M 38.890625 288.710938 C 38.410156 288.710938 37.949219 288.617188 37.503906 288.433594 C 37.058594 288.25 36.667969 287.988281 36.328125 287.648438 C 35.988281 287.3125 35.726562 286.917969 35.542969 286.476562 C 35.359375 286.03125 35.269531 285.570312 35.269531 285.089844 C 35.269531 284.609375 35.359375 284.148438 35.542969 283.703125 C 35.726562 283.261719 35.988281 282.871094 36.328125 282.53125 C 36.667969 282.191406 37.058594 281.929688 37.503906 281.746094 C 37.949219 281.5625 38.410156 281.46875 38.890625 281.46875 C 39.371094 281.46875 39.832031 281.5625 40.273438 281.746094 C 40.71875 281.929688 41.109375 282.191406 41.449219 282.53125 C 41.789062 282.871094 42.050781 283.261719 42.234375 283.703125 C 42.417969 284.148438 42.507812 284.609375 42.507812 285.089844 C 42.507812 285.570312 42.417969 286.03125 42.234375 286.476562 C 42.050781 286.917969 41.789062 287.3125 41.449219 287.648438 C 41.109375 287.988281 40.71875 288.25 40.273438 288.433594 C 39.832031 288.617188 39.371094 288.710938 38.890625 288.710938 Z M 38.890625 288.710938 " fill-opacity="1" fill-rule="nonzero"/></svg>