<svg xmlns="http://www.w3.org/2000/svg" xmlns:xlink="http://www.w3.org/1999/xlink" width="500" zoomAndPan="magnify" viewBox="0 0 375 374.999991" height="500" preserveAspectRatio="xMidYMid meet" version="1.0"><defs><clipPath id="c250274e37"><path d="M 93.585938 132.203125 L 286.25 132.203125 L 286.25 374.746094 L 93.585938 374.746094 Z M 93.585938 132.203125 " clip-rule="nonzero"/></clipPath><clipPath id="0788ceff2a"><path d="M 347 57.253906 L 353.859375 57.253906 L 353.859375 64.132812 L 347 64.132812 Z M 347 57.253906 " clip-rule="nonzero"/></clipPath></defs><path fill="#ff9974" d="M 310.546875 227.097656 C 310.257812 225.308594 307.839844 225.527344 307.128906 226.777344 C 306.929688 226.578125 306.6875 226.398438 306.371094 226.253906 C 293.84375 220.582031 275.675781 228.613281 273.949219 241.699219 C 271.484375 260.410156 279.5 280.84375 291.433594 296.277344 C 293.761719 299.289062 298.847656 307.925781 303.617188 307.832031 C 308.910156 307.730469 309.730469 316 310.421875 312.226562 C 314.589844 289.476562 314.242188 249.941406 310.546875 227.097656 " fill-opacity="1" fill-rule="nonzero"/><path fill="#ff9974" d="M 137.429688 236 C 133.585938 233.660156 129.636719 231.15625 125.160156 230.265625 C 122.074219 229.652344 119.242188 230.238281 116.1875 230.628906 C 112.988281 231.039062 107.289062 231.058594 104.953125 233.914062 C 104.660156 233.832031 104.316406 233.949219 104.1875 234.339844 C 101.480469 242.621094 100.878906 251.28125 100.425781 259.933594 C 99.925781 269.507812 98.300781 279.234375 98.609375 288.820312 C 98.796875 294.6875 99.347656 307.019531 105.328125 309.488281 C 110.070312 311.445312 116.351562 304.738281 120.550781 301.722656 C 125.378906 298.257812 128.714844 292.765625 132.160156 288.027344 C 137.0625 281.277344 139.902344 273.625 141.335938 265.429688 C 142.355469 259.609375 143.675781 253.4375 143.6875 247.511719 C 143.699219 242.027344 142.050781 238.816406 137.429688 236 " fill-opacity="1" fill-rule="nonzero"/><path fill="#ff9974" d="M 223.582031 100.765625 C 217.320312 98.640625 211.664062 93.195312 204.605469 94.394531 C 200.574219 95.078125 196.632812 97.410156 193.058594 99.304688 C 191.761719 99.996094 187.203125 97.875 187.203125 97.875 C 187.203125 97.875 181.824219 138.25 180.78125 142.027344 C 180.90625 142.085938 181.050781 142.140625 181.152344 142.203125 C 183.386719 143.5625 184.996094 145.496094 186.898438 147.222656 C 189.5625 149.644531 192.539062 152.035156 195.632812 153.890625 C 201.246094 157.253906 205.789062 160.734375 212.085938 157.613281 C 216.089844 155.628906 220.089844 153.757812 223.96875 151.519531 C 225.589844 150.585938 227.515625 149.746094 229.382812 148.835938 C 229.453125 145.40625 229.757812 135.078125 229.839844 133.320312 C 229.929688 131.417969 230.074219 129.515625 230.238281 127.617188 C 230.503906 119.160156 231.410156 110.769531 233.59375 102.542969 C 230.523438 101.363281 226.019531 101.585938 223.582031 100.765625 " fill-opacity="1" fill-rule="nonzero"/><path fill="#382732" d="M 193.605469 30.5625 C 193.140625 30.390625 192.679688 30.28125 192.226562 30.199219 C 192.742188 29.429688 192.183594 28.136719 191.164062 28.257812 C 189.429688 28.464844 188.007812 28.976562 186.832031 29.722656 C 182.414062 30.660156 180.085938 34.90625 178.875 39.6875 C 177.914062 43.480469 177.527344 47.390625 177.210938 51.28125 C 176.835938 55.953125 176.589844 60.464844 177.367188 65.105469 C 177.464844 65.699219 179.414062 73.789062 179.847656 73.421875 C 179.875 73.425781 179.90625 73.445312 179.933594 73.449219 C 180.894531 74.773438 183.429688 74.339844 183.460938 72.269531 C 183.488281 70.421875 183.425781 66.074219 183.601562 60.960938 C 185.058594 61.804688 187.503906 60.96875 187.679688 58.714844 C 188.277344 51.050781 191.230469 40.222656 194.902344 33.46875 C 195.582031 32.214844 194.789062 31.003906 193.605469 30.5625 " fill-opacity="1" fill-rule="nonzero"/><path fill="#382732" d="M 250.671875 45.683594 C 249.730469 51.09375 249.195312 56.378906 248.417969 61.832031 C 247.742188 66.578125 244.695312 71.519531 245.140625 76.246094 C 245.25 77.371094 246.84375 78.285156 247.664062 77.195312 C 254.355469 68.28125 252.453125 56.746094 253.65625 46.394531 C 253.875 44.480469 251.019531 43.703125 250.671875 45.683594 " fill-opacity="1" fill-rule="nonzero"/><path fill="#ff9974" d="M 246.40625 49.445312 C 245.070312 44.605469 242.53125 40.277344 237.878906 37.816406 C 227.113281 32.121094 213.882812 30.832031 202.96875 34.863281 C 198.589844 36.476562 193.253906 38.589844 191.511719 40.152344 C 189.507812 41.941406 187.601562 44.433594 187.15625 46.925781 C 186.589844 50.078125 183.949219 52.285156 183.386719 55.4375 C 181.996094 63.179688 182.289062 72.660156 182.820312 82.855469 C 183.234375 90.796875 183.308594 97.675781 186.679688 105.101562 C 189.550781 111.417969 193.589844 115.167969 198.375 120.171875 C 202.109375 124.078125 211.523438 128.164062 216.925781 126.578125 C 222.40625 124.964844 234.769531 115.640625 239.699219 105.78125 C 242.574219 100.035156 244.570312 91.964844 245.777344 85.722656 C 248.054688 73.945312 249.691406 61.320312 246.40625 49.445312 " fill-opacity="1" fill-rule="nonzero"/><path fill="#ff9974" d="M 188.320312 86.035156 C 188.054688 83.78125 187.320312 81.742188 187.300781 79.34375 C 187.28125 77.097656 187.421875 74.828125 187.15625 72.589844 C 186.925781 70.617188 186.382812 68.496094 184.648438 67.304688 C 184.15625 66.964844 184.007812 67.816406 183.476562 67.730469 C 183.070312 67.535156 182.289062 66.542969 181.261719 66.507812 C 178.628906 66.414062 177.175781 68.488281 176.40625 70.707031 C 175.066406 74.550781 175.699219 78.8125 177.53125 82.386719 C 179.195312 85.636719 182.28125 89.734375 186.460938 88.558594 C 187.671875 88.214844 188.472656 87.328125 188.320312 86.035156 " fill-opacity="1" fill-rule="nonzero"/><path fill="#ff9974" d="M 239.320312 91.640625 C 239.832031 89.4375 240.78125 87.488281 241.0625 85.109375 C 241.328125 82.875 241.4375 80.605469 241.945312 78.410156 C 242.390625 76.472656 243.164062 74.421875 245.019531 73.429688 C 245.546875 73.148438 246.09375 73.015625 246.632812 72.984375 C 247.058594 72.835938 247.21875 73.371094 247.753906 73.09375 C 250.566406 71.636719 252.316406 75.425781 252.839844 77.714844 C 254.460938 84.792969 249.511719 94.808594 241.5625 94.5 C 239.960938 94.4375 238.925781 93.347656 239.320312 91.640625 " fill-opacity="1" fill-rule="nonzero"/><path fill="#382732" d="M 207.71875 64.285156 C 203.597656 60.964844 195.910156 61.671875 191.777344 64.691406 C 190.671875 65.5 189.457031 66.808594 191.667969 66.648438 C 195.21875 66.386719 198.949219 66.335938 202.484375 66.8125 C 203.917969 67.003906 206.742188 68.324219 208 66.925781 C 208.941406 65.882812 208.597656 64.992188 207.71875 64.285156 " fill-opacity="1" fill-rule="nonzero"/><path fill="#382732" d="M 226.929688 69.351562 C 227.894531 70.96875 230.921875 70.222656 232.367188 70.3125 C 235.925781 70.53125 239.574219 71.308594 243.007812 72.25 C 245.144531 72.839844 244.207031 71.320312 243.277344 70.3125 C 239.8125 66.546875 232.40625 64.359375 227.71875 66.816406 C 226.722656 67.335938 226.210938 68.144531 226.929688 69.351562 " fill-opacity="1" fill-rule="nonzero"/><path fill="#f08059" d="M 216.828125 100.667969 C 216.59375 100.667969 216.355469 100.589844 216.164062 100.421875 C 215.738281 100.050781 215.695312 99.414062 216.0625 98.988281 C 217.082031 97.816406 218.644531 95.863281 218.921875 95.199219 C 219.113281 94.359375 218.609375 87.621094 217.996094 81.628906 C 217.941406 81.070312 218.347656 80.574219 218.902344 80.515625 C 219.445312 80.453125 219.957031 80.867188 220.015625 81.421875 C 220.628906 87.445312 221.265625 94.867188 220.792969 95.984375 C 220.285156 97.191406 218.039062 99.808594 217.59375 100.320312 C 217.394531 100.550781 217.113281 100.667969 216.828125 100.667969 " fill-opacity="1" fill-rule="nonzero"/><path fill="#f08059" d="M 216.683594 107.558594 C 216.167969 107.558594 215.632812 107.535156 215.074219 107.492188 C 208.570312 106.96875 203.722656 103.695312 203.6875 102.46875 C 203.667969 101.90625 204.105469 101.441406 204.667969 101.421875 C 205.058594 101.402344 205.390625 101.613281 205.574219 101.925781 C 206.132812 102.492188 209.59375 105.011719 215.238281 105.46875 C 221.21875 105.953125 223.875 103.351562 223.984375 103.242188 C 224.378906 102.847656 225.019531 102.835938 225.417969 103.230469 C 225.816406 103.617188 225.828125 104.253906 225.441406 104.65625 C 225.320312 104.785156 222.582031 107.558594 216.683594 107.558594 " fill-opacity="1" fill-rule="nonzero"/><path fill="#382732" d="M 202.53125 32.117188 C 202.296875 31.734375 201.613281 31.597656 201.324219 32.003906 C 200.714844 32.84375 200.183594 33.75 199.671875 34.675781 C 199.46875 34.335938 199.132812 34.085938 198.710938 34.140625 C 198.269531 34.195312 197.84375 34.320312 197.417969 34.472656 C 197.523438 33.777344 196.722656 33.179688 196.140625 33.789062 C 195.339844 34.621094 194.675781 35.617188 194.058594 36.667969 C 193.738281 36.972656 193.421875 37.289062 193.113281 37.625 C 191.691406 38.703125 190.488281 40.089844 189.453125 41.53125 C 188.496094 42.863281 187.695312 44.3125 186.960938 45.78125 C 186.613281 46.46875 186.226562 47.179688 185.992188 47.917969 C 185.925781 48.132812 185.878906 48.386719 185.835938 48.644531 C 183.519531 52.972656 181.207031 58.46875 181.140625 62.835938 C 181.078125 62.746094 181.015625 62.660156 180.960938 62.582031 C 180.976562 62.300781 180.851562 62.03125 180.484375 61.992188 C 180.425781 61.984375 180.367188 61.976562 180.308594 61.972656 C 179.695312 61.902344 179.292969 62.441406 179.570312 63.003906 C 182.242188 68.4375 185.21875 70.125 187.152344 63.511719 C 187.796875 61.308594 188.714844 59.203125 189.523438 57.058594 C 190.707031 53.921875 191.78125 50.652344 193.503906 47.765625 C 194.78125 45.628906 196.410156 43.734375 198.101562 41.921875 C 199.707031 40.203125 200.597656 38.28125 201.832031 36.285156 C 202.640625 34.976562 203.410156 33.554688 202.53125 32.117188 " fill-opacity="1" fill-rule="nonzero"/><path fill="#382732" d="M 247.511719 41.96875 C 247.3125 41.160156 246.128906 41.140625 245.792969 41.820312 C 245.789062 41.546875 245.792969 41.28125 245.785156 41.007812 C 245.773438 40.40625 244.820312 40.109375 244.574219 40.726562 C 242.851562 44.984375 243.972656 48.527344 245.226562 52.710938 C 247.117188 59.007812 245.769531 65.746094 246.164062 72.207031 C 246.226562 73.199219 247.675781 73.652344 248.140625 72.671875 C 250.050781 68.636719 249.226562 63.34375 249.363281 59.003906 C 249.535156 53.441406 248.855469 47.363281 247.511719 41.96875 " fill-opacity="1" fill-rule="nonzero"/><path fill="#8c94b2" d="M 265.515625 44.230469 C 264.925781 39.464844 263.40625 33.714844 260.179688 29.738281 C 262.890625 21.890625 258.027344 14.210938 249.835938 11.214844 C 247.660156 10.417969 245.335938 9.921875 242.941406 9.648438 C 242.839844 6.648438 241.441406 3.636719 238.808594 2.003906 C 236.097656 0.320312 233.25 0.273438 230.164062 0.355469 C 226.839844 0.441406 223.519531 0.707031 220.222656 1.144531 C 212.929688 2.117188 205.390625 3.78125 198.671875 6.84375 C 192.9375 9.449219 187.675781 13.546875 184.40625 18.992188 C 183.125 21.125 182.328125 23.785156 182.402344 26.285156 C 182.433594 27.382812 182.605469 28.769531 183.320312 29.664062 C 183.671875 30.105469 186.289062 30.933594 186.21875 30.71875 C 186.519531 31.652344 186.863281 32.566406 187.222656 33.453125 C 188.378906 36.277344 189.679688 39.976562 192.25 41.824219 C 194.46875 43.421875 197.273438 44.109375 199.898438 44.675781 C 202.601562 45.257812 205.347656 45.636719 208.109375 45.742188 C 210.867188 45.847656 213.449219 44.753906 216.179688 45.636719 C 219.035156 46.558594 221.425781 48.515625 224.203125 49.628906 C 227.910156 51.117188 232.015625 51.691406 235.273438 54.152344 C 240.128906 57.820312 246.285156 62.285156 251.886719 57.28125 C 259.015625 59.050781 266.394531 51.390625 265.515625 44.230469 " fill-opacity="1" fill-rule="nonzero"/><path fill="#382732" d="M 253.003906 51.847656 C 252.640625 51.847656 252.289062 51.652344 252.105469 51.308594 C 252.054688 51.207031 246.738281 41.296875 237.71875 37.992188 C 229.460938 34.96875 223.984375 36.195312 214.90625 38.226562 C 213.875 38.457031 212.800781 38.699219 211.671875 38.945312 C 200.585938 41.355469 193.664062 41.039062 193.375 41.023438 C 192.816406 40.996094 192.386719 40.519531 192.414062 39.957031 C 192.441406 39.398438 192.902344 38.949219 193.476562 38.996094 C 193.546875 39 200.445312 39.308594 211.242188 36.957031 C 212.367188 36.71875 213.4375 36.476562 214.464844 36.246094 C 223.578125 34.207031 229.59375 32.855469 238.417969 36.085938 C 248.179688 39.664062 253.671875 49.925781 253.902344 50.363281 C 254.164062 50.859375 253.972656 51.472656 253.476562 51.730469 C 253.328125 51.8125 253.164062 51.847656 253.003906 51.847656 " fill-opacity="1" fill-rule="nonzero"/><path fill="#382732" d="M 256.15625 30.25 C 255.761719 30.25 255.382812 30.015625 255.222656 29.625 C 255.195312 29.5625 253.382812 25.582031 245.96875 23.671875 C 238.164062 21.65625 230.359375 22.976562 230.285156 22.992188 C 229.722656 23.082031 229.207031 22.714844 229.109375 22.164062 C 229.015625 21.609375 229.382812 21.085938 229.933594 20.988281 C 230.269531 20.933594 238.25 19.582031 246.476562 21.703125 C 254.976562 23.898438 257.011719 28.644531 257.09375 28.847656 C 257.308594 29.363281 257.058594 29.957031 256.542969 30.171875 C 256.414062 30.222656 256.285156 30.25 256.15625 30.25 " fill-opacity="1" fill-rule="nonzero"/><path fill="#382732" d="M 200.347656 73.621094 C 199.460938 73.414062 198.734375 73.894531 198.332031 74.675781 C 197.878906 75.542969 197.714844 76.777344 197.976562 77.726562 C 198.21875 78.605469 199.285156 79.230469 200.164062 78.871094 C 201.886719 78.171875 202.796875 74.199219 200.347656 73.621094 " fill-opacity="1" fill-rule="nonzero"/><path fill="#382732" d="M 232.398438 77.019531 C 231.511719 76.8125 230.785156 77.292969 230.378906 78.074219 C 229.929688 78.941406 229.765625 80.175781 230.027344 81.125 C 230.269531 82.003906 231.335938 82.628906 232.214844 82.273438 C 233.9375 81.570312 234.847656 77.597656 232.398438 77.019531 " fill-opacity="1" fill-rule="nonzero"/><path fill="#f08059" d="M 211.117188 127.863281 C 201.585938 127.863281 188.820312 110.003906 188.277344 109.230469 C 187.953125 108.773438 188.058594 108.140625 188.515625 107.816406 C 188.96875 107.492188 189.609375 107.601562 189.929688 108.054688 C 190.058594 108.238281 202.917969 126.308594 211.402344 125.824219 C 220.070312 125.367188 227.960938 118.605469 228.042969 118.539062 C 228.460938 118.171875 229.101562 118.214844 229.472656 118.640625 C 229.839844 119.066406 229.792969 119.707031 229.367188 120.074219 C 229.027344 120.371094 220.867188 127.359375 211.507812 127.855469 C 211.378906 127.859375 211.246094 127.863281 211.117188 127.863281 " fill-opacity="1" fill-rule="nonzero"/><g clip-path="url(#c250274e37)"><path fill="#694c52" d="M 285.859375 157.886719 C 285.25 153.355469 281.824219 151.855469 277.824219 150.921875 C 275.550781 150.394531 271.960938 149.4375 267.742188 148.300781 C 252.6875 144.179688 229.703125 137.457031 229.703125 137.457031 C 229.703125 137.457031 228.667969 150.066406 204.707031 148.464844 C 191.824219 147.609375 185.007812 137.214844 183.019531 133.601562 C 182.59375 132.851562 182.390625 132.382812 182.390625 132.382812 C 182.390625 132.382812 181.09375 132.746094 178.921875 133.359375 C 168.820312 136.242188 139.585938 144.707031 132.078125 148.242188 C 122.644531 152.707031 115.664062 160.546875 110.449219 169.886719 C 106.738281 176.546875 103.917969 183.976562 101.726562 191.53125 C 98.847656 201.460938 97.0625 211.570312 95.761719 220.34375 C 95.558594 221.644531 95.378906 222.964844 95.214844 224.261719 C 94.789062 227.429688 94.402344 230.597656 93.957031 233.765625 C 93.691406 235.695312 93.144531 237.949219 94.382812 239.652344 C 96.085938 242.011719 105.765625 242.253906 108.28125 242.71875 C 112.722656 243.53125 117.246094 243.816406 121.75 243.9375 C 123.375 243.980469 136.335938 244.160156 136.335938 244.160156 C 136.335938 244.160156 135.972656 252.019531 135.75 262.03125 C 135.507812 272.671875 135.40625 285.746094 135.992188 294.394531 L 135.992188 294.496094 C 136.582031 302.945312 136.886719 311.414062 137.089844 319.878906 C 137.230469 325.421875 137.332031 330.964844 137.453125 336.488281 C 137.492188 338.722656 136.886719 345.523438 136.722656 352.246094 C 136.5 359.492188 135.6875 368.5 139.074219 370.382812 C 153.054688 378.167969 266.328125 374.953125 281.542969 365.308594 C 284.539062 363.410156 282.917969 354.113281 282.59375 350.234375 C 282.003906 342.882812 280.746094 331.515625 279.632812 317.890625 C 278.980469 310.375 278.394531 302.171875 277.949219 293.585938 C 277.417969 283.167969 277.117188 272.164062 277.238281 261.136719 C 277.277344 259.613281 277.300781 258.113281 277.339844 256.585938 C 277.417969 253.382812 277.539062 250.152344 277.722656 246.964844 C 278.046875 241.054688 278.535156 235.207031 279.085938 229.480469 C 280.242188 217.929688 281.738281 206.859375 283.058594 196.8125 C 284.644531 184.871094 285.960938 174.394531 286.183594 166.269531 C 286.265625 163.082031 286.164062 160.28125 285.859375 157.886719 " fill-opacity="1" fill-rule="nonzero"/></g><path fill="#694c52" d="M 317.386719 227.347656 C 315.460938 215.9375 312.375 201.746094 310.953125 195.691406 C 310.9375 195.570312 310.894531 195.429688 310.875 195.308594 C 308.359375 184.527344 305.921875 173.804688 299.308594 165.074219 C 295.273438 159.691406 289.652344 155.0625 281.457031 151.671875 C 278.820312 150.574219 272.285156 149.195312 267.742188 148.300781 C 265.023438 147.773438 263.035156 147.429688 263.035156 147.429688 C 263.035156 147.429688 272.207031 160.464844 273.648438 166.984375 C 273.910156 168.078125 273.929688 169.011719 273.648438 169.644531 C 269.933594 178.027344 270.136719 188.179688 270.179688 197.214844 L 270.179688 198.148438 C 270.21875 208.6875 270.644531 219.1875 271.089844 229.722656 C 271.089844 229.886719 271.109375 230.050781 271.109375 230.210938 C 271.335938 235.574219 270.828125 244.203125 276.792969 246.636719 C 277.09375 246.761719 277.398438 246.882812 277.722656 246.964844 C 282.941406 248.648438 289.066406 247.046875 294.402344 247.246094 C 299.128906 247.453125 316.695312 246.273438 318.746094 243.59375 C 319.617188 242.457031 318.808594 235.652344 317.386719 227.347656 " fill-opacity="1" fill-rule="nonzero"/><path fill="#b0969b" d="M 299.308594 165.074219 C 294.949219 165.539062 290.566406 165.96875 286.183594 166.269531 C 284.15625 166.433594 282.125 166.554688 280.097656 166.65625 C 277.949219 166.757812 275.796875 166.882812 273.648438 166.984375 C 253.96875 167.9375 234.1875 168.726562 214.507812 168.484375 C 203.328125 168.34375 192.3125 166.617188 181.175781 165.96875 C 170.359375 165.335938 159.507812 166.171875 148.714844 166.859375 C 137.089844 167.589844 125.503906 168.605469 113.898438 169.621094 C 112.742188 169.722656 111.605469 169.804688 110.449219 169.886719 C 115.664062 160.546875 122.644531 152.707031 132.078125 148.242188 C 139.585938 144.707031 168.820312 136.242188 178.921875 133.359375 C 179.042969 133.359375 179.1875 133.378906 179.308594 133.378906 C 180.546875 133.4375 181.78125 133.519531 183.019531 133.601562 C 185.007812 137.214844 191.824219 147.609375 204.707031 148.464844 C 228.667969 150.066406 229.703125 137.457031 229.703125 137.457031 C 229.703125 137.457031 252.6875 144.179688 267.742188 148.300781 C 272.285156 149.195312 278.820312 150.574219 281.457031 151.671875 C 289.652344 155.0625 295.273438 159.691406 299.308594 165.074219 " fill-opacity="1" fill-rule="nonzero"/><path fill="#b0969b" d="M 277.949219 293.585938 C 277.300781 293.648438 276.628906 293.664062 275.980469 293.707031 C 254.171875 294.804688 232.21875 295.777344 210.386719 295.511719 C 199.210938 295.390625 188.191406 293.648438 177.054688 292.996094 C 166.242188 292.367188 155.386719 293.21875 144.59375 293.886719 C 141.714844 294.070312 138.855469 294.273438 135.992188 294.496094 L 135.992188 294.394531 C 135.40625 285.746094 135.507812 272.671875 135.75 262.03125 C 137.414062 261.910156 139.054688 261.785156 140.71875 261.664062 C 152.164062 260.890625 163.726562 259.875 175.1875 260.425781 C 185.71875 260.914062 196.148438 262.617188 206.675781 262.964844 C 229.683594 263.734375 252.992188 262.375 275.980469 261.21875 C 276.40625 261.199219 276.8125 261.175781 277.238281 261.136719 C 277.117188 272.164062 277.417969 283.167969 277.949219 293.585938 " fill-opacity="1" fill-rule="nonzero"/><path fill="#b0969b" d="M 317.386719 227.347656 C 316.921875 227.390625 316.472656 227.410156 316.007812 227.449219 C 303.695312 228.363281 291.378906 229.074219 279.085938 229.480469 C 276.425781 229.582031 273.746094 229.664062 271.089844 229.722656 C 258.816406 230.007812 246.542969 229.96875 234.226562 229.542969 C 206.59375 228.585938 179.246094 227.066406 151.738281 224.425781 C 132.949219 222.617188 114.082031 223.492188 95.214844 224.261719 C 95.378906 222.964844 95.558594 221.644531 95.761719 220.34375 C 97.0625 211.570312 98.847656 201.460938 101.726562 191.53125 C 119.050781 190.859375 136.378906 190.375 153.644531 192.121094 C 180.484375 194.863281 207.265625 196.140625 234.226562 197.054688 C 246.238281 197.460938 258.207031 197.480469 270.179688 197.214844 C 274.480469 197.113281 278.757812 196.992188 283.058594 196.8125 C 292.332031 196.464844 301.601562 195.9375 310.875 195.308594 C 310.894531 195.429688 310.9375 195.570312 310.953125 195.691406 C 312.375 201.746094 315.460938 215.9375 317.386719 227.347656 " fill-opacity="1" fill-rule="nonzero"/><path fill="#b0969b" d="M 282.59375 350.234375 C 261.65625 352.308594 240.71875 353.648438 219.640625 353.832031 C 191.988281 354.050781 164.597656 353.707031 137.007812 352.265625 C 136.90625 352.265625 136.824219 352.265625 136.722656 352.246094 C 136.886719 345.523438 137.492188 338.722656 137.453125 336.488281 C 137.332031 330.964844 137.230469 325.421875 137.089844 319.878906 C 137.230469 319.878906 137.371094 319.898438 137.515625 319.898438 C 164.457031 321.484375 191.257812 321.605469 218.242188 321.359375 C 238.8125 321.175781 259.222656 319.859375 279.632812 317.890625 C 280.746094 331.515625 282.003906 342.882812 282.59375 350.234375 " fill-opacity="1" fill-rule="nonzero"/><path fill="#ff9974" d="M 178.117188 203.722656 C 178.117188 203.722656 172.742188 240.292969 173.113281 242.707031 C 173.484375 245.125 187.277344 247.417969 189.179688 245.585938 C 193.476562 241.445312 194.832031 230.261719 194.832031 230.261719 C 194.832031 230.261719 185.257812 208.21875 185.808594 208.148438 C 186.355469 208.078125 178.117188 203.722656 178.117188 203.722656 " fill-opacity="1" fill-rule="nonzero"/><path fill="#f5e3cb" d="M 189.578125 190.996094 C 188.28125 192.054688 188.707031 195.214844 188.753906 196.703125 C 188.835938 199.28125 189.066406 201.855469 189.265625 204.429688 C 190.03125 214.234375 191.28125 221.992188 192.1875 233.480469 C 192.535156 237.882812 192.101562 244.65625 193.46875 245.996094 C 194.832031 247.332031 224.90625 247.242188 226.570312 245.785156 C 228.238281 244.324219 228.398438 191.585938 227.21875 190.4375 C 226.582031 189.820312 224.496094 190.011719 223.710938 189.964844 C 221.144531 189.820312 218.570312 189.785156 216 189.761719 C 209.773438 189.710938 203.535156 189.789062 197.3125 190.078125 C 195.363281 190.167969 191.082031 189.769531 189.578125 190.996094 " fill-opacity="1" fill-rule="nonzero"/><path fill="#ff9974" d="M 205.480469 221.921875 C 207.246094 218.820312 204.058594 217.011719 201.285156 216.078125 C 203.371094 215.292969 207.070312 213.183594 206.855469 210.976562 C 206.464844 206.949219 196.445312 206.949219 196.445312 206.949219 C 196.445312 206.949219 198.5 205.535156 199.71875 204.195312 C 201.476562 202.265625 200.21875 200.21875 197.558594 199.179688 C 194.785156 198.101562 190.785156 198.175781 187.871094 198.753906 C 186.820312 198.964844 185.546875 199.234375 184.3125 199.644531 C 184.136719 199.703125 183.96875 199.765625 183.789062 199.839844 C 180.667969 201.132812 178.078125 201.335938 177.992188 204.78125 C 177.96875 206.464844 178.910156 207.496094 180.324219 208.097656 C 179.960938 207.941406 178.371094 210.269531 178.164062 210.667969 C 177.636719 211.679688 177.421875 212.746094 177.542969 213.882812 C 177.847656 216.742188 179.714844 218.53125 182.480469 219.070312 C 180.4375 220.5625 179.148438 223.460938 181.125 225.539062 C 181.992188 226.449219 183.246094 227.09375 184.636719 227.464844 C 184.492188 227.546875 184.335938 227.601562 184.199219 227.699219 C 182.5 228.902344 181.925781 231.261719 183.046875 233.050781 C 183.835938 234.3125 186.402344 234.507812 186.402344 234.507812 C 186.402344 234.507812 193.59375 233.347656 195.703125 232.714844 C 197.4375 232.195312 199.539062 230.960938 200.378906 229.289062 C 201.511719 227.050781 199.363281 225.738281 197.535156 225.042969 C 197.535156 225.042969 204.214844 224.152344 205.480469 221.921875 " fill-opacity="1" fill-rule="nonzero"/><path fill="#f08059" d="M 181.875 208.847656 C 181.371094 208.847656 180.9375 208.476562 180.867188 207.964844 C 180.796875 207.410156 181.1875 206.898438 181.742188 206.828125 C 193.496094 205.277344 193.628906 205.3125 193.851562 205.359375 C 194.398438 205.480469 194.746094 206.023438 194.625 206.566406 C 194.519531 207.046875 194.066406 207.316406 193.621094 207.367188 C 192.929688 207.414062 186.164062 208.289062 182.007812 208.839844 C 181.960938 208.84375 181.917969 208.847656 181.875 208.847656 " fill-opacity="1" fill-rule="nonzero"/><path fill="#f08059" d="M 181.542969 218.910156 C 181.027344 218.910156 180.585938 218.515625 180.535156 217.988281 C 180.484375 217.433594 180.890625 216.9375 181.449219 216.882812 L 199.117188 215.222656 C 199.683594 215.171875 200.167969 215.582031 200.222656 216.136719 C 200.273438 216.695312 199.863281 217.191406 199.304688 217.242188 L 181.640625 218.90625 C 181.609375 218.910156 181.574219 218.910156 181.542969 218.910156 " fill-opacity="1" fill-rule="nonzero"/><path fill="#f08059" d="M 185.441406 228.835938 C 184.945312 228.835938 184.511719 228.472656 184.4375 227.96875 C 184.355469 227.414062 184.742188 226.898438 185.296875 226.816406 L 196.046875 225.246094 C 196.597656 225.152344 197.113281 225.546875 197.195312 226.101562 C 197.277344 226.65625 196.894531 227.171875 196.339844 227.253906 L 185.589844 228.824219 C 185.539062 228.832031 185.488281 228.835938 185.441406 228.835938 " fill-opacity="1" fill-rule="nonzero"/><path fill="#ff9974" d="M 240.09375 201.53125 C 240.09375 201.53125 251.628906 239.03125 251.613281 241.773438 C 251.601562 244.515625 236.859375 247.34375 234.3125 245.824219 C 231.769531 244.304688 228.617188 243.59375 225.429688 234.167969 C 219.933594 217.925781 232.421875 205.503906 231.800781 205.519531 C 231.179688 205.53125 240.09375 201.53125 240.09375 201.53125 " fill-opacity="1" fill-rule="nonzero"/><path fill="#ff9974" d="M 191.238281 239.925781 C 190.371094 234.035156 176.441406 225.34375 176.441406 225.34375 C 176.441406 225.34375 161.695312 237.316406 154.382812 242.246094 C 148.734375 246.054688 143.089844 249.875 137.511719 253.785156 C 125.941406 261.902344 113.375 270.515625 104.742188 281.902344 C 103.222656 283.90625 101.824219 286.039062 100.851562 288.367188 C 98.535156 293.921875 98.765625 302.902344 102.6875 308.027344 C 107.101562 313.796875 118.578125 315.683594 124.664062 313.214844 C 135.09375 308.980469 143.8125 301.246094 151.003906 292.734375 C 158.605469 283.738281 180.53125 254.992188 184.898438 250.386719 C 187.320312 247.835938 191.78125 243.625 191.238281 239.925781 " fill-opacity="1" fill-rule="nonzero"/><path fill="#ff9974" d="M 224.257812 179.9375 C 220.480469 182.203125 225.769531 189.160156 226.957031 191.507812 C 227.984375 193.542969 228.957031 195.597656 229.898438 197.667969 C 229.285156 196.574219 228.671875 195.480469 228.0625 194.402344 C 226.449219 191.539062 222.433594 184.277344 218.273438 184.484375 C 214.65625 184.667969 216.664062 191.84375 217.695312 193.511719 C 215.828125 192.261719 213.550781 191.707031 212.75 193.558594 C 211.554688 196.332031 218.410156 206.976562 219.992188 209.582031 C 221.648438 212.3125 222.90625 215.203125 224.152344 218.101562 C 223.035156 216.289062 221.9375 214.464844 220.769531 212.6875 C 219.339844 210.515625 215.339844 206.667969 213.148438 208.449219 C 211.417969 209.855469 215.257812 215.734375 216.890625 217.894531 C 221.027344 223.371094 222.613281 227.960938 226.597656 233.546875 C 227.070312 234.214844 228.359375 233.714844 228.128906 232.878906 C 228.039062 232.558594 227.929688 232.253906 227.8125 231.945312 C 227.996094 231.8125 228.121094 231.589844 228.121094 231.273438 C 228.125 230.683594 228.351562 230.125 228.664062 229.589844 C 228.699219 229.660156 228.738281 229.726562 228.773438 229.796875 C 229.460938 231.21875 231.511719 230.277344 230.996094 228.808594 C 230.816406 228.300781 230.570312 227.84375 230.332031 227.375 C 230.554688 227.09375 230.765625 226.8125 230.929688 226.535156 C 231.78125 225.089844 232.398438 223.46875 232.976562 221.855469 C 233.726562 222.257812 234.902344 221.835938 234.621094 220.820312 C 234.515625 220.445312 234.296875 219.839844 233.984375 219.070312 C 234.625 217.324219 235.234375 215.609375 235.898438 213.9375 C 236.609375 214.058594 237.308594 213.414062 237.011719 212.550781 C 236.964844 212.414062 236.902344 212.28125 236.851562 212.148438 C 237.546875 212.058594 238.183594 211.316406 237.859375 210.515625 C 237.792969 210.34375 237.722656 210.171875 237.65625 210 C 238.324219 208.675781 239.082031 207.382812 239.976562 206.125 C 240.050781 206.0625 240.117188 205.988281 240.164062 205.898438 C 240.238281 205.765625 240.308594 205.628906 240.382812 205.496094 C 240.53125 205.347656 240.09375 201.53125 240.09375 201.53125 C 240.09375 201.53125 228.980469 177.105469 224.257812 179.9375 " fill-opacity="1" fill-rule="nonzero"/><path fill="#f08059" d="M 237.003906 211.855469 C 236.640625 211.855469 236.292969 211.664062 236.109375 211.320312 L 229.007812 198.148438 C 228.738281 197.65625 228.921875 197.039062 229.417969 196.773438 C 229.90625 196.507812 230.523438 196.695312 230.789062 197.1875 L 237.894531 210.359375 C 238.160156 210.851562 237.976562 211.46875 237.484375 211.734375 C 237.328125 211.816406 237.164062 211.855469 237.003906 211.855469 " fill-opacity="1" fill-rule="nonzero"/><path fill="#f08059" d="M 229.410156 215.417969 C 228.996094 215.417969 228.605469 215.160156 228.457031 214.75 C 228.441406 214.710938 226.996094 210.75 225.574219 207.90625 C 224.148438 205.050781 218.085938 195.082031 218.023438 194.984375 C 217.730469 194.503906 217.882812 193.878906 218.363281 193.585938 C 218.839844 193.296875 219.464844 193.449219 219.757812 193.925781 C 220.007812 194.339844 225.925781 204.066406 227.390625 207 C 228.863281 209.949219 230.300781 213.886719 230.363281 214.054688 C 230.554688 214.578125 230.285156 215.164062 229.757812 215.355469 C 229.644531 215.398438 229.523438 215.417969 229.410156 215.417969 " fill-opacity="1" fill-rule="nonzero"/><path fill="#ff9974" d="M 304.605469 291.246094 C 303.1875 289.296875 301.621094 287.492188 300.0625 285.828125 C 294.175781 279.59375 288.457031 273.179688 282.511719 266.964844 C 274.539062 258.679688 266.484375 250.476562 258.371094 242.335938 C 255.855469 239.839844 253.335938 237.320312 250.824219 234.820312 C 250.761719 234.742188 249.523438 233.480469 249.464844 233.480469 L 248.976562 233.703125 L 229.90625 242.375 C 229.90625 242.375 230.59375 243.550781 231.851562 245.601562 C 233.417969 248.222656 235.871094 252.265625 238.871094 257.136719 C 250.699219 276.40625 271.78125 311.003906 279.632812 317.890625 C 284.398438 322.070312 291.75 325.589844 298.28125 324.699219 C 303.230469 324.011719 308.195312 318.925781 309.960938 313.789062 C 312.71875 305.785156 309.394531 297.808594 304.605469 291.246094 " fill-opacity="1" fill-rule="nonzero"/><path fill="#ff9974" d="M 242.757812 214.402344 L 240.09375 201.53125 C 240.09375 201.53125 241.488281 197.578125 243.898438 198.339844 C 246.308594 199.101562 248.335938 218.09375 249.097656 223.890625 C 249.859375 229.683594 249.097656 235.269531 249.097656 235.269531 C 249.097656 235.269531 243.644531 222.324219 243.644531 221.5625 C 243.644531 220.800781 242.757812 214.402344 242.757812 214.402344 " fill-opacity="1" fill-rule="nonzero"/><path fill="#382732" d="M 258.371094 242.335938 L 238.871094 257.136719 C 235.871094 252.265625 233.417969 248.222656 231.851562 245.601562 L 248.976562 233.703125 L 249.464844 233.480469 C 249.523438 233.480469 250.761719 234.742188 250.824219 234.820312 C 253.335938 237.320312 255.855469 239.839844 258.371094 242.335938 " fill-opacity="1" fill-rule="nonzero"/><path fill="#a17f85" d="M 253.367188 244.324219 C 253.367188 239.636719 249.570312 235.835938 244.882812 235.835938 C 240.199219 235.835938 236.402344 239.636719 236.402344 244.324219 C 236.402344 249.011719 240.199219 252.8125 244.882812 252.8125 C 249.570312 252.8125 253.367188 249.011719 253.367188 244.324219 " fill-opacity="1" fill-rule="nonzero"/><path fill="#f5e3cb" d="M 252.035156 244.324219 C 252.035156 240.371094 248.832031 237.167969 244.882812 237.167969 C 240.933594 237.167969 237.734375 240.371094 237.734375 244.324219 C 237.734375 248.277344 240.933594 251.480469 244.882812 251.480469 C 248.832031 251.480469 252.035156 248.277344 252.035156 244.324219 " fill-opacity="1" fill-rule="nonzero"/><path fill="#f08059" d="M 299.820312 282.476562 C 299.566406 282.476562 299.320312 282.386719 299.121094 282.199219 L 278.664062 262.910156 C 278.257812 262.527344 278.238281 261.882812 278.621094 261.476562 C 279.003906 261.066406 279.648438 261.046875 280.054688 261.433594 L 300.515625 280.722656 C 300.921875 281.105469 300.941406 281.75 300.554688 282.15625 C 300.355469 282.371094 300.085938 282.476562 299.820312 282.476562 " fill-opacity="1" fill-rule="nonzero"/><path fill="#f08059" d="M 110.296875 268.433594 C 109.921875 268.433594 109.566406 268.226562 109.386719 267.871094 C 109.136719 267.367188 109.339844 266.757812 109.839844 266.511719 L 133.511719 254.667969 C 134.011719 254.414062 134.621094 254.617188 134.871094 255.121094 C 135.121094 255.621094 134.917969 256.230469 134.417969 256.480469 L 110.75 268.324219 C 110.601562 268.398438 110.449219 268.433594 110.296875 268.433594 " fill-opacity="1" fill-rule="nonzero"/><path fill="#382732" d="M 136.753906 242.121094 C 136.726562 242.121094 136.699219 242.121094 136.671875 242.117188 C 136.113281 242.070312 135.699219 241.582031 135.742188 241.019531 C 137.0625 225.09375 138.703125 200.464844 137.824219 197.914062 C 136.820312 195 126.410156 179.789062 122.480469 174.175781 C 122.160156 173.714844 122.273438 173.082031 122.730469 172.761719 C 123.1875 172.4375 123.824219 172.546875 124.144531 173.007812 C 124.726562 173.84375 138.441406 193.472656 139.742188 197.25 C 141.042969 201.027344 138.105469 237.089844 137.765625 241.191406 C 137.722656 241.71875 137.277344 242.121094 136.753906 242.121094 " fill-opacity="1" fill-rule="nonzero"/><path fill="#382732" d="M 278.09375 242.121094 C 277.535156 242.121094 277.082031 241.667969 277.082031 241.105469 C 277.082031 240.886719 277.125 219.226562 281.101562 204 C 282.691406 197.898438 293.667969 179.941406 294.132812 179.179688 C 294.429688 178.699219 295.050781 178.550781 295.53125 178.84375 C 296.007812 179.136719 296.15625 179.761719 295.863281 180.242188 C 295.753906 180.425781 284.578125 198.703125 283.0625 204.511719 C 279.15625 219.484375 279.109375 240.890625 279.109375 241.105469 C 279.109375 241.667969 278.65625 242.121094 278.09375 242.121094 " fill-opacity="1" fill-rule="nonzero"/><path fill="#382732" d="M 207.886719 155.996094 C 185.640625 155.996094 178.597656 137.332031 178.527344 137.136719 C 178.335938 136.609375 178.605469 136.027344 179.132812 135.835938 C 179.65625 135.636719 180.242188 135.914062 180.433594 136.441406 C 180.710938 137.195312 187.515625 154.992188 209.742188 153.921875 C 225.046875 153.191406 232.992188 142.152344 233.070312 142.042969 C 233.390625 141.585938 234.023438 141.476562 234.480469 141.796875 C 234.941406 142.121094 235.050781 142.753906 234.726562 143.210938 C 234.382812 143.699219 226.125 155.175781 209.839844 155.949219 C 209.175781 155.984375 208.523438 155.996094 207.886719 155.996094 " fill-opacity="1" fill-rule="nonzero"/><path fill="#382732" d="M 282.742188 214.625 C 282.542969 214.625 282.339844 214.566406 282.160156 214.441406 C 281.703125 214.121094 281.589844 213.488281 281.910156 213.027344 L 301.859375 184.382812 C 302.179688 183.921875 302.808594 183.808594 303.269531 184.128906 C 303.730469 184.449219 303.84375 185.082031 303.523438 185.542969 L 283.574219 214.191406 C 283.378906 214.472656 283.0625 214.625 282.742188 214.625 " fill-opacity="1" fill-rule="nonzero"/><path fill="#ffffff" d="M 213.347656 200.390625 C 213.347656 198.550781 211.855469 197.0625 210.019531 197.0625 C 208.179688 197.0625 206.691406 198.550781 206.691406 200.390625 C 206.691406 202.230469 208.179688 203.722656 210.019531 203.722656 C 211.855469 203.722656 213.347656 202.230469 213.347656 200.390625 " fill-opacity="1" fill-rule="nonzero"/><path fill="#382732" d="M 181.003906 79.738281 C 180.703125 78.09375 179.128906 77 177.484375 77.296875 C 175.835938 77.597656 174.746094 79.175781 175.042969 80.824219 C 175.34375 82.46875 176.921875 83.5625 178.566406 83.261719 C 180.210938 82.964844 181.304688 81.382812 181.003906 79.738281 " fill-opacity="1" fill-rule="nonzero"/><path fill="#382732" d="M 179.4375 90.871094 C 178.496094 90.996094 177.628906 90.335938 177.5 89.394531 L 176.585938 82.660156 C 176.519531 82.160156 176.871094 81.699219 177.371094 81.632812 L 178.976562 81.414062 C 179.476562 81.347656 179.933594 81.699219 180.003906 82.195312 L 180.914062 88.929688 C 181.042969 89.875 180.382812 90.742188 179.4375 90.871094 " fill-opacity="1" fill-rule="nonzero"/><path fill="#382732" d="M 178.023438 80.429688 C 178.023438 81.570312 177.101562 82.496094 175.960938 82.496094 C 174.820312 82.496094 173.894531 81.570312 173.894531 80.429688 C 173.894531 79.289062 174.820312 78.363281 175.960938 78.363281 C 177.101562 78.363281 178.023438 79.289062 178.023438 80.429688 " fill-opacity="1" fill-rule="nonzero"/><path fill="#a17f85" d="M 182.199219 81.621094 L 181.277344 81.742188 C 180.652344 81.828125 180.078125 81.390625 179.992188 80.765625 L 179.695312 78.585938 C 179.613281 77.960938 180.050781 77.386719 180.675781 77.300781 L 181.597656 77.175781 C 182.222656 77.09375 182.796875 77.53125 182.878906 78.15625 L 183.175781 80.332031 C 183.261719 80.957031 182.824219 81.535156 182.199219 81.621094 " fill-opacity="1" fill-rule="nonzero"/><path fill="#694c52" d="M 176.320312 82.34375 C 175.945312 82.34375 175.621094 82.066406 175.566406 81.6875 L 175.238281 79.320312 C 175.179688 78.902344 175.472656 78.519531 175.886719 78.460938 C 176.304688 78.410156 176.6875 78.695312 176.746094 79.109375 L 177.074219 81.476562 C 177.132812 81.890625 176.839844 82.277344 176.425781 82.335938 C 176.390625 82.339844 176.355469 82.34375 176.320312 82.34375 " fill-opacity="1" fill-rule="nonzero"/><path fill="#382732" d="M 247.109375 85.351562 C 247.738281 83.800781 249.503906 83.054688 251.054688 83.683594 C 252.601562 84.3125 253.347656 86.082031 252.71875 87.632812 C 252.089844 89.179688 250.324219 89.929688 248.773438 89.300781 C 247.226562 88.671875 246.480469 86.902344 247.109375 85.351562 " fill-opacity="1" fill-rule="nonzero"/><path fill="#382732" d="M 246.367188 96.570312 C 247.265625 96.886719 248.25 96.417969 248.566406 95.515625 L 250.835938 89.113281 C 251.003906 88.636719 250.753906 88.117188 250.28125 87.949219 L 248.75 87.40625 C 248.277344 87.238281 247.753906 87.488281 247.585938 87.960938 L 245.320312 94.363281 C 245 95.265625 245.46875 96.25 246.367188 96.570312 " fill-opacity="1" fill-rule="nonzero"/><path fill="#382732" d="M 249.882812 86.636719 C 249.652344 87.753906 250.367188 88.847656 251.484375 89.082031 C 252.597656 89.3125 253.691406 88.597656 253.925781 87.480469 C 254.160156 86.363281 253.441406 85.269531 252.328125 85.035156 C 251.210938 84.800781 250.117188 85.519531 249.882812 86.636719 " fill-opacity="1" fill-rule="nonzero"/><path fill="#a17f85" d="M 245.554688 86.945312 L 246.429688 87.257812 C 247.027344 87.46875 247.675781 87.15625 247.886719 86.5625 L 248.621094 84.488281 C 248.832031 83.894531 248.519531 83.242188 247.925781 83.035156 L 247.050781 82.722656 C 246.457031 82.511719 245.804688 82.820312 245.59375 83.417969 L 244.859375 85.492188 C 244.648438 86.082031 244.960938 86.738281 245.554688 86.945312 " fill-opacity="1" fill-rule="nonzero"/><path fill="#694c52" d="M 251.316406 88.875 C 251.230469 88.875 251.144531 88.859375 251.058594 88.828125 C 250.664062 88.6875 250.457031 88.25 250.601562 87.855469 L 251.402344 85.605469 C 251.542969 85.207031 251.976562 85 252.375 85.148438 C 252.769531 85.289062 252.976562 85.726562 252.835938 86.121094 L 252.03125 88.371094 C 251.921875 88.679688 251.628906 88.875 251.316406 88.875 " fill-opacity="1" fill-rule="nonzero"/><path fill="#ff9974" d="M 181.175781 75.789062 C 181.175781 75.789062 182.777344 76.507812 182.378906 78.414062 C 181.980469 80.316406 182.230469 81.609375 182.441406 82.335938 C 182.65625 83.0625 184.558594 83.488281 184.558594 83.488281 C 184.558594 83.488281 187.347656 77.648438 186.542969 76.972656 C 185.738281 76.296875 183.414062 74.519531 183.289062 74.476562 C 183.160156 74.4375 181.175781 75.789062 181.175781 75.789062 " fill-opacity="1" fill-rule="nonzero"/><path fill="#f08059" d="M 182.378906 76.007812 C 181.84375 76.007812 181.398438 75.59375 181.367188 75.054688 C 181.363281 75.03125 181.222656 72.796875 180.726562 71.386719 C 180.386719 70.414062 179.324219 70.210938 179.3125 70.210938 C 178.757812 70.117188 178.386719 69.59375 178.480469 69.039062 C 178.574219 68.488281 179.085938 68.113281 179.648438 68.207031 C 180.480469 68.347656 182.050781 69.03125 182.640625 70.714844 C 183.230469 72.394531 183.382812 74.828125 183.390625 74.929688 C 183.425781 75.492188 183 75.96875 182.441406 76.003906 C 182.417969 76.003906 182.398438 76.007812 182.378906 76.007812 " fill-opacity="1" fill-rule="nonzero"/><path fill="#ff9974" d="M 247.621094 81.300781 C 247.621094 81.300781 245.929688 81.757812 246.027344 83.703125 C 246.125 85.644531 245.679688 86.882812 245.355469 87.566406 C 245.03125 88.253906 243.085938 88.378906 243.085938 88.378906 C 243.085938 88.378906 241.238281 82.175781 242.136719 81.632812 C 243.035156 81.089844 245.605469 79.695312 245.738281 79.675781 C 245.871094 79.652344 247.621094 81.300781 247.621094 81.300781 " fill-opacity="1" fill-rule="nonzero"/><path fill="#f08059" d="M 247.101562 81.582031 C 247.089844 81.582031 247.078125 81.582031 247.066406 81.582031 C 246.507812 81.5625 246.070312 81.09375 246.085938 80.53125 C 246.140625 79.0625 246.449219 75.539062 248.195312 74.730469 C 248.707031 74.496094 249.308594 74.714844 249.542969 75.226562 C 249.78125 75.734375 249.558594 76.335938 249.050781 76.570312 C 248.636719 76.835938 248.179688 78.796875 248.113281 80.605469 C 248.09375 81.15625 247.644531 81.582031 247.101562 81.582031 " fill-opacity="1" fill-rule="nonzero"/><path fill="#f5e3cb" d="M 180.929688 198.074219 C 180.78125 198.074219 180.628906 198.042969 180.484375 197.972656 C 179.726562 197.601562 161.738281 188.589844 142.855469 161.273438 C 124 134.003906 118.753906 108.730469 118.703125 108.476562 C 118.589844 107.925781 118.945312 107.390625 119.496094 107.28125 C 120.050781 107.179688 120.578125 107.527344 120.691406 108.074219 C 120.738281 108.324219 125.921875 133.214844 144.523438 160.117188 C 163.109375 187 181.195312 196.058594 181.375 196.148438 C 181.878906 196.394531 182.085938 197.003906 181.839844 197.507812 C 181.664062 197.867188 181.304688 198.074219 180.929688 198.074219 " fill-opacity="1" fill-rule="nonzero"/><path fill="#f5e3cb" d="M 143.195312 52.234375 C 145.96875 54.832031 146.199219 91.925781 142.886719 94.648438 C 139.574219 97.371094 27.375 100.792969 24.949219 97.722656 C 22.523438 94.648438 20.863281 57.957031 23.90625 54.832031 C 26.949219 51.699219 140.421875 49.636719 143.195312 52.234375 " fill-opacity="1" fill-rule="nonzero"/><path fill="#ffffff" d="M 30.207031 64.878906 C 29.65625 64.878906 29.203125 64.4375 29.191406 63.882812 C 29.179688 63.324219 29.625 62.859375 30.183594 62.847656 L 58.328125 62.257812 C 58.335938 62.257812 58.34375 62.257812 58.347656 62.257812 C 58.898438 62.257812 59.351562 62.695312 59.363281 63.246094 C 59.375 63.808594 58.929688 64.273438 58.371094 64.285156 L 30.226562 64.878906 C 30.21875 64.878906 30.214844 64.878906 30.207031 64.878906 " fill-opacity="1" fill-rule="nonzero"/><path fill="#ffffff" d="M 30.402344 76.304688 C 29.851562 76.304688 29.402344 75.863281 29.390625 75.308594 C 29.378906 74.75 29.820312 74.285156 30.382812 74.273438 L 58.523438 73.679688 C 59.183594 73.695312 59.550781 74.113281 59.5625 74.675781 C 59.574219 75.238281 59.128906 75.699219 58.570312 75.710938 L 30.425781 76.304688 C 30.417969 76.304688 30.410156 76.304688 30.402344 76.304688 " fill-opacity="1" fill-rule="nonzero"/><path fill="#ffffff" d="M 30.601562 87.730469 C 30.050781 87.730469 29.597656 87.289062 29.585938 86.734375 C 29.574219 86.175781 30.019531 85.710938 30.578125 85.699219 L 58.722656 85.109375 C 59.265625 85.097656 59.746094 85.542969 59.757812 86.101562 C 59.769531 86.660156 59.324219 87.125 58.765625 87.136719 L 30.621094 87.730469 C 30.613281 87.730469 30.605469 87.730469 30.601562 87.730469 " fill-opacity="1" fill-rule="nonzero"/><path fill="#ffffff" d="M 67.78125 62.660156 C 66.101562 65.460938 67.445312 87.476562 69.425781 88.992188 C 71.945312 89.503906 129.234375 88.140625 135.480469 87.410156 C 136.035156 84.011719 136.316406 64.125 135.46875 61.089844 C 130.222656 59.703125 72.117188 61.035156 67.78125 62.660156 Z M 70.164062 90.945312 C 69.375 90.945312 68.925781 90.941406 68.886719 90.929688 C 67.910156 90.722656 67.214844 89.683594 66.640625 87.5625 C 64.917969 81.214844 64.152344 63.210938 66.429688 61.121094 C 68.933594 58.820312 127.386719 57.960938 135.050781 58.972656 C 136.140625 59.117188 136.796875 59.292969 137.121094 59.800781 C 137.996094 61.179688 138.710938 87.582031 136.910156 89.070312 C 135.375 90.335938 79.398438 90.945312 70.164062 90.945312 " fill-opacity="1" fill-rule="nonzero"/><path fill="#ffffff" d="M 86.804688 80.941406 C 86.136719 81.550781 75.28125 81.332031 74.75 81.121094 C 74.222656 80.90625 74.03125 70.933594 74.589844 70.039062 C 75.148438 69.144531 86.109375 69.476562 86.640625 69.859375 C 87.175781 70.246094 87.472656 80.332031 86.804688 80.941406 " fill-opacity="1" fill-rule="nonzero"/><path fill="#ffffff" d="M 101.5 81.292969 L 97.441406 81.292969 L 97.441406 68.300781 L 101.5 68.300781 L 101.5 81.292969 " fill-opacity="1" fill-rule="nonzero"/><path fill="#ffffff" d="M 109.175781 81.292969 L 105.117188 81.292969 L 105.117188 68.300781 L 109.175781 68.300781 L 109.175781 81.292969 " fill-opacity="1" fill-rule="nonzero"/><path fill="#ffffff" d="M 120.710938 68.417969 C 119.695312 68.417969 120.117188 81.160156 120.792969 81.414062 C 121.472656 81.667969 131.53125 75.355469 131.699219 74.664062 C 131.867188 73.96875 121.726562 68.417969 120.710938 68.417969 " fill-opacity="1" fill-rule="nonzero"/><path fill="#dae0f7" d="M 336.621094 52.363281 C 332.972656 53.046875 329.945312 52.28125 326.21875 53.402344 C 323.59375 54.191406 321.019531 55.234375 318.71875 56.738281 C 313.238281 60.324219 311.042969 66.058594 306.515625 70.394531 C 302.148438 74.574219 295.265625 73.285156 290.226562 76.28125 C 286.085938 78.75 282.855469 83.558594 281.121094 87.96875 C 280.78125 88.832031 282.097656 89.574219 282.6875 88.878906 C 287.082031 83.65625 289.019531 78.433594 296.398438 76.71875 C 300.71875 75.714844 305.007812 75.492188 308.382812 72.257812 C 313.121094 67.714844 315.390625 61.742188 321.40625 58.34375 C 324.453125 56.625 328.039062 55.519531 331.511719 55.136719 C 333.929688 54.875 335.402344 55.070312 337.28125 53.503906 C 337.855469 53.027344 337.222656 52.253906 336.621094 52.363281 " fill-opacity="1" fill-rule="nonzero"/><g clip-path="url(#0788ceff2a)"><path fill="#dae0f7" d="M 350.492188 61.882812 C 350.074219 61.957031 349.757812 61.765625 349.515625 61.476562 C 349.464844 60.988281 349.492188 60.523438 349.972656 60.132812 C 350.5625 59.648438 351.347656 59.558594 351.515625 60.410156 C 351.660156 61.152344 351.199219 61.765625 350.492188 61.882812 Z M 353.757812 59.738281 C 353.222656 57.484375 350.769531 56.882812 348.933594 58.019531 C 348.042969 58.566406 347.375 59.480469 347.1875 60.511719 C 346.863281 62.257812 347.988281 63.300781 349.507812 63.851562 C 352.117188 64.796875 354.367188 62.292969 353.757812 59.738281 " fill-opacity="1" fill-rule="nonzero"/></g><path fill="#dae0f7" d="M 316.671875 106.746094 C 313.210938 105.632812 309.621094 108.191406 306.800781 109.941406 C 306.226562 110.296875 305.824219 111.085938 306.058594 111.761719 C 307.117188 114.804688 307.9375 118.027344 308.265625 121.238281 C 308.300781 121.578125 308.265625 123.292969 308.136719 124.957031 C 306.519531 124.171875 304.660156 124.179688 303.929688 126.359375 C 303.035156 129.027344 306.328125 131.589844 308.808594 131.371094 C 311.542969 131.121094 311.550781 128.175781 311.695312 126.070312 C 312.019531 121.289062 310.976562 116.679688 309.5625 112.148438 C 311.980469 110.859375 314.417969 109.753906 316.910156 108.566406 C 317.730469 108.175781 317.425781 106.988281 316.671875 106.746094 " fill-opacity="1" fill-rule="nonzero"/><path fill="#dae0f7" d="M 347.460938 102.765625 C 347.09375 102.78125 346.800781 102.550781 346.808594 101.960938 C 346.8125 101.3125 346.636719 100.703125 347.269531 100.363281 C 347.652344 100.15625 348.476562 100.253906 348.695312 100.671875 C 349.230469 101.707031 348.199219 102.734375 347.460938 102.765625 Z M 350.164062 98.625 C 349 97.632812 347.132812 97.535156 345.832031 98.320312 C 345.035156 98.804688 344.492188 99.730469 344.175781 100.585938 C 343.691406 101.917969 344.253906 103.386719 345.300781 104.28125 C 346.957031 105.703125 349.320312 105.519531 350.519531 103.613281 C 351.480469 102.082031 351.632812 99.878906 350.164062 98.625 " fill-opacity="1" fill-rule="nonzero"/><path fill="#dae0f7" d="M 296.480469 59.949219 C 295.25 60.484375 293.570312 60.074219 292.878906 58.886719 C 292.695312 58.558594 292.582031 58.195312 292.5 57.8125 C 292.394531 55.15625 294.917969 52.035156 297.71875 54.242188 C 299.703125 55.8125 298.578125 59.035156 296.480469 59.949219 Z M 300.207031 52.507812 C 297.570312 49.722656 292.722656 49.871094 290.710938 53.328125 C 289.828125 54.847656 289.464844 57.003906 289.777344 58.726562 C 290.300781 61.628906 294.535156 63.503906 297.167969 62.730469 C 301.308594 61.515625 303.253906 55.722656 300.207031 52.507812 " fill-opacity="1" fill-rule="nonzero"/><path fill="#dae0f7" d="M 338.34375 30.746094 C 336.660156 31.929688 335.527344 33.652344 333.738281 34.703125 C 333.191406 35.039062 332.644531 35.382812 332.113281 35.746094 C 331.125 36.417969 331.335938 36.566406 330.902344 35.859375 C 330.398438 35.035156 330.816406 33.304688 330.804688 32.359375 C 330.773438 29.792969 330.351562 26.046875 330.25 23.511719 C 332.601562 24.992188 333.652344 26.417969 336.140625 27.734375 C 336.808594 28.089844 338.664062 29.09375 339.167969 29.683594 C 339.28125 29.8125 339.328125 30 339.238281 30.144531 C 339.183594 30.230469 339.085938 30.289062 338.992188 30.339844 C 338.765625 30.46875 338.550781 30.601562 338.34375 30.746094 Z M 342.328125 28.683594 C 341.429688 27.09375 338.890625 26.582031 337.425781 25.539062 C 335.171875 23.933594 333.105469 21.542969 330.539062 20.402344 C 330.011719 20.167969 329.519531 20.242188 329.113281 20.453125 C 328.703125 20.433594 328.292969 20.578125 328.089844 20.960938 C 326.894531 23.230469 327.402344 25.824219 327.714844 28.246094 C 327.96875 30.199219 327.695312 33.398438 327.871094 35.347656 C 328.265625 39.695312 331.304688 39.511719 334.636719 37.460938 C 336.691406 36.191406 344.226562 32.039062 342.328125 28.683594 " fill-opacity="1" fill-rule="nonzero"/><path fill="#dae0f7" d="M 325.527344 30.746094 C 323.84375 31.929688 322.710938 33.652344 320.921875 34.703125 C 320.378906 35.039062 319.824219 35.382812 319.296875 35.746094 C 318.308594 36.417969 318.519531 36.566406 318.085938 35.859375 C 317.582031 35.035156 317.996094 33.304688 317.988281 32.359375 C 317.957031 29.792969 317.535156 26.046875 317.433594 23.511719 C 319.78125 24.992188 320.835938 26.417969 323.324219 27.734375 C 323.992188 28.089844 325.84375 29.09375 326.351562 29.683594 C 326.460938 29.8125 326.511719 30 326.421875 30.144531 C 326.367188 30.230469 326.269531 30.289062 326.171875 30.339844 C 325.949219 30.46875 325.734375 30.601562 325.527344 30.746094 Z M 329.511719 28.683594 C 328.613281 27.09375 326.070312 26.582031 324.609375 25.539062 C 322.355469 23.933594 320.289062 21.542969 317.722656 20.402344 C 317.195312 20.167969 316.703125 20.242188 316.296875 20.453125 C 315.886719 20.433594 315.480469 20.578125 315.273438 20.960938 C 314.074219 23.230469 314.585938 25.824219 314.898438 28.246094 C 315.152344 30.199219 314.878906 33.398438 315.054688 35.347656 C 315.449219 39.695312 318.488281 39.511719 321.820312 37.460938 C 323.875 36.191406 331.410156 32.039062 329.511719 28.683594 " fill-opacity="1" fill-rule="nonzero"/><path fill="#dae0f7" d="M 333.402344 85.40625 C 330.023438 87.71875 327.882812 90.476562 323.664062 91.714844 C 319.59375 92.914062 315.464844 92.769531 311.28125 92.976562 C 304.988281 93.292969 297.355469 94.800781 293.714844 100.503906 C 293.140625 101.40625 294.269531 102.476562 295.15625 101.949219 C 299.238281 99.527344 302.292969 97.140625 307.132812 96.40625 C 311.308594 95.769531 315.53125 96.183594 319.714844 95.652344 C 324.824219 95.003906 333.847656 92.664062 334.949219 86.597656 C 335.097656 85.777344 334.226562 84.84375 333.402344 85.40625 " fill-opacity="1" fill-rule="nonzero"/><path fill="#dae0f7" d="M 323.722656 66.488281 C 322.0625 66.488281 320.472656 67.945312 320.550781 69.660156 C 320.628906 71.378906 321.945312 72.832031 323.722656 72.832031 C 325.378906 72.832031 326.96875 71.375 326.890625 69.660156 C 326.8125 67.941406 325.5 66.488281 323.722656 66.488281 " fill-opacity="1" fill-rule="nonzero"/></svg>